<svg xmlns="http://www.w3.org/2000/svg" xmlns:xlink="http://www.w3.org/1999/xlink" width="800" height="592" viewBox="0 0 800 592">
    <defs>
        <path id="a" d="M3.217 20.678L35.51 39.322l32.072-18.638L35.29 2.04 3.217 20.678zm31.794 20.666L.722 21.547.72 19.816 34.786.019l1.002-.001 34.289 19.796.003 1.731-34.066 19.797-1.003.002z"/>
        <path id="c" d="M2.401 22.06l.105 37.095 32.303-18.65-.105-37.095L2.401 22.06zm-.39 39.69l-1.5-.863L.4 21.486l.5-.869L35.199.814l1.5.864.112 39.4-.5.869-34.3 19.803z"/>
        <path id="e" d="M34.521 59.884l.112-39.401L.334.681l-.112 39.4 34.299 19.803"/>
    </defs>
    <g fill="none" fill-rule="evenodd" transform="translate(169 101)">
        <path fill="#1B1A19" d="M3.72 167.678l32.293 18.644 32.072-18.638-32.292-18.644L3.72 167.678zm31.794 20.666L1.225 168.547l-.002-1.731 34.066-19.797 1.002-.001 34.289 19.796.003 1.731-34.066 19.797-1.003.002z"/>
        <g transform="translate(.503 147)">
            <mask id="b" fill="#fff">
                <use xlink:href="#a"/>
            </mask>
            <path fill="#1B1A19" d="M3.217 20.678L35.51 39.322l32.072-18.638L35.29 2.04 3.217 20.678zm31.794 20.666L.722 21.547.72 19.816 34.786.019l1.002-.001 34.289 19.796.003 1.731-34.066 19.797-1.003.002z" mask="url(#b)"/>
        </g>
        <path fill="#1B1A19" d="M36.904 188.06l.105 37.095 32.303-18.65-.105-37.095-32.303 18.65zm-.39 39.69l-1.5-.863-.111-39.401.5-.869 34.299-19.803 1.5.864.112 39.4-.5.869-34.3 19.803z"/>
        <g transform="translate(34.503 166)">
            <mask id="d" fill="#fff">
                <use xlink:href="#c"/>
            </mask>
            <path fill="#1B1A19" d="M2.401 22.06l.105 37.095 32.303-18.65-.105-37.095L2.401 22.06zm-.39 39.69l-1.5-.863L.4 21.486l.5-.869L35.199.814l1.5.864.112 39.4-.5.869-34.3 19.803z" mask="url(#d)"/>
        </g>
        <path fill="#1B1A19" d="M36.024 226.884l.112-39.401-34.299-19.802-.112 39.4 34.299 19.803"/>
        <g transform="translate(1.503 167)">
            <mask id="f" fill="#fff">
                <use xlink:href="#e"/>
            </mask>
            <path fill="#1B1A19" d="M.334.681l34.299 19.802-.112 39.401L.222 40.081.334.681" mask="url(#f)"/>
        </g>
        <path fill="#1B1A19" d="M280.104 285.677l32.292 18.643 32.072-18.638-32.292-18.643-32.072 18.638zm31.794 20.665l-34.29-19.796-.002-1.731 34.066-19.797 1.002-.001 34.289 19.796.003 1.731-34.066 19.797-1.002.001z"/>
        <path fill="#1B1A19" d="M313.288 306.058l.105 37.096 32.302-18.65-.105-37.095-32.302 18.649zm-.39 39.691l-1.5-.863-.112-39.401.5-.869 34.299-19.803 1.5.864.112 39.4-.5.869-34.299 19.803z"/>
        <path fill="#1B1A19" d="M279.11 324.504l32.303 18.65.105-37.096-32.303-18.649-.105 37.095zm32.798 21.245l-34.3-19.803-.5-.869.112-39.4 1.5-.864 34.3 19.803.5.869-.112 39.401-1.5.863zM86.529 13.939l19.135 11.047 19.002-11.042-19.135-11.048-19.002 11.043zm18.637 13.069l-21.132-12.2-.003-1.731L105.026.876l1.003-.002 21.132 12.201.003 1.731-20.996 12.201-1.002.001z"/>
        <path fill="#1B1A19" d="M105.667 50.428l-.069-24.282 21.138-12.205.069 24.283-21.138 12.204"/>
        <path fill="#1B1A19" d="M85.536 37.648l19.142 11.051.061-21.977-19.14-11.051-.063 21.977zm19.637 13.646L84.034 39.09l-.5-.869.07-24.283 1.5-.863 21.137 12.205.5.869-.068 24.282-1.5.863zM42.931 163.598c-3.909-2.257-10.22-2.259-14.105-.002-3.88 2.255-3.86 5.913.05 8.17 3.906 2.255 10.221 2.255 14.101 0 3.884-2.257 3.86-5.913-.046-8.168M329.491 315.978h78.425v-2h-78.425zM153 315.978h78.425v-2H153z"/>
        <path fill="#1B1A19" d="M406 316v-2l-.001-.022V124.884h2v191.094zM283.999 93.884h85v-2h-85zM36.903 167.681h-2V91.884H152.75v2H36.903v73.797M34.903 315.978v-71.094h2v69.094h16.355v2zM329.469 307.023c-3.822 2.207-6.913 7.559-6.9 11.952.012 4.395 3.122 6.164 6.945 3.957 3.825-2.208 6.912-7.556 6.9-11.951-.013-4.393-3.12-6.167-6.945-3.958M212.138 116.217V31.185H118.5v2h91.638v83.032z"/>
        <path fill="#1B1A19" d="M288 92.884a6.251 6.251 0 1 1-12.502-.002 6.251 6.251 0 0 1 12.502.002M234.5 315.25a6.251 6.251 0 1 1-12.502-.002 6.251 6.251 0 0 1 12.502.002M217.75 121.217a6.25 6.25 0 1 1-12.5 0 6.25 6.25 0 0 1 12.5 0M73.204 275.889v.001-.001M462.333 235.146c-5.875 0-8.838-1.896-11.705-3.73-2.744-1.757-5.336-3.416-10.626-3.416-5.291 0-7.883 1.659-10.627 3.415-2.867 1.835-5.83 3.731-11.705 3.731-5.876 0-8.84-1.896-11.707-3.73-2.745-1.757-5.336-3.416-10.628-3.416s-7.884 1.659-10.629 3.416c-2.867 1.834-5.83 3.73-11.706 3.73v-2c5.291 0 7.882-1.659 10.628-3.415 2.866-1.835 5.83-3.731 11.707-3.731 5.876 0 8.84 1.896 11.707 3.731 2.745 1.756 5.336 3.415 10.628 3.415 5.29 0 7.882-1.659 10.626-3.415 2.867-1.835 5.83-3.731 11.706-3.731 5.876 0 8.838 1.896 11.705 3.731 2.744 1.756 5.336 3.415 10.626 3.415v2M462.333 251.189c-5.875 0-8.838-1.896-11.705-3.73-2.744-1.757-5.336-3.416-10.626-3.416-5.291 0-7.883 1.659-10.627 3.415-2.867 1.835-5.83 3.731-11.705 3.731-5.876 0-8.84-1.896-11.707-3.73-2.745-1.757-5.336-3.416-10.628-3.416s-7.884 1.659-10.629 3.416c-2.867 1.834-5.83 3.73-11.706 3.73v-2c5.291 0 7.882-1.659 10.628-3.415 2.866-1.835 5.83-3.731 11.707-3.731 5.876 0 8.84 1.896 11.707 3.731 2.745 1.756 5.336 3.415 10.628 3.415 5.29 0 7.882-1.659 10.626-3.415 2.867-1.835 5.83-3.731 11.706-3.731 5.876 0 8.838 1.896 11.705 3.731 2.744 1.756 5.336 3.415 10.626 3.415v2"/>
        <path fill="#000" fill-rule="nonzero" d="M189.84 173.043l-1.68-1.086L159.662 216H202v-2h-38.662z"/>
        <path fill="#000" fill-rule="nonzero" d="M190 194.5V235h2v-40.5zM289.84 173.043l-1.68-1.086L259.662 216H302v-2h-38.662z"/>
        <ellipse cx="231" cy="203.5" stroke="#000" stroke-width="2" rx="17" ry="30.5"/>
        <path fill="#000" fill-rule="nonzero" d="M290 194.5V235h2v-40.5z"/>
        <g fill="#1B1A19">
            <path d="M117.463 398.24l9.633 6.453c-.094-1.143-.755-3.115-3.46-5.86-2.446-2.485-1.672-7.407-1.183-9.553l-3.912-.907-1.078 9.867zm10.662 9.55l-12.783-8.564 1.456-13.31 8.144 1.887-.308 1.023c-.524 1.74-1.469 6.677.427 8.602 5.647 5.733 3.834 9.11 3.609 9.477l-.545.884zM154.718 381.951l4.792 7.53 11.193-3.28c-.925-.562-2.733-1.126-6.146-.719-3.05.36-5.048-4.13-5.923-6.676l-3.916 3.145zm3.913 9.872l-6.562-10.31 7.644-6.139.404 1.468c.768 2.794 2.634 6.877 4.204 6.653 7.597-.905 9.023 2.487 9.16 2.877l.349.995-15.199 4.456zM134.297 322.754l-1.725-1.013 16.646-28.332h-25.072l-12.313 19.896-1.7-1.053 12.899-20.843h29.681l-18.416 31.345M67.85 316.308l-1.977-.305c.301-1.947 7.584-47.765 26.619-53.884 5.386-1.729 9.226-.033 9.388.042l-.829 1.82c-.027-.01-3.337-1.44-7.946.042-17.872 5.744-25.183 51.82-25.255 52.285"/>
            <path d="M100.537 264.072c-.663 0-1.333.225-2.023.678-4.925 3.233-6.056 8.74-6.067 8.794l-.002.013c-1.286 6.142-4.534 22.974-7.032 36.012-.356 1.856.263 3.988 1.698 5.846 1.749 2.267 4.433 3.783 7.004 3.955l30.526 1.34.791-3.78c-12.467-2.613-27.032-5.833-28.007-6.809-.837-.836-2.579-2.578-.541-4.87 1.24-1.743 10.079-30.543 9.754-33.428-.218-1.938-2.183-6.232-4.739-7.432a3.172 3.172 0 0 0-1.362-.319zm25.713 58.71l-32.246-1.415c-3.196-.214-6.356-1.982-8.476-4.729-1.785-2.312-2.543-5.026-2.079-7.446 2.499-13.042 5.748-29.88 7.037-36.04.069-.348 1.355-6.414 6.931-10.074 1.743-1.145 3.588-1.317 5.332-.497 3.418 1.605 5.61 6.647 5.877 9.018.328 2.92-8.482 32.995-10.246 34.98-.662.744-.614 1.045.393 2.061 1.674.844 18.024 4.443 28.047 6.537l.979.204-1.549 7.401z"/>
            <path d="M98.216 261.345c1.367 0 2.891.532 3.81.915l3.366-5.392-4.894-2.257-5.337 7.01c.988-.15 2.105-.276 3.055-.276zm4.558 3.495l-.818-.417c-.021-.01-2.135-1.078-3.74-1.078-2.053 0-5.167.694-5.198.701l-2.677.602 9.538-12.526 8.41 3.88-5.515 8.838z"/>
            <path d="M102.505 252.041c3.574 2.981 7.844 6.14 8.806 6.26.126.03.17-.03.195-.056.491-.475.491-2.614.49-4.175v-.163c0-2.81-1.008-7.01-3.261-10.063l-1.52-1.947-4.108 2.823-.602 7.321zm8.817 8.26c-.031 0-.062-.002-.092-.003-1.908-.063-7.914-4.957-10.409-7.058l-.395-.332.766-9.299 6.441-4.427 2.703 3.463c2.528 3.42 3.66 8.12 3.66 11.262v.162c.001 2.441.001 4.55-1.1 5.614-.419.405-.962.617-1.574.617z"/>
            <path d="M113.343 251.944c-1.333 1.334-4.016 2.431-6.112 1.423-.809-.389-2.33-1.56-3.262-2.306.082-2.066-.118-3.895-.315-5.227-.465-3.139 6.757-4.149 7.257-7.482s-4.5-5.167-7.298-4c-2.798 1.167-4.202 4.167-7.702 5.833-3.5 1.667-2.5 5.334-2.167 8.5.333 3.167 3.282 9.32 7.167 8.407.27-.063.517-.16.743-.285.837-.462 1.895-.192 2.529.523 1.511 1.705 3.286 3.727 3.994 4.611 1.333 1.663 3.833 1.17 5.166-1.663 1.334-2.834 1.334-9.667 0-8.334M125.459 389.302l-12.609-3.492.126-.87c.165-1.153 4.08-28.26 6.04-34.173.694-2.095 1.856-5.755 3.454-10.877l1.91.596c-1.602 5.134-2.767 8.804-3.465 10.91-1.713 5.168-5.132 28.173-5.833 32.957l9.056 2.508 10.912-34.206 1.905.607-11.496 36.04M143.307 333.35l-1.905-.608 1.243-3.898a4.25 4.25 0 0 0-.623-3.837 4.251 4.251 0 0 0-3.465-1.76h-5.123v-2h5.123c2.03 0 3.881.941 5.079 2.581a6.223 6.223 0 0 1 .914 5.624l-1.243 3.897"/>
            <path d="M129.288 339.063l23.635 41.768 7.312-5.878-21.372-47.195a8.05 8.05 0 0 0-7.032-4.745l-37.352-1.567-26.815-4.154c-.12.582-.253 1.157-.383 1.72-.972 4.194-1.89 8.157 2.811 14.294 4.666 6.091 43.879 6.235 58.592 5.775l.604-.018zm23.054 44.802l-24.2-42.766c-7.766.222-53.685 1.194-59.637-6.576-5.275-6.886-4.206-11.5-3.172-15.963.204-.882.397-1.714.543-2.572l.165-.97 28.689 4.442 37.185 1.555c3.829.16 7.19 2.428 8.77 5.92l22.011 48.606-10.354 8.324z"/>
            <path d="M128.716 340.081s-44.526 1.388-56.837-4.334H35v13.504h98.434v-.83l-4.718-8.34M127.091 320.797l4.041.19c-.439-.675-2.083-2.108-3.693-3.004l-.348 2.814zm6.127 2.29l-8.377-.393.937-7.567 1.18.431c2.085.76 6.254 3.671 6.258 5.5l.002 2.028z"/>
        </g>
        <path fill="#1B1A19" d="M412.849 102.195l-1.243-1.566 10.57-8.39-10.57-8.389 1.243-1.567 12.544 9.956-12.544 9.956zm-12.712-1.566l-1.243 1.566-12.543-9.956 12.543-9.956 1.243 1.567-10.569 8.389 10.569 8.39zM381 111.48h49.743V73H381v38.48z"/>
    </g>
</svg>
