<svg width="462" height="408" viewBox="0 0 462 408" fill="none" xmlns="http://www.w3.org/2000/svg">
<path fill-rule="evenodd" clip-rule="evenodd" d="M2.72001 167.678L35.013 186.322L67.085 167.684L34.793 149.04L2.72001 167.678ZM34.514 188.344L0.225007 168.547L0.223007 166.816L34.289 147.019L35.291 147.018L69.58 166.814L69.583 168.545L35.517 188.342L34.514 188.344Z" fill="#1B1A19"/>
<mask id="mask0_224_61" style="mask-type:luminance" maskUnits="userSpaceOnUse" x="0" y="147" width="70" height="42">
<path d="M2.72001 167.678L35.013 186.322L67.085 167.684L34.793 149.04L2.72001 167.678ZM34.514 188.344L0.225007 168.547L0.223007 166.816L34.289 147.019L35.291 147.018L69.58 166.814L69.583 168.545L35.517 188.342L34.514 188.344V188.344Z" fill="white"/>
</mask>
<g mask="url(#mask0_224_61)">
<path fill-rule="evenodd" clip-rule="evenodd" d="M2.72001 167.678L35.013 186.322L67.085 167.684L34.793 149.04L2.72001 167.678ZM34.514 188.344L0.225007 168.547L0.223007 166.816L34.289 147.019L35.291 147.018L69.58 166.814L69.583 168.545L35.517 188.342L34.514 188.344Z" fill="#1B1A19"/>
</g>
<path fill-rule="evenodd" clip-rule="evenodd" d="M35.904 188.06L36.009 225.155L68.312 206.505L68.207 169.41L35.904 188.06ZM35.514 227.75L34.014 226.887L33.903 187.486L34.403 186.617L68.702 166.814L70.202 167.678L70.314 207.078L69.814 207.947L35.514 227.75Z" fill="#1B1A19"/>
<mask id="mask1_224_61" style="mask-type:luminance" maskUnits="userSpaceOnUse" x="33" y="166" width="38" height="62">
<path d="M35.904 188.06L36.009 225.155L68.312 206.505L68.207 169.41L35.904 188.06ZM35.514 227.75L34.014 226.887L33.903 187.486L34.403 186.617L68.702 166.814L70.202 167.678L70.314 207.078L69.814 207.947L35.514 227.75V227.75Z" fill="white"/>
</mask>
<g mask="url(#mask1_224_61)">
<path fill-rule="evenodd" clip-rule="evenodd" d="M35.904 188.06L36.009 225.155L68.312 206.505L68.207 169.41L35.904 188.06ZM35.514 227.75L34.014 226.887L33.903 187.486L34.403 186.617L68.702 166.814L70.202 167.678L70.314 207.078L69.814 207.947L35.514 227.75Z" fill="#1B1A19"/>
</g>
<path fill-rule="evenodd" clip-rule="evenodd" d="M35.024 226.884L35.136 187.483L0.837006 167.681L0.725006 207.081L35.024 226.884Z" fill="#1B1A19"/>
<mask id="mask2_224_61" style="mask-type:luminance" maskUnits="userSpaceOnUse" x="0" y="167" width="36" height="60">
<path d="M35.024 226.884L35.136 187.483L0.837006 167.681L0.725006 207.081L35.024 226.884Z" fill="white"/>
</mask>
<g mask="url(#mask2_224_61)">
<path fill-rule="evenodd" clip-rule="evenodd" d="M0.837006 167.681L35.136 187.483L35.024 226.884L0.725006 207.081L0.837006 167.681Z" fill="#1B1A19"/>
</g>
<path fill-rule="evenodd" clip-rule="evenodd" d="M279.104 285.677L311.396 304.32L343.468 285.682L311.176 267.039L279.104 285.677ZM310.898 306.342L276.608 286.546L276.606 284.815L310.672 265.018L311.674 265.017L345.963 284.813L345.966 286.544L311.9 306.341L310.898 306.342Z" fill="#1B1A19"/>
<path fill-rule="evenodd" clip-rule="evenodd" d="M312.288 306.058L312.393 343.154L344.695 324.504L344.59 287.409L312.288 306.058ZM311.898 345.749L310.398 344.886L310.286 305.485L310.786 304.616L345.085 284.813L346.585 285.677L346.697 325.077L346.197 325.946L311.898 345.749Z" fill="#1B1A19"/>
<path fill-rule="evenodd" clip-rule="evenodd" d="M278.11 324.504L310.413 343.154L310.518 306.058L278.215 287.409L278.11 324.504ZM310.908 345.749L276.608 325.946L276.108 325.077L276.22 285.677L277.72 284.813L312.02 304.616L312.52 305.485L312.408 344.886L310.908 345.749ZM85.529 13.939L104.664 24.986L123.666 13.944L104.531 2.89602L85.529 13.939ZM104.166 27.008L83.034 14.808L83.031 13.077L104.026 0.876023L105.029 0.874023L126.161 13.075L126.164 14.806L105.168 27.007L104.166 27.008Z" fill="#1B1A19"/>
<path fill-rule="evenodd" clip-rule="evenodd" d="M104.667 50.428L104.598 26.146L125.736 13.941L125.805 38.224L104.667 50.428Z" fill="#1B1A19"/>
<path fill-rule="evenodd" clip-rule="evenodd" d="M84.536 37.6481L103.678 48.6991L103.739 26.7221L84.599 15.6711L84.536 37.6481ZM104.173 51.2941L83.034 39.0901L82.534 38.2211L82.604 13.9381L84.104 13.0751L105.241 25.2801L105.741 26.1491L105.673 50.4311L104.173 51.2941ZM41.931 163.598C38.022 161.341 31.711 161.339 27.826 163.596C23.946 165.851 23.966 169.509 27.876 171.766C31.782 174.021 38.097 174.021 41.977 171.766C45.861 169.509 45.837 165.853 41.931 163.598ZM328.491 315.978H406.916V313.978H328.491V315.978ZM152 315.978H230.425V313.978H152V315.978Z" fill="#1B1A19"/>
<path fill-rule="evenodd" clip-rule="evenodd" d="M405 316V314L404.999 313.978V124.884H406.999V315.978L405 316ZM282.999 93.8841H367.999V91.8841H282.999V93.8841ZM35.903 167.681H33.903V91.8841H151.75V93.8841H35.903V167.681ZM33.903 315.978V244.884H35.903V313.978H52.258V315.978H33.903ZM328.469 307.023C324.647 309.23 321.556 314.582 321.569 318.975C321.581 323.37 324.691 325.139 328.514 322.932C332.339 320.724 335.426 315.376 335.414 310.981C335.401 306.588 332.294 304.814 328.469 307.023ZM211.138 116.217V31.1851H117.5V33.1851H209.138V116.217H211.138Z" fill="#1B1A19"/>
<path fill-rule="evenodd" clip-rule="evenodd" d="M287 92.8841C287 93.705 286.838 94.5178 286.524 95.2762C286.21 96.0345 285.749 96.7235 285.168 97.3039C284.588 97.8843 283.899 98.3446 283.14 98.6586C282.382 98.9727 281.569 99.1342 280.748 99.1341C279.927 99.1339 279.114 98.9721 278.356 98.6579C277.598 98.3436 276.909 97.883 276.328 97.3025C275.748 96.7219 275.287 96.0328 274.973 95.2743C274.659 94.5159 274.498 93.703 274.498 92.8821C274.498 91.2242 275.157 89.6343 276.33 88.4622C277.502 87.2901 279.092 86.6318 280.75 86.6321C282.408 86.6323 283.998 87.2912 285.17 88.4637C286.342 89.6361 287 91.2262 287 92.8841ZM233.5 315.25C233.5 316.071 233.338 316.884 233.024 317.642C232.71 318.401 232.249 319.09 231.668 319.67C231.088 320.25 230.399 320.711 229.64 321.025C228.882 321.339 228.069 321.5 227.248 321.5C226.427 321.5 225.614 321.338 224.856 321.024C224.098 320.71 223.409 320.249 222.828 319.669C222.248 319.088 221.787 318.399 221.473 317.64C221.159 316.882 220.998 316.069 220.998 315.248C220.998 313.59 221.657 312 222.83 310.828C224.002 309.656 225.592 308.998 227.25 308.998C228.908 308.998 230.498 309.657 231.67 310.83C232.842 312.002 233.5 313.592 233.5 315.25ZM216.75 121.217C216.75 122.875 216.092 124.464 214.919 125.636C213.747 126.809 212.158 127.467 210.5 127.467C208.842 127.467 207.253 126.809 206.081 125.636C204.908 124.464 204.25 122.875 204.25 121.217C204.25 119.559 204.908 117.97 206.081 116.798C207.253 115.626 208.842 114.967 210.5 114.967C212.158 114.967 213.747 115.626 214.919 116.798C216.092 117.97 216.75 119.559 216.75 121.217ZM461.333 235.146C455.458 235.146 452.495 233.25 449.628 231.416C446.884 229.659 444.292 228 439.002 228C433.711 228 431.119 229.659 428.375 231.415C425.508 233.25 422.545 235.146 416.67 235.146C410.794 235.146 407.83 233.25 404.963 231.416C402.218 229.659 399.627 228 394.335 228C389.043 228 386.451 229.659 383.706 231.416C380.839 233.25 377.876 235.146 372 235.146V233.146C377.291 233.146 379.882 231.487 382.628 229.731C385.494 227.896 388.458 226 394.335 226C400.211 226 403.175 227.896 406.042 229.731C408.787 231.487 411.378 233.146 416.67 233.146C421.96 233.146 424.552 231.487 427.296 229.731C430.163 227.896 433.126 226 439.002 226C444.878 226 447.84 227.896 450.707 229.731C453.451 231.487 456.043 233.146 461.333 233.146V235.146ZM461.333 251.189C455.458 251.189 452.495 249.293 449.628 247.459C446.884 245.702 444.292 244.043 439.002 244.043C433.711 244.043 431.119 245.702 428.375 247.458C425.508 249.293 422.545 251.189 416.67 251.189C410.794 251.189 407.83 249.293 404.963 247.459C402.218 245.702 399.627 244.043 394.335 244.043C389.043 244.043 386.451 245.702 383.706 247.459C380.839 249.293 377.876 251.189 372 251.189V249.189C377.291 249.189 379.882 247.53 382.628 245.774C385.494 243.939 388.458 242.043 394.335 242.043C400.211 242.043 403.175 243.939 406.042 245.774C408.787 247.53 411.378 249.189 416.67 249.189C421.96 249.189 424.552 247.53 427.296 245.774C430.163 243.939 433.126 242.043 439.002 242.043C444.878 242.043 447.84 243.939 450.707 245.774C453.451 247.53 456.043 249.189 461.333 249.189V251.189Z" fill="#1B1A19"/>
<path d="M188.84 173.043L187.16 171.957L158.662 216H201V214H162.338L188.84 173.043Z" fill="black"/>
<path d="M189 194.5V235H191V194.5H189ZM288.84 173.043L287.16 171.957L258.662 216H301V214H262.338L288.84 173.043Z" fill="black"/>
<path d="M230 234C239.389 234 247 220.345 247 203.5C247 186.655 239.389 173 230 173C220.611 173 213 186.655 213 203.5C213 220.345 220.611 234 230 234Z" stroke="black" stroke-width="2"/>
<path d="M289 194.5V235H291V194.5H289Z" fill="black"/>
<path fill-rule="evenodd" clip-rule="evenodd" d="M116.463 398.24L126.096 404.693C126.002 403.55 125.341 401.578 122.636 398.833C120.19 396.348 120.964 391.426 121.453 389.28L117.541 388.373L116.463 398.24ZM127.125 407.79L114.342 399.226L115.798 385.916L123.942 387.803L123.634 388.826C123.11 390.566 122.165 395.503 124.061 397.428C129.708 403.161 127.895 406.538 127.67 406.905L127.125 407.789V407.79ZM153.718 381.951L158.51 389.481L169.703 386.201C168.778 385.639 166.97 385.075 163.557 385.482C160.507 385.842 158.509 381.352 157.634 378.806L153.718 381.951ZM157.631 391.823L151.069 381.513L158.713 375.374L159.117 376.842C159.885 379.636 161.751 383.719 163.321 383.495C170.918 382.59 172.344 385.982 172.481 386.372L172.83 387.367L157.631 391.823ZM133.297 322.754L131.572 321.741L148.218 293.409H123.146L110.833 313.305L109.133 312.252L122.032 291.409H151.713L133.297 322.754ZM66.85 316.308L64.873 316.003C65.174 314.056 72.457 268.238 91.492 262.119C96.878 260.39 100.718 262.086 100.88 262.161L100.051 263.981C100.024 263.971 96.714 262.541 92.105 264.023C74.233 269.767 66.922 315.843 66.85 316.308Z" fill="#1B1A19"/>
<path fill-rule="evenodd" clip-rule="evenodd" d="M99.537 264.072C98.874 264.072 98.204 264.297 97.514 264.75C92.589 267.983 91.458 273.49 91.447 273.544L91.445 273.557C90.159 279.699 86.911 296.531 84.413 309.569C84.057 311.425 84.676 313.557 86.111 315.415C87.86 317.682 90.544 319.198 93.115 319.37L123.641 320.71L124.432 316.93C111.965 314.317 97.4 311.097 96.425 310.121C95.588 309.285 93.846 307.543 95.884 305.251C97.124 303.508 105.963 274.708 105.638 271.823C105.42 269.885 103.455 265.591 100.899 264.391C100.474 264.185 100.009 264.076 99.537 264.072ZM125.25 322.782L93.004 321.367C89.808 321.153 86.648 319.385 84.528 316.638C82.743 314.326 81.985 311.612 82.449 309.192C84.948 296.15 88.197 279.312 89.486 273.152C89.555 272.804 90.841 266.738 96.417 263.078C98.16 261.933 100.005 261.761 101.749 262.581C105.167 264.186 107.359 269.228 107.626 271.599C107.954 274.519 99.144 304.594 97.38 306.579C96.718 307.323 96.766 307.624 97.773 308.64C99.447 309.484 115.797 313.083 125.82 315.177L126.799 315.381L125.25 322.782Z" fill="#1B1A19"/>
<path fill-rule="evenodd" clip-rule="evenodd" d="M97.216 261.345C98.583 261.345 100.107 261.877 101.026 262.26L104.392 256.868L99.498 254.611L94.161 261.621C95.149 261.471 96.266 261.345 97.216 261.345ZM101.774 264.84L100.956 264.423C100.935 264.413 98.821 263.345 97.216 263.345C95.163 263.345 92.049 264.039 92.018 264.046L89.341 264.648L98.879 252.122L107.289 256.002L101.774 264.84Z" fill="#1B1A19"/>
<path fill-rule="evenodd" clip-rule="evenodd" d="M101.505 252.041C105.079 255.022 109.349 258.181 110.311 258.301C110.437 258.331 110.481 258.271 110.506 258.245C110.997 257.77 110.997 255.631 110.996 254.07V253.907C110.996 251.097 109.988 246.897 107.735 243.844L106.215 241.897L102.107 244.72L101.505 252.041ZM110.322 260.301C110.291 260.301 110.26 260.299 110.23 260.298C108.322 260.235 102.316 255.341 99.821 253.24L99.426 252.908L100.192 243.609L106.633 239.182L109.336 242.645C111.864 246.065 112.996 250.765 112.996 253.907V254.069C112.997 256.51 112.997 258.619 111.896 259.683C111.477 260.088 110.934 260.3 110.322 260.3V260.301Z" fill="#1B1A19"/>
<path fill-rule="evenodd" clip-rule="evenodd" d="M112.343 251.944C111.01 253.278 108.327 254.375 106.231 253.367C105.422 252.978 103.901 251.807 102.969 251.061C103.051 248.995 102.851 247.166 102.654 245.834C102.189 242.695 109.411 241.685 109.911 238.352C110.411 235.019 105.411 233.185 102.613 234.352C99.815 235.519 98.411 238.519 94.911 240.185C91.411 241.852 92.411 245.519 92.744 248.685C93.077 251.852 96.026 258.005 99.911 257.092C100.181 257.029 100.428 256.932 100.654 256.807C101.491 256.345 102.549 256.615 103.183 257.33C104.694 259.035 106.469 261.057 107.177 261.941C108.51 263.604 111.01 263.111 112.343 260.278C113.677 257.444 113.677 250.611 112.343 251.944ZM124.459 389.302L111.85 385.81L111.976 384.94C112.141 383.787 116.056 356.68 118.016 350.767C118.71 348.672 119.872 345.012 121.47 339.89L123.38 340.486C121.778 345.62 120.613 349.29 119.915 351.396C118.202 356.564 114.783 379.569 114.082 384.353L123.138 386.861L134.05 352.655L135.955 353.262L124.459 389.302ZM142.307 333.35L140.402 332.742L141.645 328.844C141.854 328.201 141.906 327.517 141.798 326.85C141.69 326.183 141.424 325.551 141.022 325.007C140.626 324.459 140.105 324.014 139.502 323.708C138.9 323.402 138.233 323.244 137.557 323.247H132.434V321.247H137.557C139.587 321.247 141.438 322.188 142.636 323.828C143.225 324.625 143.615 325.551 143.774 326.529C143.933 327.508 143.856 328.51 143.55 329.452L142.307 333.349" fill="#1B1A19"/>
<path fill-rule="evenodd" clip-rule="evenodd" d="M128.288 339.063L151.923 380.831L159.235 374.953L137.863 327.758C137.249 326.391 136.265 325.222 135.023 324.384C133.78 323.546 132.329 323.071 130.831 323.013L93.479 321.446L66.664 317.292C66.544 317.874 66.411 318.449 66.281 319.012C65.309 323.206 64.391 327.169 69.092 333.306C73.758 339.397 112.971 339.541 127.684 339.081L128.288 339.063ZM151.342 383.865L127.142 341.099C119.376 341.321 73.457 342.293 67.505 334.523C62.23 327.637 63.299 323.023 64.333 318.56C64.537 317.678 64.73 316.846 64.876 315.988L65.041 315.018L93.73 319.46L130.915 321.015C134.744 321.175 138.105 323.443 139.685 326.935L161.696 375.541L151.342 383.865Z" fill="#1B1A19"/>
<path fill-rule="evenodd" clip-rule="evenodd" d="M127.716 340.081C127.716 340.081 83.19 341.469 70.879 335.747H34V349.251H132.434V348.421L127.716 340.081ZM126.091 320.797L130.132 320.987C129.693 320.312 128.049 318.879 126.439 317.983L126.091 320.797ZM132.218 323.087L123.841 322.694L124.778 315.127L125.958 315.558C128.043 316.318 132.212 319.229 132.216 321.058L132.218 323.086V323.087Z" fill="#1B1A19"/>
<path fill-rule="evenodd" clip-rule="evenodd" d="M411.849 102.195L410.606 100.629L421.176 92.239L410.606 83.85L411.849 82.283L424.393 92.239L411.849 102.195ZM399.137 100.629L397.894 102.195L385.351 92.239L397.894 82.283L399.137 83.85L388.568 92.239L399.137 100.629ZM380 111.48H429.743V73H380V111.48Z" fill="#1B1A19"/>
</svg>
