<svg width="800" height="509" viewBox="0 0 800 509" fill="none" xmlns="http://www.w3.org/2000/svg">
<path d="M34.6518 302.158H0V267.544H34.6131L34.6518 302.158ZM2.5821 299.575H32.031V270.127H2.5821V299.575Z" fill="#231F20"/>
<path d="M33.3608 300.866H1.32983V332.897H33.3608V300.866Z" fill="#231F20"/>
<path d="M33.3608 334.189H1.29105L0 332.897V300.866L1.29105 299.575H33.322L34.6131 300.866V332.897L33.3608 334.189ZM2.62083 331.606H32.0697V302.158H2.5821L2.62083 331.606Z" fill="#231F20"/>
<path d="M34.6518 366.194H0V331.606H34.6131L34.6518 366.194ZM2.5821 363.612H32.031V334.189H2.5821V363.612Z" fill="#231F20"/>
<path d="M66.6827 302.158H32.0696V267.544H66.6827V302.158ZM34.6517 299.575H64.1006V270.127H34.6517V299.575Z" fill="#231F20"/>
<path d="M66.6827 334.189H32.0696V299.575H66.6827V334.189ZM34.6517 331.606H64.1006V302.158H34.6517V331.606Z" fill="#231F20"/>
<path d="M65.3917 332.897H33.3607V364.928H65.3917V332.897Z" fill="#231F20"/>
<path d="M65.3916 366.194H33.3606L32.0696 364.903V332.897L33.3606 331.606H65.3916L66.6827 332.897V364.903L65.3916 366.194ZM34.6517 363.612H64.1006V334.189H34.6517V363.612Z" fill="#231F20"/>
<path d="M98.7138 302.158H64.1007V267.544H98.7138V302.158ZM66.6828 299.575H96.1317V270.127H66.6828V299.575Z" fill="#231F20"/>
<path d="M98.7138 334.189H64.1007V299.575H98.7138V334.189ZM66.6828 331.606H96.1317V302.158H66.6828V331.606Z" fill="#231F20"/>
<path d="M98.7138 366.194H64.1007V331.606H98.7138V366.194ZM66.6828 363.612H96.1317V334.189H66.6828V363.612Z" fill="#231F20"/>
<path d="M130.732 302.158H96.1316V267.544H130.732V302.158ZM98.7137 299.575H128.15V270.127H98.7137V299.575Z" fill="#231F20"/>
<path d="M130.732 334.189H96.1316V299.575H130.732V334.189ZM98.7137 331.606H128.15V302.158H98.7137V331.606Z" fill="#231F20"/>
<path d="M130.732 366.194H96.1316V331.606H130.732V366.194ZM98.7137 363.612H128.15V334.189H98.7137V363.612Z" fill="#231F20"/>
<path d="M161.472 302.158H128.15V268.849H130.732V299.576H161.472V302.158Z" fill="#231F20"/>
<path d="M162.763 334.189H128.15V299.575H162.763V334.189ZM130.732 331.606H160.181V302.158H130.732V331.606Z" fill="#231F20"/>
<path d="M162.763 366.194H128.15V331.606H162.763V366.194ZM130.732 363.612H160.181V334.189H130.732V363.612Z" fill="#231F20"/>
<path d="M180.515 302.158H160.181V276.078H162.763V299.575H180.515V302.158Z" fill="#231F20"/>
<path d="M188.597 267.544H176.952V270.127H188.597V267.544Z" fill="#231F20"/>
<path d="M162.763 364.928H160.181V331.606H171.994V334.189H162.763V364.928Z" fill="#231F20"/>
<path d="M263.465 397.489L260.715 330.289L209.15 338.333C203.711 339.162 198.148 338.328 193.193 335.938C188.237 333.548 184.118 329.716 181.38 324.945L175.131 313.971L211.965 295.186L212.378 295.263L272.657 305.308C276.215 305.908 279.451 307.732 281.808 310.463C284.166 313.195 285.495 316.664 285.568 320.271L286.781 395.41L263.465 397.489ZM263.168 327.294L265.957 394.674L284.147 393.06L282.973 320.323C282.913 317.321 281.811 314.433 279.852 312.157C277.894 309.881 275.203 308.358 272.244 307.851L212.391 297.884L178.746 315.042L183.665 323.666C186.14 327.986 189.865 331.455 194.35 333.619C198.834 335.783 203.867 336.539 208.789 335.789L263.168 327.294Z" fill="#231F20"/>
<path d="M188.222 508.21H125.155V475.417H188.222V508.21ZM127.737 505.628H185.64V477.999H127.737V505.628Z" fill="#231F20"/>
<path d="M248.708 508.209H185.64V446.858H248.708V508.209ZM188.222 505.627H246.126V449.441H188.222V505.627Z" fill="#231F20"/>
<path d="M309.194 508.21H246.126V421.438H309.194V508.21ZM248.708 505.627H306.612V424.02H248.708V505.627Z" fill="#231F20"/>
<path d="M218.769 240.2L207.395 239.451L207.679 224.862L218.769 225.701V240.2ZM210.028 237.089L216.187 237.489V228.051L210.209 227.599L210.028 237.089Z" fill="#231F20"/>
<path d="M222.254 228.568C219.545 228.408 216.903 227.664 214.508 226.386L214.25 226.257L206.387 215.67L217.194 200.642L223.778 206.091L223.894 206.362C226.799 212.585 230.233 225.289 225.405 227.858C224.429 228.348 223.347 228.592 222.254 228.568ZM216.006 224.243C217.775 225.121 222.022 226.76 224.23 225.534C226.437 224.307 225.043 214.947 221.712 207.666L217.71 204.361L209.615 215.606L216.006 224.243Z" fill="#231F20"/>
<path d="M212.055 196.653C200.061 196.653 191.773 212.081 187.396 218.6C196.434 228.051 211.926 228.929 216.2 228.864C216.083 224.823 215.619 221.828 215.399 218.833C208.014 217.219 211.319 211.087 215.515 212.223C217.906 209.311 221.024 207.086 224.553 205.767C223.003 197.569 217.168 196.653 212.055 196.653Z" fill="#231F20"/>
<path d="M298.233 27.9384V375.154C298.233 378.825 298.956 382.462 300.362 385.855C301.767 389.248 303.827 392.331 306.423 394.927C309.02 397.524 312.103 399.584 315.496 400.989C318.888 402.395 322.525 403.118 326.197 403.118H482.053M298.233 27.9384L299.233 27.9392C299.233 27.9391 299.233 27.939 299.233 27.9388M298.233 27.9384C298.239 20.5264 301.189 13.4205 306.432 8.1814C311.677 2.9423 318.785 0 326.197 0H482.053M298.233 27.9384H299.233V27.9388M299.233 27.9388V375.154C299.233 378.694 299.93 382.201 301.286 385.472L301.286 385.472C302.641 388.744 304.627 391.717 307.13 394.22C309.634 396.724 312.607 398.71 315.879 400.065L315.879 400.065C319.149 401.421 322.656 402.118 326.197 402.118H482.051M299.233 27.9388C299.239 20.7923 302.083 13.9407 307.139 8.8889L307.139 8.88877C312.196 3.837 319.05 1 326.197 1H482.052M482.051 402.118L482.053 403.118M482.051 402.118H482.053V403.118M482.051 402.118C489.194 402.105 496.039 399.258 501.085 394.203C506.131 389.147 508.965 382.297 508.965 375.154V27.9392M482.053 403.118C489.461 403.104 496.56 400.152 501.793 394.909C507.026 389.666 509.965 382.562 509.965 375.154V27.9384M509.965 27.9384L508.965 27.9392M509.965 27.9384C509.959 20.5355 507.017 13.4373 501.784 8.1995C496.551 2.963 489.456 0.0142 482.053 0M509.965 27.9384H508.965V27.9392M508.965 27.9392C508.959 20.8011 506.122 13.9568 501.077 8.90628M482.053 0V1H482.052M482.053 0L482.051 0.999998C482.051 0.999999 482.052 0.999999 482.052 1M501.077 8.90628C501.077 8.90631 501.077 8.90634 501.077 8.90637L501.783 8.20044L501.077 8.90628ZM501.077 8.90628C496.031 3.85724 489.19 1.01394 482.052 1M482.196 392.085H482.195H326.636C322.09 392.085 317.729 390.28 314.514 387.067C314.514 387.066 314.514 387.066 314.514 387.066L315.221 386.359C312.192 383.334 310.489 379.228 310.485 374.947L482.196 392.085ZM482.196 392.085C486.746 392.081 491.108 390.271 494.324 387.053L493.617 386.346L482.196 392.085ZM326.364 11.265H326.365H354.45H354.45H354.45H354.451H354.451H354.452H354.453H354.454H354.455H354.456H354.457H354.458H354.459H354.461H354.461H354.462H354.462H354.464H354.464H354.465H354.466H354.467H354.468H354.469H354.47H354.471H354.472H354.472H354.474H354.474H354.476H354.477H354.478H354.479H354.481H354.481H354.483H354.486H354.488H354.488H354.491H354.491H354.493H354.494H354.496H354.497H354.499H354.5H354.502H354.504H354.505H354.507H354.508H354.51H354.511H354.514H354.517H354.518H354.521H354.521H354.524H354.525H354.527H354.529H354.531H354.533H354.535H354.538H354.538H354.542H354.546H354.546H354.55H354.551H354.554H354.555H354.558H354.56H354.562H354.565H354.566H354.57H354.57H354.574H354.575H354.579H354.58H354.583H354.585H354.588H354.591H354.592H354.596H354.597H354.602H354.602H354.606H354.608H354.611H354.614H354.616H354.62H354.621H354.626H354.626H354.631H354.632H354.636H354.638H354.642H354.645H354.647H354.651H354.652H354.658H354.663H354.665H354.669H354.671H354.674H354.678H354.68H354.685H354.691H354.693H354.697H354.7H354.703H354.708H354.709H354.715H354.715H354.721H354.723H354.727H354.731H354.733H354.739H354.739H354.745H354.747H354.752H354.755H354.758H354.763H354.764H354.771H354.772H354.777H354.781H354.784H354.789H354.791H354.797H354.798H354.804H354.807H354.811H354.816H354.818H354.824H354.825H354.831H354.835H354.838H354.844H354.845H354.852H354.854H354.86H354.863H354.867H354.873H354.874H354.881H354.883H354.888H354.893H354.896H354.903H354.903H354.911H354.914H354.918H354.924H354.926H354.933H354.935H354.941H354.946H354.948H354.956H354.957H354.964H354.968H354.972H354.979H354.979H354.987H354.99H354.995H355.001H355.003H355.011H355.013H355.019H355.025H355.027H355.035H355.036H355.043H355.048H355.051H355.06H355.06H355.068H355.073H355.076H355.084H355.085H355.093H355.097H355.101H355.11H355.11H355.118H355.123H355.126H355.135H355.136H355.144H355.149H355.152H355.161H355.162H355.169H355.175H355.178H355.187H355.188H355.195H355.202H355.204H355.213H355.216H355.222H355.23H355.231H355.239H355.244H355.248H355.257H355.258H355.266H355.272H355.275H355.284H355.286H355.293H355.301H355.302H355.311H355.316H355.32H355.33H355.33H355.339H355.345H355.348H355.357H355.361H355.366H355.376H355.376H355.385H355.391H355.394H355.403H355.407H355.413H355.422H355.423H355.431H355.438H355.441H355.45H355.454H355.46H355.469H355.471H355.478H355.487H355.488H355.497H355.503H355.507H355.516H355.52H355.526H355.535H355.537H355.545H355.553H355.555H355.564H355.57H355.574H355.583H355.588H355.593H355.603H355.605H355.612H355.622H355.622H355.632H355.64H355.641H355.651H355.658H355.661H355.67H355.676H355.68H355.69H355.694H355.699H355.709H355.712H355.719H355.729H355.731H355.738H355.748H355.749H355.758H355.768H355.778H355.787H355.787H355.797H355.806H355.807H355.817H355.825H355.826H355.836H355.844H355.846H355.856H355.864H355.866H355.875H355.883H355.885H355.895H355.903H355.905H355.915H355.923H355.924H355.934H355.943H355.944H355.954H355.963H355.973H355.983H355.993H356.002H356.012H356.022H356.032H356.041H356.051H356.061H356.071H356.08H356.09H356.1H356.109H356.119H356.129H356.138H356.148H356.157H356.167H356.177H356.186H356.196H356.205H356.215H356.224H356.234H356.243H356.253H356.262H356.272H356.281H356.291H356.3H356.309H356.319H356.328H356.337H356.347H356.356H356.365H356.374H356.384H356.393H356.402H356.411H356.42H356.429H356.438H356.447H356.456H356.465H356.474H356.483H356.492H356.501H356.51H356.519H356.528H356.536H356.545H356.554H356.562H356.571H356.58H356.588H356.597H356.605H356.614H356.622H356.631H356.639H356.647H356.656H356.664H356.672H356.681H356.689H356.697H356.705H356.713H356.721H356.729H356.737H356.745H356.753H356.761H356.768H356.776H356.784H356.791H356.799H356.807H356.814H356.822H356.829H356.837H356.844H356.851H356.859H356.866H356.873H356.88H356.887H356.894H356.901H356.908H356.915H356.922H356.929H356.935H356.942H356.949H356.955H356.962H356.968H356.975H356.981H356.988H356.994H357C357.784 11.265 358.114 11.2713 358.343 11.2757C358.638 11.2813 358.765 11.2837 359.474 11.2653C360.623 11.2356 360.963 11.243 361.406 11.2527C361.67 11.2584 361.971 11.265 362.5 11.265C363.173 11.265 363.632 11.2652 364.023 11.2653C364.653 11.2656 365.107 11.2657 365.999 11.265H366H435H435.001C436.072 11.2659 440.133 11.2655 442.792 11.2652C443.719 11.2651 444.475 11.265 444.875 11.265H444.885H444.894H444.904H444.913H444.923H444.932H444.942H444.951H444.961H444.97H444.979H444.989H444.998H445.007H445.017H445.026H445.035H445.045H445.054H445.063H445.072H445.082H445.091H445.1H445.109H445.119H445.128H445.137H445.146H445.155H445.164H445.174H445.183H445.192H445.201H445.21H445.219H445.228H445.237H445.246H445.255H445.264H445.273H445.282H445.291H445.3H445.309H445.318H445.327H445.336H445.345H445.354H445.363H445.372H445.381H445.389H445.398H445.407H445.416H445.425H445.434H445.443H445.451H445.46H445.469H445.478H445.487H445.495H445.504H445.513H445.522H445.53H445.539H445.548H445.556H445.565H445.574H445.583H445.591H445.6H445.609H445.617H445.626H445.634H445.643H445.652H445.66H445.669H445.678H445.686H445.695H445.703H445.712H445.72H445.729H445.738H445.746H445.755H445.763H445.772H445.78H445.789H445.797H445.806H445.814H445.823H445.831H445.84H445.848H445.856H445.865H445.873H445.882H445.89H445.899H445.907H445.916H445.924H445.932H445.941H445.949H445.958H445.966H445.974H445.983H445.991H445.999H446.008H446.016H446.024H446.033H446.041H446.049H446.058H446.066H446.074H446.083H446.091H446.099H446.108H446.116H446.124H446.133H446.141H446.149H446.157H446.166H446.174H446.182H446.191H446.199H446.207H446.215H446.224H446.232H446.24H446.248H446.257H446.265H446.273H446.281H446.29H446.298H446.306H446.314H446.323H446.331H446.339H446.347H446.355H446.364H446.372H446.38H446.388H446.396H446.405H446.413H446.421H446.429H446.437H446.446H446.454H446.462H446.47H446.478H446.487H446.495H446.503H446.511H446.519H446.528H446.536H446.544H446.552H446.56H446.569H446.577H446.585H446.593H446.601H446.609H446.618H446.626H446.634H446.642H446.65H446.659H446.667H446.675H446.683H446.691H446.7H446.708H446.716H446.724H446.732H446.741H446.749H446.757H446.765H446.773H446.782H446.79H446.798H446.806H446.814H446.823H446.831H446.839H446.847H446.856H446.864H446.872H446.88H446.888H446.897H446.905H446.913H446.921H446.93H446.938H446.946H446.954H446.963H446.971H446.979H446.987H446.996H447.004H447.012H447.02H447.029H447.037H447.045H447.054H447.062H447.07H447.079H447.087H447.095H447.103H447.112H447.12H447.128H447.137H447.145H447.153H447.162H447.17H447.179H447.187H447.195H447.204H447.212H447.22H447.229H447.237H447.246H447.254H447.262H447.271H447.279H447.288H447.296H447.304H447.313H447.321H447.33H447.338H447.347H447.355H447.364H447.372H447.381H447.389H447.398H447.406H447.415H447.423H447.432H447.44H447.449H447.457H447.466H447.474H447.483H447.492H447.5H447.509H447.517H447.526H447.535H447.543H447.552H447.56H447.569H447.578H447.586H447.595H447.604H447.612H447.621H447.63H447.639H447.647H447.656H447.665H447.674H447.682H447.691H447.7H447.709H447.717H447.726H447.735H447.744H447.753H447.761H447.77H447.779H447.788H447.797H447.806H447.815H447.824H447.832H447.841H447.85H447.859H447.868H447.877H447.886H447.895H447.904H447.913H447.922H447.931H447.94H447.949H447.958H447.967H447.976H447.986H447.995H448.004H448.013H448.022H448.031H448.04H448.049H448.059H448.068H448.077H448.086H448.095H448.105H448.114H448.123H448.132H448.142H448.151H448.16H448.17H448.179H448.188H448.198H448.207H448.216H448.226H448.235H448.245H448.254H448.264H448.273H448.283H448.292H448.301H448.311H448.321H448.33H448.34H448.349H448.359H448.368H448.378H448.388H448.397H448.407H448.417H448.426H448.436H448.446H448.455H448.465H448.475H448.485H448.494H448.504H448.514H448.524H448.534H448.544H448.553H448.563H448.573H448.583H448.593H448.603H448.613H448.623H448.633H448.643H448.653H448.663H448.673H448.683H448.693H448.703H448.713H448.724H448.734H448.744H448.754H448.764H448.774H448.785H448.795H448.805H448.815H448.826H448.836H448.846H448.857H448.867H448.878H448.888H448.898H448.909H448.919H448.93H448.94H448.951H448.961H448.972H448.982H448.993H449.004H449.014H449.025H449.035H449.046H449.057H449.067H449.078H449.089H449.1H449.11H449.121H449.132H449.143H449.154H449.165H449.176H449.186H449.197H449.208H449.219H449.23H449.241H449.252H449.263H449.274H449.286H449.297H449.308H449.319H449.33H449.341H449.352H449.364H449.375H449.386H449.397H449.409H449.42H449.431H449.443H449.454H449.466H449.477H449.489H449.5H449.511H449.523H449.534H449.545H449.556H449.567H449.578H449.589H449.6H449.611H449.621H449.632H449.642H449.653H449.663H449.673H449.683H449.693H449.703H449.713H449.723H449.733H449.743H449.752H449.762H449.771H449.78H449.79H449.799H449.808H449.817H449.826H449.835H449.844H449.853H449.861H449.87H449.879H449.887H449.895H449.904H449.912H449.92H449.928H449.936H449.944H449.952H449.96H449.968H449.976H449.983H449.991H449.998H450.006H450.013H450.02H450.028H450.035H450.042H450.049H450.056H450.063H450.07H450.077H450.083H450.09H450.096H450.103H450.109H450.116H450.122H450.128H450.135H450.141H450.147H450.153H450.159H450.165H450.171H450.176H450.182H450.188H450.194H450.199H450.205H450.21H450.215H450.221H450.226H450.231H450.236H450.241H450.247H450.252H450.256H450.261H450.266H450.271H450.276H450.28H450.285H450.29H450.294H450.299H450.303H450.307H450.312H450.316H450.32H450.324H450.328H450.332H450.336H450.34H450.344H450.348H450.352H450.356H450.359H450.363H450.367H450.37H450.374H450.377H450.381H450.384H450.388H450.391H450.394H450.397H450.401H450.404H450.407H450.41H450.413H450.416H450.419H450.422H450.425H450.427H450.43H450.433H450.436H450.438H450.441H450.443H450.446H450.448H450.451H450.453H450.456H450.458H450.46H450.463H450.465H450.467H450.469H450.471H450.473H450.475H450.477H450.479H450.481H450.483H450.485H450.487H450.489H450.491H450.493H450.494H450.496H450.498H450.499H450.501H450.503H450.504H450.506H450.507H450.509H450.51H450.511H450.513H450.514H450.516H450.517H450.518H450.519H450.521H450.522H450.523H450.524H450.525H450.526H450.528H450.529H450.53H450.531H450.532H450.533H450.534H450.534H450.535H450.536H450.537H450.538H450.539H450.54H450.54H450.541H450.542H450.543H450.543H450.544H450.545H450.545H450.546H450.547H450.547H450.548H450.549H450.549H450.55H450.55H450.551H450.551H450.552H450.552H450.553H450.553H450.554H450.554H450.554H450.555H450.555H450.556H450.556H450.556H450.557H450.557H450.557H450.558H450.558H450.558H450.559H450.559H450.559H450.56H450.56H450.56H450.56H450.561H450.561H450.561H450.561H450.562H450.562H450.562H450.562H450.563H450.563H450.563H450.563H450.563H450.564H450.564H450.564H450.564H450.565H450.565H450.565H450.565H450.565H450.566H450.566H450.566H450.566H450.566H450.567H450.567H450.567H450.567H450.568H450.568H450.568H450.568H450.569H450.569H450.569H450.569H450.57H450.57H450.57H450.571H450.571H450.571H450.572H450.572H450.572H450.573H450.573H450.573H450.574H450.574H450.575H450.575H450.575H450.576H450.576H450.577H450.577H450.578H450.578H450.579H450.579H450.58H450.58H450.581H450.582H450.582H450.583H450.583H450.584H450.585H450.586H450.586H450.587H450.588H450.588H450.589H450.59H450.591H450.592H450.593H450.593H450.594H450.595H450.596H450.597H450.598H450.599H450.6H450.601H450.602H450.603H450.605H450.606H450.607H450.608H450.609H450.611H450.612H450.613H450.614H450.616H450.617H450.619H450.62H450.622H450.623H450.625H450.626H450.628H450.629H450.631H450.633H450.634H450.636H450.638H450.64H450.641H450.643H450.645H450.647H450.649H450.651H450.653H450.655H450.657H450.659H450.661H450.664H450.666H450.668H450.67H450.673H450.675H450.677H450.68H450.682H450.685H450.687H450.69H450.693H450.695H450.698H450.701H450.704H450.706H450.709H450.712H450.715H450.718H450.721H450.724H450.727H450.731H450.734H450.737H450.74H450.744H450.747H450.751H450.754H450.758H450.761H450.765H450.768H450.772H450.776H450.78H450.783H450.787H450.791H450.795H450.799H450.803H450.808H450.812H450.816H450.82H450.825H450.829H450.833H450.838H450.843H450.847H450.852H450.856H450.861H450.866H450.871H450.876H450.881H450.886H450.891H450.896H450.901H450.907H450.912H450.917H450.923H450.928H450.934H450.939H450.945H450.951H450.956H450.962H450.968H450.974H450.98H450.986H450.992H450.998H451.005H451.011H451.017H451.024H451.03H451.037H451.044H451.05H451.057H451.064H451.071H451.078H451.085H451.092H451.099H451.106H451.113H451.121H451.128H451.136H451.143H451.151H451.158H451.166H451.174H451.182H451.19H451.198H451.206H451.214H451.222H451.231H451.239H451.248H451.256H451.265H451.273H451.282H451.291H451.3H451.309H451.318H451.327H451.336H451.345H451.355H451.364H451.374H326.364ZM326.364 11.265C321.814 11.2691 317.452 13.0787 314.236 16.2976L326.364 11.265ZM452.294 11.265H452.289H452.882H452.881H452.881H452.88H452.88H452.88H452.879H452.879H452.878H452.878H452.877H452.877H452.877H452.877H452.876H452.876H452.876H452.875H452.875H452.875H452.874H452.874H452.874H452.873H452.873H452.873H452.872H452.872H452.871H452.871H452.871H452.87H452.87H452.869H452.869H452.868H452.868H452.868H452.867H452.867H452.866H452.866H452.865H452.865H452.864H452.864H452.863H452.862H452.862H452.861H452.861H452.86H452.86H452.859H452.858H452.858H452.857H452.857H452.856H452.855H452.855H452.854H452.853H452.853H452.852H452.851H452.851H452.85H452.849H452.849H452.848H452.847H452.846H452.846H452.845H452.844H452.843H452.843H452.842H452.841H452.84H452.84H452.839H452.838H452.837H452.836H452.835H452.835H452.834H452.833H452.832H452.831H452.83H452.829H452.828H452.828H452.827H452.826H452.825H452.824H452.823H452.822H452.821H452.82H452.819H452.818H452.817H452.816H452.815H452.814H452.813H452.812H452.811H452.81H452.809H452.808H452.807H452.806H452.805H452.804H452.802H452.802H452.8H452.799H452.798H452.797H452.796H452.795H452.793H452.792H452.791H452.79H452.789H452.788H452.786H452.785H452.784H452.783H452.781H452.78H452.779H452.778H452.776H452.775H452.774H452.773H452.771H452.77H452.768H452.768H452.766H452.765H452.763H452.762H452.76H452.76H452.758H452.757H452.755H452.754H452.752H452.751H452.749H452.748H452.746H452.746H452.744H452.743H452.741H452.74H452.738H452.737H452.735H452.734H452.732H452.731H452.729H452.728H452.726H452.725H452.722H452.722H452.719H452.719H452.716H452.715H452.713H452.712H452.71H452.709H452.707H452.706H452.703H452.702H452.7H452.699H452.697H452.696H452.693H452.692H452.69H452.689H452.686H452.686H452.683H452.682H452.679H452.679H452.676H452.675H452.672H452.671H452.669H452.668H452.665H452.664H452.661H452.661H452.658H452.657H452.654H452.653H452.65H452.65H452.646H452.646H452.643H452.642H452.639H452.638H452.635H452.634H452.631H452.63H452.627H452.626H452.623H452.623H452.619H452.619H452.615H452.615H452.611H452.611H452.607H452.606H452.603H452.602H452.599H452.598H452.595H452.594H452.59H452.59H452.586H452.586H452.582H452.581H452.578H452.577H452.573H452.573H452.569H452.568H452.564H452.564H452.56H452.56H452.556H452.555H452.551H452.551H452.547H452.546H452.542H452.542H452.538H452.537H452.533H452.533H452.528H452.528H452.524H452.523H452.519H452.519H452.514H452.514H452.509H452.509H452.505H452.504H452.5H452.5H452.495H452.49H452.485H452.48H452.475H452.47H452.465H452.46H452.455H452.45H452.45H452.445H452.445H452.44H452.44H452.435H452.434H452.429H452.429H452.424H452.424H452.419H452.419H452.414H452.413H452.408H452.408H452.403H452.402H452.397H452.397H452.392H452.392H452.387H452.386H452.381H452.381H452.376H452.375H452.37H452.369H452.364H452.364H452.359H452.358H452.353H452.352H452.348H452.347H452.342H452.341H452.336H452.335H452.33H452.329H452.325H452.324H452.319H452.318H452.313H452.312H452.307H452.306H452.301H452.3H452.295H452.294Z" stroke="#231F20" stroke-width="2"/>
<path d="M497.413 270.178H382.845V157.856H436.54V209.499H497.374L497.413 270.178ZM385.427 267.596H494.831V212.081H433.958V160.439H385.427V267.596Z" fill="#231F20"/>
<path d="M418.844 159.199H416.262V105.375H499.122V107.958H418.844V159.199Z" fill="#231F20"/>
<path d="M664.768 250.361H507.97V202.785H622.551V162.763H664.768V250.361ZM510.552 247.778H662.186V165.384H625.133V205.406H510.552V247.778Z" fill="#231F20"/>
<path d="M548 122H510V125H548V122Z" fill="#231F20"/>
<path d="M640.207 163.937H637.624V124.677H602.676V122.094H640.207V163.937Z" fill="#231F20"/>
<path d="M693.295 326.675H667.474V325.384C668.92 273.161 694.134 199.377 706.825 178.204L707.199 177.571H728.644V180.153H708.787C696.199 201.727 672.005 272.902 670.211 324.118H692.158C692.727 316.514 696.264 274.968 706.928 251.6C714.534 235.508 723.664 220.182 734.195 205.832L736.261 207.381C725.845 221.584 716.809 236.75 709.278 252.672C697.762 277.899 694.676 324.97 694.637 325.487V326.7L693.295 326.675Z" fill="#231F20"/>
<path d="M767.853 327.294L711.498 243.673L713.642 242.227L768.395 323.486L784.778 309.93L729.818 213.385L732.052 212.107L788.096 310.536L767.853 327.294Z" fill="#231F20"/>
<path d="M722.369 225.973C720.639 233.577 723.015 237.437 728.889 242.304C734.763 247.172 739.127 250.722 740.637 254.763C743.504 262.367 743.503 272.567 747.725 278.092C751.779 283.386 760.868 285.348 765.18 292.436C767.917 296.929 774.437 320.168 774.437 320.168L768.124 325.332L712.609 242.898L722.369 225.973Z" fill="#231F20"/>
<path d="M710.765 113.124L708.213 137.663L710.781 137.931L713.333 113.392L710.765 113.124Z" fill="#231F20"/>
<path d="M706.993 179.585L703.416 174.563L704.888 163.215L707.445 163.537L706.102 173.892L709.084 178.087L706.993 179.585Z" fill="#231F20"/>
<path d="M695.567 207.872H688.544L695.825 163.873L698.368 164.299L691.59 205.29H695.567V207.872Z" fill="#231F20"/>
<path d="M772.178 207.872H734.143L733.911 206.878C733.834 206.568 726.849 176.951 721.878 153.841L713.125 160.916C709.896 163.549 705.996 165.225 701.863 165.757C697.732 166.288 693.535 165.653 689.744 163.925L665.137 152.822L668.765 139.795L694.082 147.012C695.256 147.347 696.499 147.358 697.678 147.044C698.858 146.73 699.931 146.104 700.783 145.23L716.805 128.008V125.051C716.688 120.158 718.199 116.091 721.091 113.677C722.447 112.605 724.031 111.856 725.719 111.49C727.409 111.123 729.16 111.146 730.838 111.56C737.616 112.851 741.025 120.816 750.14 141.964L751.082 144.159C760.481 165.964 771.571 205.832 771.739 206.232L772.178 207.872ZM736.183 205.29H768.782C766.588 197.544 756.995 164.312 748.745 145.178L747.803 142.984C739.088 122.753 735.822 115.174 730.361 114.09C729.064 113.75 727.708 113.714 726.395 113.985C725.083 114.257 723.851 114.827 722.795 115.652C720.523 117.563 719.322 120.894 719.425 125.038V129.027L702.642 147.012C701.464 148.224 699.981 149.096 698.349 149.532C696.717 149.968 694.997 149.954 693.372 149.491L670.559 143.035L668.209 151.427L690.79 161.614C694.14 163.134 697.848 163.691 701.497 163.221C705.145 162.751 708.591 161.273 711.447 158.954L737.268 138.026L738.895 140.027L724.009 152.06C728.592 172.923 734.905 199.816 736.183 205.29Z" fill="#231F20"/>
<path d="M709.885 101.179H709.691C708.894 101.174 708.115 100.953 707.433 100.543C706.753 100.131 706.194 99.544 705.818 98.843C703.236 94.698 704.269 85.751 708.077 78.018L708.632 76.869L709.794 77.424C710.143 77.592 718.573 81.685 723.053 86.164L723.763 86.875L723.247 87.74C722.808 88.475 722.369 89.276 721.956 90.102C719.206 95.073 715.772 101.179 709.885 101.179ZM709.885 80.329C706.67 87.546 706.399 94.75 708.077 97.5C708.221 97.82 708.453 98.094 708.745 98.287C709.038 98.481 709.379 98.59 709.73 98.597H709.859C714.248 98.597 717.14 93.433 719.697 88.837L720.562 87.314C717.277 84.597 713.701 82.254 709.898 80.329H709.885Z" fill="#231F20"/>
<path d="M718.535 90.232C724.388 90.232 729.134 85.255 729.134 79.116C729.134 72.977 724.388 68 718.535 68C712.681 68 707.935 72.977 707.935 79.116C707.935 85.255 712.681 90.232 718.535 90.232Z" fill="#231F20"/>
<path d="M727.366 80.097C731.871 80.097 735.525 76.443 735.525 71.937C735.525 67.432 731.871 63.778 727.366 63.778C722.86 63.778 719.206 67.432 719.206 71.937C719.206 76.443 722.86 80.097 727.366 80.097Z" fill="#231F20"/>
<path d="M736.777 70.762C740.342 70.762 743.232 67.872 743.232 64.307C743.232 60.742 740.342 57.852 736.777 57.852C733.213 57.852 730.322 60.742 730.322 64.307C730.322 67.872 733.213 70.762 736.777 70.762Z" fill="#231F20"/>
<path d="M744.704 64.294C747.35 64.294 749.494 62.15 749.494 59.504C749.494 56.859 747.35 54.715 744.704 54.715C742.059 54.715 739.914 56.859 739.914 59.504C739.914 62.15 742.059 64.294 744.704 64.294Z" fill="#231F20"/>
<path d="M710.827 114.594L710.737 113.303C710.349 108.422 709.704 100.185 709.704 99.837H710.995H712.286C712.286 100.263 712.815 106.873 713.216 111.895L725.248 111.418L718.251 92.297L720.678 91.419L728.889 113.858L710.827 114.594Z" fill="#231F20"/>
<path d="M668.364 143.384L656.306 129.26L664.982 119.952L685.923 134.076C689.215 129.389 702.59 111.314 712.647 111.986L712.48 114.568C704.243 114.026 691.552 130.293 687.33 136.593L686.62 137.678L665.369 123.334L659.727 129.337L670.288 141.719L668.364 143.384Z" fill="#231F20"/>
<path d="M701.405 128.995L697.538 147.813L700.067 148.333L703.934 129.515L701.405 128.995Z" fill="#231F20"/>
<path d="M688.13 325.384V348.778H652.162C652.943 347.418 653.986 346.229 655.232 345.277C656.478 344.326 657.9 343.634 659.417 343.239C664.943 341.522 673.245 337.365 674.277 334.202C675.082 331.294 675.66 328.329 676.007 325.332L688.13 325.384Z" fill="#231F20"/>
<path d="M689.421 350.069H650.173L651.013 348.235C651.869 346.712 653.022 345.377 654.403 344.308C655.784 343.239 657.367 342.458 659.056 342.013C665.421 340.024 672.367 335.983 673.077 333.853C673.851 331.024 674.413 328.141 674.755 325.229L674.884 324.093H689.421V350.069ZM654.731 347.487H686.839V326.675H677.169C676.829 329.377 676.281 332.048 675.53 334.666C674.148 338.798 664.362 343.058 659.831 344.478C657.898 345.036 656.136 346.072 654.705 347.487H654.731Z" fill="#231F20"/>
<path d="M783.087 313.015L797.986 332.123L784.378 344.014C780.332 347.102 775.384 348.775 770.293 348.778H762.417C764.025 346.039 766.136 343.629 768.64 341.677C772.436 338.914 780.26 332.472 780.26 332.472L772.875 321.42L783.087 313.015Z" fill="#231F20"/>
<path d="M770.293 350.068H760.223L761.294 348.145C762.983 345.241 765.219 342.694 767.879 340.644C770.848 338.475 776.4 333.982 778.569 332.213L771.197 321.162L783.281 311.169L799.755 332.303L785.23 344.982C780.942 348.265 775.695 350.05 770.293 350.068ZM764.806 347.486H770.293C775.099 347.481 779.77 345.898 783.591 342.98L796.217 331.955L782.881 314.848L774.631 321.665L782.003 332.729L781.099 333.478C780.776 333.737 773.172 339.934 769.376 342.722C767.622 344.07 766.08 345.677 764.806 347.486Z" fill="#231F20"/>
<path d="M574.092 124.573L546.115 108.461V106.215L573.859 90.089H575.15L603.089 106.215V108.448L575.344 124.573H574.092ZM549.394 107.338L574.737 121.965L599.913 107.338L574.518 92.697L549.394 107.338Z" fill="#231F20"/>
<path d="M574.092 124.573L546.115 108.461V106.215L573.859 90.089H575.15L603.089 106.215V108.448L575.344 124.573H574.092ZM549.394 107.338L574.737 121.965L599.913 107.338L574.518 92.697L549.394 107.338Z" fill="#231F20"/>
<path d="M574.737 155.559L574.647 123.463L602.585 107.338L602.676 139.433L574.737 155.559Z" fill="#231F20"/>
<path d="M575.383 156.682L573.446 155.558L573.356 123.476L574.001 122.352L601.94 106.214L603.876 107.338L603.967 139.42L603.321 140.543L575.383 156.682ZM575.951 124.212L576.028 153.325L601.385 138.684L601.307 109.571L575.951 124.212Z" fill="#231F20"/>
<path d="M602.585 107.338L574.647 123.463L574.737 155.559L602.676 139.433L602.585 107.338Z" fill="#231F20"/>
<path d="M575.383 156.682L573.446 155.558L573.356 123.476L574.001 122.352L601.94 106.214L603.876 107.338L603.967 139.42L603.321 140.543L575.383 156.682ZM575.951 124.212L576.028 153.325L601.385 138.684L601.307 109.571L575.951 124.212Z" fill="#231F20"/>
<path d="M574.105 156.682L546.115 140.543L545.469 139.42L545.56 107.338L547.496 106.214L575.435 122.352L576.08 123.476L575.99 155.558L574.105 156.682ZM548.103 138.684L573.472 153.325L573.55 124.212L548.193 109.571L548.103 138.684Z" fill="#231F20"/>
<path d="M574.105 156.682L546.115 140.543L545.469 139.42L545.56 107.338L547.496 106.214L575.435 122.352L576.08 123.476L575.99 155.558L574.105 156.682ZM548.103 138.684L573.472 153.325L573.55 124.212L548.193 109.571L548.103 138.684Z" fill="#231F20"/>
<path d="M803 350.184H507.659V308.432H672.927V311.014H510.241V347.602H800.418V311.014H787.533V308.432H803V350.184Z" fill="#231F20"/>
<path d="M756.427 308.432H694.779V311.014H756.427V308.432Z" fill="#231F20"/>
<path d="M362.863 51.8357H336.59V54.418H362.863V51.8357Z" fill="#231F20"/>
<path d="M349.72 81.143H336.59V83.725H349.72V81.143Z" fill="#231F20"/>
<path d="M362.863 110.449H336.59V113.031H362.863V110.449Z" fill="#231F20"/>
<path d="M349.72 139.756H336.59V142.338H349.72V139.756Z" fill="#231F20"/>
<path d="M362.863 169.063H336.59V171.645H362.863V169.063Z" fill="#231F20"/>
<path d="M349.72 198.37H336.59V200.952H349.72V198.37Z" fill="#231F20"/>
<path d="M362.863 227.677H336.59V230.259H362.863V227.677Z" fill="#231F20"/>
<path d="M349.72 256.983H336.59V259.566H349.72V256.983Z" fill="#231F20"/>
<path d="M362.863 286.29H336.59V288.872H362.863V286.29Z" fill="#231F20"/>
<path d="M349.72 315.597H336.59V318.18H349.72V315.597Z" fill="#231F20"/>
<path d="M362.863 344.904H336.59V347.486H362.863V344.904Z" fill="#231F20"/>
<path d="M538.252 336.655H535.67V348.881H538.252V336.655Z" fill="#231F20"/>
<path d="M567.559 336.655H564.977V348.881H567.559V336.655Z" fill="#231F20"/>
<path d="M596.866 336.655H594.284V348.881H596.866V336.655Z" fill="#231F20"/>
<path d="M626.173 336.655H623.591V348.881H626.173V336.655Z" fill="#231F20"/>
<path d="M655.48 336.655H652.898V346.183H655.48V336.655Z" fill="#231F20"/>
<path d="M714.093 336.655H711.511V348.881H714.093V336.655Z" fill="#231F20"/>
<path d="M743.4 336.655H740.818V348.881H743.4V336.655Z" fill="#231F20"/>
<path d="M87.3913 194.548V218.42H63.5197L52.0035 229.936H97.242V184.698L87.3913 194.548Z" fill="#231F20"/>
<path d="M157.508 279.448L134.269 270.01H116.918L116.53 269.61C116.121 269.183 115.815 268.668 115.636 268.103C115.458 267.539 115.41 266.941 115.498 266.357C115.59 265.768 115.819 265.209 116.164 264.723C116.508 264.238 116.962 263.838 117.486 263.555C120.068 262.109 123.941 260.069 126.82 258.572C130.37 256.777 133.792 256.338 140.712 259.411L157.792 263.194L165.19 258.417L166.546 260.586L158.257 265.943L139.731 261.825C133.017 258.817 130.512 259.579 127.943 260.883C125.038 262.354 121.307 264.381 118.686 265.827C118.517 265.922 118.37 266.053 118.259 266.212C118.147 266.371 118.073 266.553 118.041 266.744C118.007 266.975 118.034 267.21 118.118 267.428H134.76L157.483 276.633L182.103 265.233L183.187 267.57L157.508 279.448Z" fill="#231F20"/>
<path d="M174.95 316.979L175.699 314.177C179.676 299.33 186.028 273.587 188.132 265.375L172.071 272.734L160.09 252.194L188.7 238.638C192.352 236.918 196.38 236.15 200.41 236.404L222.797 237.876C228.568 238.235 234.073 240.428 238.509 244.138L255.731 258.443L245.829 276.169L226.876 265.737L222.771 285.477C222.319 287.628 221.44 289.665 220.185 291.469C218.929 293.271 217.324 294.804 215.464 295.973L212.881 297.626L174.95 316.979ZM191.928 260.792L191.282 263.374C191.205 263.684 183.755 293.766 178.94 312.021L211.577 295.367L214.16 293.766C215.724 292.782 217.076 291.493 218.132 289.976C219.188 288.459 219.927 286.745 220.305 284.935L225.121 261.761L244.887 272.644L252.452 259.036L236.882 246.126C232.873 242.772 227.898 240.786 222.681 240.458L200.281 238.986C196.671 238.737 193.057 239.418 189.785 240.962L163.705 253.304L173.117 269.365L191.928 260.792Z" fill="#231F20"/>
<path d="M303.049 424.02H286.407C283.631 424.02 278.17 419.979 275.226 417.565L274.064 424.02H260.986L264.924 401.31H282.999L283.218 402.343C283.889 405.635 287.969 415.047 297.497 415.047C298.452 414.985 299.41 415.132 300.302 415.481C301.195 415.828 302 416.368 302.661 417.061C303.965 418.699 304.602 420.77 304.443 422.858L304.327 424.02H303.049ZM273.483 412.801L275.188 414.247C278.712 417.242 284.509 421.438 286.407 421.438H301.719C301.64 420.46 301.262 419.532 300.634 418.778C300.219 418.37 299.719 418.057 299.172 417.859C298.623 417.66 298.039 417.581 297.458 417.629C288.008 417.629 282.495 409.599 280.894 403.892H267.093L264.059 421.438H271.908L273.483 412.801Z" fill="#231F20"/>
<path d="M173.504 477.999H155.623C152.473 477.999 146.199 470.691 143.203 466.973L137.148 474.642L126.071 465.605L143.462 446.407L158.489 457.458L158.593 457.936C158.793 458.992 158.909 460.063 158.941 461.138C159.07 463.965 159.161 465.669 164.222 467.593C172.071 470.524 173.182 476.282 173.259 476.514L173.504 477.999ZM143.203 462.803L144.223 464.094C149 470.227 154.216 475.404 155.623 475.404H170.096C168.601 472.801 166.182 470.857 163.318 469.956C156.656 467.464 156.514 464.443 156.359 461.241C156.333 460.464 156.264 459.688 156.153 458.917L143.81 449.88L129.802 465.372L136.748 471.04L143.203 462.803Z" fill="#231F20"/>
<path d="M144.236 442.233L142.413 447.735L144.865 448.547L146.688 443.045L144.236 442.233Z" fill="#231F20"/>
<path d="M155.425 446.551L153.705 456.237L156.247 456.689L157.967 447.003L155.425 446.551Z" fill="#231F20"/>
<path d="M270.488 396.082H267.906V402.601H270.488V396.082Z" fill="#231F20"/>
<path d="M283.205 396.082H280.623V402.601H283.205V396.082Z" fill="#231F20"/>
<path d="M666.273 153.338C664.026 152.602 661.276 151.789 660.773 151.737C659.676 151.737 647.282 147.735 644.26 144.598C643.965 144.334 643.729 144.013 643.566 143.653C643.404 143.292 643.319 142.901 643.318 142.506C643.328 142.172 643.416 141.845 643.572 141.549C643.729 141.254 643.951 140.998 644.222 140.802C646.21 139.291 652.213 140.156 655.957 140.892C655.784 140.083 655.898 139.238 656.28 138.504C656.503 138.11 656.838 137.79 657.242 137.586C657.647 137.382 658.103 137.301 658.552 137.355C660.308 137.471 663.884 140.492 666.04 142.454L669.1 143.01L670.107 144.623L667.925 152.46L666.273 153.338ZM660.941 149.155C662.589 149.464 664.211 149.895 665.795 150.446L667.241 145.282L665.214 144.92L664.569 144.598C662.738 142.798 660.692 141.232 658.475 139.937C658.474 140.65 658.694 141.344 659.108 141.925L657.739 143.9C652.575 142.687 647.282 142.183 645.965 142.738C647.23 144.688 659.043 148.832 660.941 149.155Z" fill="#231F20"/>
<path d="M650.083 126.665L648.353 126.174L636.101 104.949L636.617 103.155L649.902 96.119L651.619 96.622L663.884 117.847L663.368 119.629L650.083 126.665ZM639.07 104.807L650.031 123.799L661.031 117.976L650.006 98.946L639.07 104.807Z" fill="#231F20"/>
<path d="M657.765 129.57C657.403 129.26 654.189 126.988 651.31 125.09L652.768 122.96C659.818 127.775 659.818 127.775 659.895 128.485L658.604 128.627L657.765 129.57Z" fill="#231F20"/>
<path d="M655.351 107.984C653.892 110.643 652.872 112.993 653.582 114.064C654.292 115.136 656.68 114.064 658.023 112.515C659.366 110.966 660.812 108.345 659.74 107.351C659.419 107.085 659.044 106.889 658.641 106.776C658.24 106.664 657.819 106.636 657.406 106.695C656.992 106.756 656.595 106.9 656.241 107.122C655.888 107.344 655.584 107.638 655.351 107.984Z" fill="#C70707"/>
<path d="M654.563 115.82H654.357C653.999 115.807 653.648 115.712 653.334 115.539C653.02 115.366 652.752 115.122 652.549 114.826C651.477 113.212 652.459 110.695 654.266 107.415C654.579 106.877 655.011 106.417 655.531 106.074C656.05 105.732 656.643 105.515 657.261 105.44C657.872 105.335 658.498 105.37 659.093 105.542C659.687 105.715 660.236 106.02 660.696 106.434C662.581 108.306 660.541 111.702 659.03 113.419C657.908 114.767 656.307 115.628 654.563 115.82ZM657.946 107.958H657.636C657.412 107.98 657.197 108.051 657.004 108.167C656.812 108.283 656.648 108.44 656.526 108.629C654.834 111.676 654.653 112.812 654.679 113.199C655.623 112.954 656.466 112.422 657.094 111.676C658.057 110.746 658.675 109.517 658.849 108.19C658.569 108.013 658.236 107.941 657.907 107.983L657.946 107.958Z" fill="#231F20"/>
<path d="M663.329 115.296L661.186 116.742L665.301 122.84L667.444 121.394L663.329 115.296Z" fill="#231F20"/>
<path d="M262.987 280.184L246.591 272.27L246.023 270.475L252.013 259.734L253.717 259.217L260.599 262.652L273.432 246.397L282.25 235.113V230.504C282.25 227.238 284.148 219.388 288.782 219.388L290.073 220.576C290.241 222.629 291.61 240.82 288.912 245.842C286.045 251.161 265.414 278.622 264.536 279.797L262.987 280.184ZM248.992 270.54L263.194 277.395C266.77 272.618 284.225 249.263 286.717 244.616C288.524 241.272 288.124 228.8 287.711 222.5C286.149 223.933 284.935 227.909 284.922 230.517V235.565L284.651 236.353L275.549 247.972L262.084 265.066L260.496 265.427L253.782 262.071L248.992 270.54Z" fill="#231F20"/>
<path d="M88.6823 219.711H39.0284L88.6823 170.057V219.711ZM45.2642 217.129H86.1002V176.293L45.2642 217.129Z" fill="#231F20"/>
<path d="M185.15 328.056C185.769 341.044 185.356 363.315 176.951 377.645C161.937 403.221 152.021 420.508 153.571 444.251L164.235 448.124L205.548 337.326C201.67 337.412 197.823 336.623 194.292 335.019C190.759 333.414 187.635 331.034 185.15 328.056Z" fill="#231F20"/>
<path d="M164.996 449.802L141.499 441.217L176.513 311.143L183.652 323.666C185.847 327.525 189.047 330.715 192.913 332.899C196.777 335.08 201.163 336.174 205.6 336.06H207.511L164.996 449.802ZM144.598 439.603L163.46 446.497L203.715 338.617C199.142 338.408 194.698 337.044 190.794 334.653C186.891 332.262 183.657 328.922 181.393 324.944L177.365 317.869L144.598 439.603Z" fill="#231F20"/>
</svg>
