<svg width="462" height="407" viewBox="0 0 462 407" fill="none" xmlns="http://www.w3.org/2000/svg">
<path fill-rule="evenodd" clip-rule="evenodd" d="M2.497 166.804L34.79 185.448L66.862 166.81L34.57 148.166L2.497 166.804ZM34.291 187.47L0.00199997 167.673L0 165.942L34.066 146.145L35.068 146.144L69.357 165.94L69.36 167.671L35.294 187.468L34.291 187.47Z" fill="#1B1A19"/>
<path fill-rule="evenodd" clip-rule="evenodd" d="M216 186.466C209.089 186.466 203.466 192.089 203.466 199C203.466 205.913 209.089 211.535 216 211.535C222.911 211.535 228.535 205.913 228.535 199C228.535 192.089 222.911 186.466 216 186.466ZM216 214C207.729 214 201 207.272 201 199C201 190.729 207.729 184 216 184C224.272 184 231 190.729 231 199C231 207.272 224.272 214 216 214Z" fill="#1B1A19"/>
<mask id="mask0_78_3606" style="mask-type:luminance" maskUnits="userSpaceOnUse" x="0" y="146" width="70" height="42">
<path d="M2.497 166.804L34.79 185.448L66.862 166.81L34.57 148.166L2.497 166.804ZM34.291 187.47L0.00199997 167.673L0 165.942L34.066 146.145L35.068 146.144L69.357 165.94L69.36 167.671L35.294 187.468L34.291 187.47V187.47Z" fill="white"/>
</mask>
<g mask="url(#mask0_78_3606)">
<path fill-rule="evenodd" clip-rule="evenodd" d="M2.497 166.804L34.79 185.448L66.862 166.81L34.57 148.166L2.497 166.804ZM34.291 187.47L0.00199997 167.673L0 165.942L34.066 146.145L35.068 146.144L69.357 165.94L69.36 167.671L35.294 187.468L34.291 187.47Z" fill="#1B1A19"/>
</g>
<path fill-rule="evenodd" clip-rule="evenodd" d="M35.681 187.186L35.786 224.281L68.089 205.631L67.984 168.536L35.681 187.186ZM35.291 226.876L33.791 226.013L33.68 186.612L34.18 185.743L68.479 165.94L69.979 166.804L70.091 206.204L69.591 207.073L35.291 226.876Z" fill="#1B1A19"/>
<mask id="mask1_78_3606" style="mask-type:luminance" maskUnits="userSpaceOnUse" x="33" y="165" width="38" height="62">
<path d="M35.681 187.186L35.786 224.281L68.089 205.631L67.984 168.536L35.681 187.186ZM35.291 226.876L33.791 226.013L33.68 186.612L34.18 185.743L68.479 165.94L69.979 166.804L70.091 206.204L69.591 207.073L35.291 226.876V226.876Z" fill="white"/>
</mask>
<g mask="url(#mask1_78_3606)">
<path fill-rule="evenodd" clip-rule="evenodd" d="M35.681 187.186L35.786 224.281L68.089 205.631L67.984 168.536L35.681 187.186ZM35.291 226.876L33.791 226.013L33.68 186.612L34.18 185.743L68.479 165.94L69.979 166.804L70.091 206.204L69.591 207.073L35.291 226.876Z" fill="#1B1A19"/>
</g>
<path fill-rule="evenodd" clip-rule="evenodd" d="M34.801 226.01L34.913 186.609L0.614014 166.807L0.502014 206.207L34.801 226.01Z" fill="#1B1A19"/>
<mask id="mask2_78_3606" style="mask-type:luminance" maskUnits="userSpaceOnUse" x="0" y="166" width="35" height="61">
<path d="M34.801 226.01L34.913 186.609L0.614014 166.807L0.502014 206.207L34.801 226.01Z" fill="white"/>
</mask>
<g mask="url(#mask2_78_3606)">
<path fill-rule="evenodd" clip-rule="evenodd" d="M0.614014 166.807L34.913 186.609L34.801 226.01L0.502014 206.207L0.614014 166.807Z" fill="#1B1A19"/>
</g>
<path fill-rule="evenodd" clip-rule="evenodd" d="M278.881 284.803L311.173 303.446L343.245 284.808L310.953 266.165L278.881 284.803ZM310.675 305.468L276.385 285.672L276.383 283.941L310.449 264.144L311.451 264.143L345.74 283.939L345.743 285.67L311.677 305.467L310.675 305.468Z" fill="#1B1A19"/>
<path fill-rule="evenodd" clip-rule="evenodd" d="M312.065 305.184L312.17 342.28L344.472 323.63L344.367 286.535L312.065 305.184ZM311.675 344.875L310.175 344.012L310.063 304.611L310.563 303.742L344.862 283.939L346.362 284.803L346.474 324.203L345.974 325.072L311.675 344.875Z" fill="#1B1A19"/>
<path fill-rule="evenodd" clip-rule="evenodd" d="M277.887 323.63L310.19 342.28L310.295 305.184L277.992 286.535L277.887 323.63ZM310.685 344.875L276.385 325.072L275.885 324.203L275.997 284.803L277.497 283.939L311.797 303.742L312.297 304.611L312.185 344.012L310.685 344.875ZM85.306 13.065L104.441 24.112L123.443 13.07L104.308 2.022L85.306 13.065ZM103.943 26.134L82.811 13.934L82.808 12.203L103.803 0.00199997L104.806 0L125.938 12.201L125.941 13.932L104.945 26.133L103.943 26.134Z" fill="#1B1A19"/>
<path fill-rule="evenodd" clip-rule="evenodd" d="M104.444 49.554L104.375 25.272L125.513 13.067L125.582 37.35L104.444 49.554Z" fill="#1B1A19"/>
<path fill-rule="evenodd" clip-rule="evenodd" d="M84.313 36.774L103.455 47.8251L103.516 25.8481L84.376 14.797L84.313 36.774ZM103.95 50.42L82.811 38.216L82.311 37.347L82.381 13.064L83.881 12.201L105.018 24.4061L105.518 25.2751L105.45 49.557L103.95 50.42ZM41.708 162.724C37.799 160.467 31.488 160.465 27.603 162.722C23.723 164.977 23.743 168.635 27.653 170.892C31.559 173.147 37.874 173.147 41.754 170.892C45.638 168.635 45.614 164.979 41.708 162.724ZM328.268 315.104H406.693V313.104H328.268V315.104ZM151.777 315.104H230.202V313.104H151.777V315.104Z" fill="#1B1A19"/>
<path fill-rule="evenodd" clip-rule="evenodd" d="M404.777 315.126V313.126L404.776 313.104V124.01H406.776V315.104L404.777 315.126ZM282.776 93.01H367.776V91.01H282.776V93.01ZM35.68 166.807H33.68V91.01H151.527V93.01H35.68V166.807ZM33.68 315.104V244.01H35.68V313.104H52.035V315.104H33.68ZM328.246 306.149C324.424 308.356 321.333 313.708 321.346 318.101C321.358 322.496 324.468 324.265 328.291 322.058C332.116 319.85 335.203 314.502 335.191 310.107C335.178 305.714 332.071 303.94 328.246 306.149ZM210.915 115.343V30.311H117.277V32.311H208.915V115.343H210.915Z" fill="#1B1A19"/>
<path fill-rule="evenodd" clip-rule="evenodd" d="M286.777 92.0101C286.777 92.8309 286.615 93.6438 286.301 94.4021C285.987 95.1605 285.526 95.8495 284.945 96.4299C284.365 97.0103 283.676 97.4706 282.917 97.7846C282.159 98.0986 281.346 98.2602 280.525 98.2601C279.704 98.2599 278.891 98.0981 278.133 97.7838C277.375 97.4696 276.686 97.009 276.105 96.4285C275.525 95.8479 275.064 95.1587 274.75 94.4003C274.436 93.6418 274.275 92.8289 274.275 92.0081C274.275 90.3502 274.934 88.7603 276.107 87.5882C277.279 86.4161 278.869 85.7578 280.527 85.7581C282.185 85.7583 283.775 86.4172 284.947 87.5896C286.119 88.7621 286.777 90.3522 286.777 92.0101ZM233.277 314.376C233.277 315.197 233.115 316.01 232.801 316.768C232.487 317.526 232.026 318.216 231.445 318.796C230.865 319.376 230.176 319.837 229.417 320.151C228.659 320.465 227.846 320.626 227.025 320.626C226.204 320.626 225.391 320.464 224.633 320.15C223.875 319.836 223.186 319.375 222.605 318.794C222.025 318.214 221.564 317.525 221.25 316.766C220.936 316.008 220.775 315.195 220.775 314.374C220.775 312.716 221.434 311.126 222.607 309.954C223.779 308.782 225.369 308.124 227.027 308.124C228.685 308.124 230.275 308.783 231.447 309.956C232.619 311.128 233.277 312.718 233.277 314.376ZM216.527 120.343C216.527 122.001 215.869 123.59 214.696 124.762C213.524 125.935 211.935 126.593 210.277 126.593C208.619 126.593 207.03 125.935 205.858 124.762C204.686 123.59 204.027 122.001 204.027 120.343C204.027 118.685 204.686 117.096 205.858 115.924C207.03 114.752 208.619 114.093 210.277 114.093C211.935 114.093 213.524 114.752 214.696 115.924C215.869 117.096 216.527 118.685 216.527 120.343ZM461.11 234.272C455.235 234.272 452.272 232.376 449.405 230.542C446.661 228.785 444.069 227.126 438.779 227.126C433.488 227.126 430.896 228.785 428.152 230.541C425.285 232.376 422.322 234.272 416.447 234.272C410.571 234.272 407.607 232.376 404.74 230.542C401.995 228.785 399.404 227.126 394.112 227.126C388.82 227.126 386.228 228.785 383.483 230.542C380.616 232.376 377.653 234.272 371.777 234.272V232.272C377.068 232.272 379.659 230.613 382.405 228.857C385.271 227.022 388.235 225.126 394.112 225.126C399.988 225.126 402.952 227.022 405.819 228.857C408.564 230.613 411.155 232.272 416.447 232.272C421.737 232.272 424.329 230.613 427.073 228.857C429.94 227.022 432.903 225.126 438.779 225.126C444.655 225.126 447.617 227.022 450.484 228.857C453.228 230.613 455.82 232.272 461.11 232.272V234.272ZM461.11 250.315C455.235 250.315 452.272 248.419 449.405 246.585C446.661 244.828 444.069 243.169 438.779 243.169C433.488 243.169 430.896 244.828 428.152 246.584C425.285 248.419 422.322 250.315 416.447 250.315C410.571 250.315 407.607 248.419 404.74 246.585C401.995 244.828 399.404 243.169 394.112 243.169C388.82 243.169 386.228 244.828 383.483 246.585C380.616 248.419 377.653 250.315 371.777 250.315V248.315C377.068 248.315 379.659 246.656 382.405 244.9C385.271 243.065 388.235 241.169 394.112 241.169C399.988 241.169 402.952 243.065 405.819 244.9C408.564 246.656 411.155 248.315 416.447 248.315C421.737 248.315 424.329 246.656 427.073 244.9C429.94 243.065 432.903 241.169 438.779 241.169C444.655 241.169 447.617 243.065 450.484 244.9C453.228 246.656 455.82 248.315 461.11 248.315V250.315Z" fill="#1B1A19"/>
<path fill-rule="evenodd" clip-rule="evenodd" d="M116.24 397.366L125.873 403.819C125.779 402.676 125.118 400.704 122.413 397.959C119.967 395.474 120.741 390.552 121.23 388.406L117.318 387.499L116.24 397.366ZM126.902 406.916L114.119 398.352L115.575 385.042L123.719 386.929L123.411 387.952C122.887 389.692 121.942 394.629 123.838 396.554C129.485 402.287 127.672 405.664 127.447 406.031L126.902 406.915V406.916ZM153.495 381.077L158.287 388.607L169.48 385.327C168.555 384.765 166.747 384.201 163.334 384.608C160.284 384.968 158.286 380.478 157.411 377.932L153.495 381.077ZM157.408 390.949L150.846 380.639L158.49 374.5L158.894 375.968C159.662 378.762 161.528 382.845 163.098 382.621C170.695 381.716 172.121 385.108 172.258 385.498L172.607 386.493L157.408 390.949ZM133.074 321.88L131.349 320.867L147.995 292.535H122.923L110.61 312.431L108.91 311.378L121.809 290.535H151.49L133.074 321.88ZM66.627 315.434L64.65 315.129C64.951 313.182 72.234 267.364 91.269 261.245C96.655 259.516 100.495 261.212 100.657 261.287L99.828 263.107C99.801 263.097 96.491 261.667 91.882 263.149C74.01 268.893 66.699 314.969 66.627 315.434Z" fill="#1B1A19"/>
<path fill-rule="evenodd" clip-rule="evenodd" d="M99.314 263.198C98.651 263.198 97.981 263.423 97.291 263.876C92.366 267.109 91.235 272.616 91.224 272.67L91.222 272.683C89.936 278.825 86.688 295.657 84.19 308.695C83.834 310.551 84.453 312.683 85.888 314.541C87.637 316.808 90.321 318.324 92.892 318.496L123.418 319.836L124.209 316.056C111.742 313.443 97.177 310.223 96.202 309.247C95.365 308.411 93.623 306.669 95.661 304.377C96.901 302.634 105.74 273.834 105.415 270.949C105.197 269.011 103.232 264.717 100.676 263.517C100.251 263.311 99.7861 263.202 99.314 263.198ZM125.027 321.908L92.781 320.493C89.585 320.279 86.425 318.511 84.305 315.764C82.52 313.452 81.762 310.738 82.226 308.318C84.725 295.276 87.974 278.438 89.263 272.278C89.332 271.93 90.618 265.864 96.194 262.204C97.937 261.059 99.782 260.887 101.526 261.707C104.944 263.312 107.136 268.354 107.403 270.725C107.731 273.645 98.921 303.72 97.157 305.705C96.495 306.449 96.543 306.75 97.55 307.766C99.224 308.61 115.574 312.209 125.597 314.303L126.576 314.507L125.027 321.908Z" fill="#1B1A19"/>
<path fill-rule="evenodd" clip-rule="evenodd" d="M96.993 260.471C98.36 260.471 99.884 261.003 100.803 261.386L104.169 255.994L99.275 253.737L93.938 260.747C94.926 260.597 96.043 260.471 96.993 260.471ZM101.551 263.966L100.733 263.549C100.712 263.539 98.598 262.471 96.993 262.471C94.94 262.471 91.826 263.165 91.795 263.172L89.118 263.774L98.656 251.248L107.066 255.128L101.551 263.966Z" fill="#1B1A19"/>
<path fill-rule="evenodd" clip-rule="evenodd" d="M101.282 251.167C104.856 254.148 109.126 257.307 110.088 257.427C110.214 257.457 110.258 257.397 110.283 257.371C110.774 256.896 110.774 254.757 110.773 253.196V253.033C110.773 250.223 109.765 246.023 107.512 242.97L105.992 241.023L101.884 243.846L101.282 251.167ZM110.099 259.427C110.068 259.427 110.037 259.425 110.007 259.424C108.099 259.361 102.093 254.467 99.598 252.366L99.203 252.034L99.969 242.735L106.41 238.308L109.113 241.771C111.641 245.191 112.773 249.891 112.773 253.033V253.195C112.774 255.636 112.774 257.745 111.673 258.809C111.254 259.214 110.711 259.426 110.099 259.426V259.427Z" fill="#1B1A19"/>
<path fill-rule="evenodd" clip-rule="evenodd" d="M112.12 251.07C110.787 252.404 108.104 253.501 106.008 252.493C105.199 252.104 103.678 250.933 102.746 250.187C102.828 248.121 102.628 246.292 102.431 244.96C101.966 241.821 109.188 240.811 109.688 237.478C110.188 234.145 105.188 232.311 102.39 233.478C99.592 234.645 98.188 237.645 94.688 239.311C91.188 240.978 92.188 244.645 92.521 247.811C92.854 250.978 95.803 257.131 99.688 256.218C99.958 256.155 100.205 256.058 100.431 255.933C101.268 255.471 102.326 255.741 102.96 256.456C104.471 258.161 106.246 260.183 106.954 261.067C108.287 262.73 110.787 262.237 112.12 259.404C113.454 256.57 113.454 249.737 112.12 251.07ZM124.236 388.428L111.627 384.936L111.753 384.066C111.918 382.913 115.833 355.806 117.793 349.893C118.487 347.798 119.649 344.138 121.247 339.016L123.157 339.612C121.555 344.746 120.39 348.416 119.692 350.522C117.979 355.69 114.56 378.695 113.859 383.479L122.915 385.987L133.827 351.781L135.732 352.388L124.236 388.428ZM142.084 332.476L140.179 331.868L141.422 327.97C141.631 327.327 141.683 326.643 141.575 325.976C141.467 325.309 141.201 324.677 140.799 324.133C140.403 323.585 139.882 323.14 139.279 322.834C138.677 322.528 138.01 322.37 137.334 322.373H132.211V320.373H137.334C139.364 320.373 141.215 321.314 142.413 322.954C143.002 323.751 143.393 324.677 143.551 325.655C143.71 326.633 143.634 327.636 143.327 328.578L142.084 332.475" fill="#1B1A19"/>
<path fill-rule="evenodd" clip-rule="evenodd" d="M128.065 338.189L151.7 379.957L159.012 374.079L137.64 326.884C137.026 325.517 136.042 324.348 134.8 323.51C133.557 322.672 132.106 322.197 130.608 322.139L93.256 320.572L66.441 316.418C66.321 317 66.188 317.575 66.058 318.138C65.086 322.332 64.168 326.295 68.869 332.432C73.535 338.523 112.748 338.667 127.461 338.207L128.065 338.189ZM151.119 382.991L126.919 340.225C119.153 340.447 73.234 341.419 67.282 333.649C62.007 326.763 63.076 322.149 64.11 317.686C64.314 316.804 64.507 315.972 64.653 315.114L64.818 314.144L93.507 318.586L130.692 320.141C134.521 320.301 137.882 322.569 139.462 326.061L161.473 374.667L151.119 382.991Z" fill="#1B1A19"/>
<path fill-rule="evenodd" clip-rule="evenodd" d="M127.493 339.207C127.493 339.207 82.967 340.595 70.656 334.873H33.777V348.377H132.211V347.547L127.493 339.207ZM125.868 319.923L129.909 320.113C129.47 319.438 127.826 318.005 126.216 317.109L125.868 319.923ZM131.995 322.213L123.618 321.82L124.555 314.253L125.735 314.684C127.82 315.444 131.989 318.355 131.993 320.184L131.995 322.212V322.213Z" fill="#1B1A19"/>
<path fill-rule="evenodd" clip-rule="evenodd" d="M411.626 101.321L410.383 99.755L420.953 91.365L410.383 82.976L411.626 81.409L424.17 91.365L411.626 101.321ZM398.914 99.755L397.671 101.321L385.128 91.365L397.671 81.409L398.914 82.976L388.345 91.365L398.914 99.755ZM379.777 110.606H429.52V72.126H379.777V110.606Z" fill="#1B1A19"/>
</svg>
