<svg width="462" height="408" viewBox="0 0 462 408" fill="none" xmlns="http://www.w3.org/2000/svg">
<path fill-rule="evenodd" clip-rule="evenodd" d="M2.94207 167.346L35.2351 185.99L67.3071 167.352L35.0151 148.708L2.94207 167.346ZM34.7361 188.012L0.447068 168.215L0.445068 166.484L34.5111 146.687L35.5131 146.686L69.8021 166.482L69.8051 168.213L35.7391 188.01L34.7361 188.012Z" fill="#1B1A19"/>
<mask id="mask0_78_3606" style="mask-type:luminance" maskUnits="userSpaceOnUse" x="0" y="146" width="70" height="43">
<path d="M2.94207 167.346L35.2351 185.99L67.3071 167.352L35.0151 148.708L2.94207 167.346ZM34.7361 188.012L0.447068 168.215L0.445068 166.484L34.5111 146.687L35.5131 146.686L69.8021 166.482L69.8051 168.213L35.7391 188.01L34.7361 188.012V188.012Z" fill="white"/>
</mask>
<g mask="url(#mask0_78_3606)">
<path fill-rule="evenodd" clip-rule="evenodd" d="M2.94207 167.346L35.2351 185.99L67.3071 167.352L35.0151 148.708L2.94207 167.346ZM34.7361 188.012L0.447068 168.215L0.445068 166.484L34.5111 146.687L35.5131 146.686L69.8021 166.482L69.8051 168.213L35.7391 188.01L34.7361 188.012Z" fill="#1B1A19"/>
</g>
<path fill-rule="evenodd" clip-rule="evenodd" d="M36.1261 187.728L36.2311 224.823L68.5341 206.173L68.4291 169.078L36.1261 187.728ZM35.7361 227.418L34.2361 226.555L34.1251 187.154L34.6251 186.285L68.9241 166.482L70.4241 167.346L70.5361 206.746L70.0361 207.615L35.7361 227.418Z" fill="#1B1A19"/>
<mask id="mask1_78_3606" style="mask-type:luminance" maskUnits="userSpaceOnUse" x="34" y="166" width="37" height="62">
<path d="M36.1261 187.728L36.2311 224.823L68.5341 206.173L68.4291 169.078L36.1261 187.728ZM35.7361 227.418L34.2361 226.555L34.1251 187.154L34.6251 186.285L68.9241 166.482L70.4241 167.346L70.5361 206.746L70.0361 207.615L35.7361 227.418V227.418Z" fill="white"/>
</mask>
<g mask="url(#mask1_78_3606)">
<path fill-rule="evenodd" clip-rule="evenodd" d="M36.1261 187.728L36.2311 224.823L68.5341 206.173L68.4291 169.078L36.1261 187.728ZM35.7361 227.418L34.2361 226.555L34.1251 187.154L34.6251 186.285L68.9241 166.482L70.4241 167.346L70.5361 206.746L70.0361 207.615L35.7361 227.418Z" fill="#1B1A19"/>
</g>
<path fill-rule="evenodd" clip-rule="evenodd" d="M35.2461 226.552L35.3581 187.151L1.05908 167.349L0.947083 206.749L35.2461 226.552Z" fill="#1B1A19"/>
<mask id="mask2_78_3606" style="mask-type:luminance" maskUnits="userSpaceOnUse" x="0" y="167" width="36" height="60">
<path d="M35.2461 226.552L35.3581 187.151L1.05908 167.349L0.947083 206.749L35.2461 226.552Z" fill="white"/>
</mask>
<g mask="url(#mask2_78_3606)">
<path fill-rule="evenodd" clip-rule="evenodd" d="M1.05908 167.349L35.3581 187.151L35.2461 226.552L0.947083 206.749L1.05908 167.349Z" fill="#1B1A19"/>
</g>
<path fill-rule="evenodd" clip-rule="evenodd" d="M279.326 285.345L311.618 303.988L343.69 285.35L311.398 266.707L279.326 285.345ZM311.12 306.01L276.83 286.214L276.828 284.483L310.894 264.686L311.896 264.685L346.185 284.481L346.188 286.212L312.122 306.009L311.12 306.01Z" fill="#1B1A19"/>
<path fill-rule="evenodd" clip-rule="evenodd" d="M312.51 305.726L312.615 342.822L344.917 324.172L344.812 287.077L312.51 305.726ZM312.12 345.417L310.62 344.554L310.508 305.153L311.008 304.284L345.307 284.481L346.807 285.345L346.919 324.745L346.419 325.614L312.12 345.417Z" fill="#1B1A19"/>
<path fill-rule="evenodd" clip-rule="evenodd" d="M278.332 324.172L310.635 342.822L310.74 305.726L278.437 287.077L278.332 324.172ZM311.13 345.417L276.83 325.614L276.33 324.745L276.442 285.345L277.942 284.481L312.242 304.284L312.742 305.153L312.63 344.554L311.13 345.417ZM85.7511 13.607L104.886 24.654L123.888 13.612L104.753 2.56399L85.7511 13.607ZM104.388 26.676L83.2561 14.476L83.2531 12.745L104.248 0.543992L105.251 0.541992L126.383 12.743L126.386 14.474L105.39 26.675L104.388 26.676Z" fill="#1B1A19"/>
<path fill-rule="evenodd" clip-rule="evenodd" d="M104.889 50.096L104.82 25.814L125.958 13.609L126.027 37.892L104.889 50.096Z" fill="#1B1A19"/>
<path fill-rule="evenodd" clip-rule="evenodd" d="M84.758 37.316L103.9 48.367L103.961 26.39L84.821 15.339L84.758 37.316ZM104.395 50.962L83.256 38.758L82.756 37.889L82.826 13.606L84.326 12.743L105.463 24.948L105.963 25.817L105.895 50.099L104.395 50.962ZM42.153 163.266C38.244 161.009 31.933 161.007 28.048 163.264C24.168 165.519 24.188 169.177 28.098 171.434C32.004 173.689 38.319 173.689 42.199 171.434C46.083 169.177 46.059 165.521 42.153 163.266ZM328.713 315.646H407.138V313.646H328.713V315.646ZM152.222 315.646H230.647V313.646H152.222V315.646Z" fill="#1B1A19"/>
<path fill-rule="evenodd" clip-rule="evenodd" d="M405.222 315.668V313.668L405.221 313.646V124.552H407.221V315.646L405.222 315.668ZM283.221 93.552H368.221V91.552H283.221V93.552ZM36.1251 167.349H34.1251V91.552H151.972V93.552H36.1251V167.349ZM34.1251 315.646V244.552H36.1251V313.646H52.4801V315.646H34.1251ZM328.691 306.691C324.869 308.898 321.778 314.25 321.791 318.643C321.803 323.038 324.913 324.807 328.736 322.6C332.561 320.392 335.648 315.044 335.636 310.649C335.623 306.256 332.516 304.482 328.691 306.691ZM211.36 115.885V30.853H117.722V32.853H209.36V115.885H211.36Z" fill="#1B1A19"/>
<path fill-rule="evenodd" clip-rule="evenodd" d="M287.222 92.552C287.222 93.3729 287.06 94.1858 286.746 94.9441C286.432 95.7025 285.971 96.3915 285.391 96.9719C284.81 97.5522 284.121 98.0126 283.362 98.3266C282.604 98.6406 281.791 98.8022 280.97 98.802C280.149 98.8019 279.336 98.6401 278.578 98.3258C277.82 98.0116 277.131 97.551 276.55 96.9705C275.97 96.3899 275.51 95.7007 275.196 94.9423C274.882 94.1838 274.72 93.3709 274.72 92.55C274.72 90.8922 275.379 89.3023 276.552 88.1302C277.724 86.9581 279.314 86.2998 280.972 86.3C282.63 86.3003 284.22 86.9592 285.392 88.1316C286.564 89.3041 287.222 90.8942 287.222 92.552ZM233.722 314.918C233.722 315.739 233.56 316.552 233.246 317.31C232.932 318.068 232.471 318.758 231.891 319.338C231.31 319.918 230.621 320.379 229.862 320.693C229.104 321.007 228.291 321.168 227.47 321.168C226.649 321.168 225.836 321.006 225.078 320.692C224.32 320.378 223.631 319.917 223.05 319.336C222.47 318.756 222.01 318.067 221.696 317.308C221.382 316.55 221.22 315.737 221.22 314.916C221.22 313.258 221.879 311.668 223.052 310.496C224.224 309.324 225.814 308.666 227.472 308.666C229.13 308.666 230.72 309.325 231.892 310.498C233.064 311.67 233.722 313.26 233.722 314.918ZM216.972 120.885C216.972 122.543 216.314 124.132 215.142 125.304C213.969 126.477 212.38 127.135 210.722 127.135C209.064 127.135 207.475 126.477 206.303 125.304C205.131 124.132 204.472 122.543 204.472 120.885C204.472 119.227 205.131 117.638 206.303 116.466C207.475 115.294 209.064 114.635 210.722 114.635C212.38 114.635 213.969 115.294 215.142 116.466C216.314 117.638 216.972 119.227 216.972 120.885ZM461.555 234.814C455.68 234.814 452.717 232.918 449.85 231.084C447.106 229.327 444.514 227.668 439.224 227.668C433.933 227.668 431.341 229.327 428.597 231.083C425.73 232.918 422.767 234.814 416.892 234.814C411.016 234.814 408.052 232.918 405.185 231.084C402.44 229.327 399.849 227.668 394.557 227.668C389.265 227.668 386.673 229.327 383.928 231.084C381.061 232.918 378.098 234.814 372.222 234.814V232.814C377.513 232.814 380.104 231.155 382.85 229.399C385.716 227.564 388.68 225.668 394.557 225.668C400.433 225.668 403.397 227.564 406.264 229.399C409.009 231.155 411.6 232.814 416.892 232.814C422.182 232.814 424.774 231.155 427.518 229.399C430.385 227.564 433.348 225.668 439.224 225.668C445.1 225.668 448.062 227.564 450.929 229.399C453.673 231.155 456.265 232.814 461.555 232.814V234.814ZM461.555 250.857C455.68 250.857 452.717 248.961 449.85 247.127C447.106 245.37 444.514 243.711 439.224 243.711C433.933 243.711 431.341 245.37 428.597 247.126C425.73 248.961 422.767 250.857 416.892 250.857C411.016 250.857 408.052 248.961 405.185 247.127C402.44 245.37 399.849 243.711 394.557 243.711C389.265 243.711 386.673 245.37 383.928 247.127C381.061 248.961 378.098 250.857 372.222 250.857V248.857C377.513 248.857 380.104 247.198 382.85 245.442C385.716 243.607 388.68 241.711 394.557 241.711C400.433 241.711 403.397 243.607 406.264 245.442C409.009 247.198 411.6 248.857 416.892 248.857C422.182 248.857 424.774 247.198 427.518 245.442C430.385 243.607 433.348 241.711 439.224 241.711C445.1 241.711 448.062 243.607 450.929 245.442C453.673 247.198 456.265 248.857 461.555 248.857V250.857Z" fill="#1B1A19"/>
<path fill-rule="evenodd" clip-rule="evenodd" d="M116.685 397.908L126.318 404.361C126.224 403.218 125.563 401.246 122.858 398.501C120.412 396.016 121.186 391.094 121.675 388.948L117.763 388.041L116.685 397.908ZM127.347 407.458L114.564 398.894L116.02 385.584L124.164 387.471L123.856 388.494C123.332 390.234 122.387 395.171 124.283 397.096C129.93 402.829 128.117 406.206 127.892 406.573L127.347 407.457V407.458ZM153.94 381.619L158.732 389.149L169.925 385.869C169 385.307 167.192 384.743 163.779 385.15C160.729 385.51 158.731 381.02 157.856 378.474L153.94 381.619ZM157.853 391.491L151.291 381.181L158.935 375.042L159.339 376.51C160.107 379.304 161.973 383.387 163.543 383.163C171.14 382.258 172.566 385.65 172.703 386.04L173.052 387.035L157.853 391.491ZM133.519 322.422L131.794 321.409L148.44 293.077H123.368L111.055 312.973L109.355 311.92L122.254 291.077H151.935L133.519 322.422ZM67.072 315.976L65.095 315.671C65.396 313.724 72.679 267.906 91.714 261.787C97.1 260.058 100.94 261.754 101.102 261.829L100.273 263.649C100.246 263.639 96.936 262.209 92.327 263.691C74.455 269.435 67.144 315.511 67.072 315.976Z" fill="#1B1A19"/>
<path fill-rule="evenodd" clip-rule="evenodd" d="M99.759 263.74C99.096 263.74 98.426 263.965 97.736 264.418C92.811 267.651 91.68 273.158 91.669 273.212L91.667 273.225C90.381 279.367 87.133 296.199 84.635 309.237C84.279 311.093 84.898 313.225 86.333 315.083C88.082 317.35 90.766 318.866 93.337 319.038L123.863 320.378L124.654 316.598C112.187 313.985 97.622 310.765 96.647 309.789C95.81 308.953 94.068 307.211 96.106 304.919C97.346 303.176 106.185 274.376 105.86 271.491C105.642 269.553 103.677 265.259 101.121 264.059C100.696 263.853 100.231 263.744 99.759 263.74ZM125.472 322.45L93.226 321.035C90.03 320.821 86.87 319.053 84.75 316.306C82.965 313.994 82.207 311.28 82.671 308.86C85.17 295.818 88.419 278.98 89.708 272.82C89.777 272.472 91.063 266.406 96.639 262.746C98.382 261.601 100.227 261.429 101.971 262.249C105.389 263.854 107.581 268.896 107.848 271.267C108.176 274.187 99.366 304.262 97.602 306.247C96.94 306.991 96.988 307.292 97.995 308.308C99.669 309.152 116.019 312.751 126.042 314.845L127.021 315.049L125.472 322.45Z" fill="#1B1A19"/>
<path fill-rule="evenodd" clip-rule="evenodd" d="M97.438 261.013C98.805 261.013 100.329 261.545 101.248 261.928L104.614 256.536L99.72 254.279L94.383 261.289C95.371 261.139 96.488 261.013 97.438 261.013ZM101.996 264.508L101.178 264.091C101.157 264.081 99.043 263.013 97.438 263.013C95.385 263.013 92.271 263.707 92.24 263.714L89.563 264.316L99.101 251.79L107.511 255.67L101.996 264.508Z" fill="#1B1A19"/>
<path fill-rule="evenodd" clip-rule="evenodd" d="M101.727 251.709C105.301 254.69 109.571 257.849 110.533 257.969C110.659 257.999 110.703 257.939 110.728 257.913C111.219 257.438 111.219 255.299 111.218 253.738V253.575C111.218 250.765 110.21 246.565 107.957 243.512L106.437 241.565L102.329 244.388L101.727 251.709ZM110.544 259.969C110.513 259.969 110.482 259.967 110.452 259.966C108.544 259.903 102.538 255.009 100.043 252.908L99.6481 252.576L100.414 243.277L106.855 238.85L109.558 242.313C112.086 245.733 113.218 250.433 113.218 253.575V253.737C113.219 256.178 113.219 258.287 112.118 259.351C111.699 259.756 111.156 259.968 110.544 259.968V259.969Z" fill="#1B1A19"/>
<path fill-rule="evenodd" clip-rule="evenodd" d="M112.565 251.612C111.232 252.946 108.549 254.043 106.453 253.035C105.644 252.646 104.123 251.475 103.191 250.729C103.273 248.663 103.073 246.834 102.876 245.502C102.411 242.363 109.633 241.353 110.133 238.02C110.633 234.687 105.633 232.853 102.835 234.02C100.037 235.187 98.6331 238.187 95.1331 239.853C91.6331 241.52 92.6331 245.187 92.9661 248.353C93.2991 251.52 96.2481 257.673 100.133 256.76C100.403 256.697 100.65 256.6 100.876 256.475C101.713 256.013 102.771 256.283 103.405 256.998C104.916 258.703 106.691 260.725 107.399 261.609C108.732 263.272 111.232 262.779 112.565 259.946C113.899 257.112 113.899 250.279 112.565 251.612ZM124.681 388.97L112.072 385.478L112.198 384.608C112.363 383.455 116.278 356.348 118.238 350.435C118.932 348.34 120.094 344.68 121.692 339.558L123.602 340.154C122 345.288 120.835 348.958 120.137 351.064C118.424 356.232 115.005 379.237 114.304 384.021L123.36 386.529L134.272 352.323L136.177 352.93L124.681 388.97ZM142.529 333.018L140.624 332.41L141.867 328.512C142.076 327.869 142.128 327.185 142.02 326.518C141.912 325.851 141.646 325.219 141.244 324.675C140.848 324.127 140.327 323.682 139.724 323.376C139.122 323.07 138.455 322.912 137.779 322.915H132.656V320.915H137.779C139.809 320.915 141.66 321.856 142.858 323.496C143.447 324.293 143.838 325.219 143.997 326.197C144.156 327.175 144.079 328.178 143.772 329.12L142.529 333.017" fill="#1B1A19"/>
<path fill-rule="evenodd" clip-rule="evenodd" d="M128.51 338.731L152.145 380.499L159.457 374.621L138.085 327.426C137.471 326.059 136.487 324.89 135.245 324.052C134.002 323.214 132.551 322.739 131.053 322.681L93.701 321.114L66.8861 316.96C66.7661 317.542 66.633 318.117 66.503 318.68C65.531 322.874 64.6131 326.837 69.3141 332.974C73.9801 339.065 113.193 339.209 127.906 338.749L128.51 338.731ZM151.564 383.533L127.364 340.767C119.598 340.989 73.679 341.961 67.727 334.191C62.452 327.305 63.5211 322.691 64.5551 318.228C64.7591 317.346 64.9521 316.514 65.0981 315.656L65.2631 314.686L93.9521 319.128L131.137 320.683C134.966 320.843 138.327 323.111 139.907 326.603L161.918 375.209L151.564 383.533Z" fill="#1B1A19"/>
<path fill-rule="evenodd" clip-rule="evenodd" d="M127.938 339.749C127.938 339.749 83.412 341.137 71.101 335.415H34.222V348.919H132.656V348.089L127.938 339.749ZM126.313 320.465L130.354 320.655C129.915 319.98 128.271 318.547 126.661 317.651L126.313 320.465ZM132.44 322.755L124.063 322.362L125 314.795L126.18 315.226C128.265 315.986 132.434 318.897 132.438 320.726L132.44 322.754V322.755Z" fill="#1B1A19"/>
<path fill-rule="evenodd" clip-rule="evenodd" d="M412.071 101.863L410.828 100.297L421.398 91.907L410.828 83.518L412.071 81.951L424.615 91.907L412.071 101.863ZM399.359 100.297L398.116 101.863L385.573 91.907L398.116 81.951L399.359 83.518L388.79 91.907L399.359 100.297ZM380.222 111.148H429.965V72.668H380.222V111.148Z" fill="#1B1A19"/>
</svg>
