<svg width="800" height="573" viewBox="0 0 800 573" fill="none" xmlns="http://www.w3.org/2000/svg">
<path fill-rule="evenodd" clip-rule="evenodd" d="M171.497 249.804L203.79 268.448L235.862 249.81L203.57 231.166L171.497 249.804ZM203.291 270.47L169.002 250.673L169 248.942L203.066 229.145L204.068 229.144L238.357 248.94L238.36 250.671L204.294 270.468L203.291 270.47Z" fill="white"/>
<path fill-rule="evenodd" clip-rule="evenodd" d="M385 269.466C378.089 269.466 372.466 275.089 372.466 282C372.466 288.913 378.089 294.535 385 294.535C391.911 294.535 397.535 288.913 397.535 282C397.535 275.089 391.911 269.466 385 269.466ZM385 297C376.729 297 370 290.272 370 282C370 273.729 376.729 267 385 267C393.272 267 400 273.729 400 282C400 290.272 393.272 297 385 297Z" fill="white"/>
<mask id="mask0_223_20" style="mask-type:luminance" maskUnits="userSpaceOnUse" x="169" y="229" width="70" height="42">
<path d="M171.497 249.804L203.79 268.448L235.862 249.81L203.57 231.166L171.497 249.804ZM203.291 270.47L169.002 250.673L169 248.942L203.066 229.145L204.068 229.144L238.357 248.94L238.36 250.671L204.294 270.468L203.291 270.47V270.47Z" fill="white"/>
</mask>
<g mask="url(#mask0_223_20)">
<path fill-rule="evenodd" clip-rule="evenodd" d="M171.497 249.804L203.79 268.448L235.862 249.81L203.57 231.166L171.497 249.804ZM203.291 270.47L169.002 250.673L169 248.942L203.066 229.145L204.068 229.144L238.357 248.94L238.36 250.671L204.294 270.468L203.291 270.47Z" fill="white"/>
</g>
<path fill-rule="evenodd" clip-rule="evenodd" d="M204.681 270.186L204.786 307.281L237.089 288.631L236.984 251.536L204.681 270.186ZM204.291 309.876L202.791 309.013L202.68 269.612L203.18 268.743L237.479 248.94L238.979 249.804L239.091 289.204L238.591 290.073L204.291 309.876Z" fill="white"/>
<mask id="mask1_223_20" style="mask-type:luminance" maskUnits="userSpaceOnUse" x="202" y="248" width="38" height="62">
<path d="M204.681 270.186L204.786 307.281L237.089 288.631L236.984 251.536L204.681 270.186ZM204.291 309.876L202.791 309.013L202.68 269.612L203.18 268.743L237.479 248.94L238.979 249.804L239.091 289.204L238.591 290.073L204.291 309.876V309.876Z" fill="white"/>
</mask>
<g mask="url(#mask1_223_20)">
<path fill-rule="evenodd" clip-rule="evenodd" d="M204.681 270.186L204.786 307.281L237.089 288.631L236.984 251.536L204.681 270.186ZM204.291 309.876L202.791 309.013L202.68 269.612L203.18 268.743L237.479 248.94L238.979 249.804L239.091 289.204L238.591 290.073L204.291 309.876Z" fill="white"/>
</g>
<path fill-rule="evenodd" clip-rule="evenodd" d="M203.801 309.01L203.913 269.609L169.614 249.807L169.502 289.207L203.801 309.01Z" fill="white"/>
<mask id="mask2_223_20" style="mask-type:luminance" maskUnits="userSpaceOnUse" x="169" y="249" width="35" height="61">
<path d="M203.801 309.01L203.913 269.609L169.614 249.807L169.502 289.207L203.801 309.01Z" fill="white"/>
</mask>
<g mask="url(#mask2_223_20)">
<path fill-rule="evenodd" clip-rule="evenodd" d="M169.614 249.807L203.913 269.609L203.801 309.01L169.502 289.207L169.614 249.807Z" fill="white"/>
</g>
<path fill-rule="evenodd" clip-rule="evenodd" d="M447.881 367.803L480.173 386.446L512.245 367.808L479.953 349.165L447.881 367.803ZM479.675 388.468L445.385 368.672L445.383 366.941L479.449 347.144L480.451 347.143L514.74 366.939L514.743 368.67L480.677 388.467L479.675 388.468Z" fill="white"/>
<path fill-rule="evenodd" clip-rule="evenodd" d="M481.065 388.184L481.17 425.28L513.472 406.63L513.367 369.535L481.065 388.184ZM480.675 427.875L479.175 427.012L479.063 387.611L479.563 386.742L513.862 366.939L515.362 367.803L515.474 407.203L514.974 408.072L480.675 427.875Z" fill="white"/>
<path fill-rule="evenodd" clip-rule="evenodd" d="M446.887 406.63L479.19 425.28L479.295 388.184L446.992 369.535L446.887 406.63ZM479.685 427.875L445.385 408.072L444.885 407.203L444.997 367.803L446.497 366.939L480.797 386.742L481.297 387.611L481.185 427.012L479.685 427.875ZM254.306 96.065L273.441 107.112L292.443 96.07L273.308 85.022L254.306 96.065ZM272.943 109.134L251.811 96.934L251.808 95.203L272.803 83.002L273.806 83L294.938 95.201L294.941 96.932L273.945 109.133L272.943 109.134Z" fill="white"/>
<path fill-rule="evenodd" clip-rule="evenodd" d="M273.444 132.554L273.375 108.272L294.513 96.067L294.582 120.35L273.444 132.554Z" fill="white"/>
<path fill-rule="evenodd" clip-rule="evenodd" d="M253.313 119.774L272.455 130.825L272.516 108.848L253.376 97.797L253.313 119.774ZM272.95 133.42L251.811 121.216L251.311 120.347L251.381 96.064L252.881 95.201L274.018 107.406L274.518 108.275L274.45 132.557L272.95 133.42ZM210.708 245.724C206.799 243.467 200.488 243.465 196.603 245.722C192.723 247.977 192.743 251.635 196.653 253.892C200.559 256.147 206.874 256.147 210.754 253.892C214.638 251.635 214.614 247.979 210.708 245.724ZM497.268 398.104H575.693V396.104H497.268V398.104ZM320.777 398.104H399.202V396.104H320.777V398.104Z" fill="white"/>
<path fill-rule="evenodd" clip-rule="evenodd" d="M573.777 398.126V396.126L573.776 396.104V207.01H575.776V398.104L573.777 398.126ZM451.776 176.01H536.776V174.01H451.776V176.01ZM204.68 249.807H202.68V174.01H320.527V176.01H204.68V249.807ZM202.68 398.104V327.01H204.68V396.104H221.035V398.104H202.68ZM497.246 389.149C493.424 391.356 490.333 396.708 490.346 401.101C490.358 405.496 493.468 407.265 497.291 405.058C501.116 402.85 504.203 397.502 504.191 393.107C504.178 388.714 501.071 386.94 497.246 389.149ZM379.915 198.343V113.311H286.277V115.311H377.915V198.343H379.915Z" fill="white"/>
<path fill-rule="evenodd" clip-rule="evenodd" d="M455.777 175.01C455.777 175.831 455.615 176.644 455.301 177.402C454.986 178.16 454.526 178.849 453.945 179.43C453.365 180.01 452.676 180.471 451.917 180.785C451.159 181.099 450.346 181.26 449.525 181.26C448.704 181.26 447.891 181.098 447.133 180.784C446.375 180.47 445.685 180.009 445.105 179.428C444.525 178.848 444.064 178.159 443.75 177.4C443.436 176.642 443.275 175.829 443.275 175.008C443.275 173.35 443.934 171.76 445.107 170.588C446.279 169.416 447.869 168.758 449.527 168.758C451.185 168.758 452.775 169.417 453.947 170.59C455.119 171.762 455.777 173.352 455.777 175.01ZM402.277 397.376C402.277 398.197 402.115 399.01 401.801 399.768C401.486 400.526 401.026 401.215 400.445 401.796C399.865 402.376 399.176 402.837 398.417 403.151C397.659 403.465 396.846 403.626 396.025 403.626C395.204 403.626 394.391 403.464 393.633 403.15C392.875 402.836 392.185 402.375 391.605 401.794C391.025 401.214 390.564 400.525 390.25 399.766C389.936 399.008 389.775 398.195 389.775 397.374C389.775 395.716 390.434 394.126 391.607 392.954C392.779 391.782 394.369 391.124 396.027 391.124C397.685 391.124 399.275 391.783 400.447 392.956C401.619 394.128 402.277 395.718 402.277 397.376ZM385.527 203.343C385.527 205.001 384.868 206.59 383.696 207.762C382.524 208.935 380.935 209.593 379.277 209.593C377.619 209.593 376.03 208.935 374.858 207.762C373.685 206.59 373.027 205.001 373.027 203.343C373.027 201.685 373.685 200.096 374.858 198.924C376.03 197.751 377.619 197.093 379.277 197.093C380.935 197.093 382.524 197.751 383.696 198.924C384.868 200.096 385.527 201.685 385.527 203.343ZM630.11 317.272C624.235 317.272 621.272 315.376 618.405 313.542C615.661 311.785 613.069 310.126 607.779 310.126C602.488 310.126 599.896 311.785 597.152 313.541C594.285 315.376 591.322 317.272 585.447 317.272C579.571 317.272 576.607 315.376 573.74 313.542C570.995 311.785 568.404 310.126 563.112 310.126C557.82 310.126 555.228 311.785 552.483 313.542C549.616 315.376 546.653 317.272 540.777 317.272V315.272C546.068 315.272 548.659 313.613 551.405 311.857C554.271 310.022 557.235 308.126 563.112 308.126C568.988 308.126 571.952 310.022 574.819 311.857C577.564 313.613 580.155 315.272 585.447 315.272C590.737 315.272 593.329 313.613 596.073 311.857C598.94 310.022 601.903 308.126 607.779 308.126C613.655 308.126 616.617 310.022 619.484 311.857C622.228 313.613 624.82 315.272 630.11 315.272V317.272ZM630.11 333.315C624.235 333.315 621.272 331.419 618.405 329.585C615.661 327.828 613.069 326.169 607.779 326.169C602.488 326.169 599.896 327.828 597.152 329.584C594.285 331.419 591.322 333.315 585.447 333.315C579.571 333.315 576.607 331.419 573.74 329.585C570.995 327.828 568.404 326.169 563.112 326.169C557.82 326.169 555.228 327.828 552.483 329.585C549.616 331.419 546.653 333.315 540.777 333.315V331.315C546.068 331.315 548.659 329.656 551.405 327.9C554.271 326.065 557.235 324.169 563.112 324.169C568.988 324.169 571.952 326.065 574.819 327.9C577.564 329.656 580.155 331.315 585.447 331.315C590.737 331.315 593.329 329.656 596.073 327.9C598.94 326.065 601.903 324.169 607.779 324.169C613.655 324.169 616.617 326.065 619.484 327.9C622.228 329.656 624.82 331.315 630.11 331.315V333.315Z" fill="white"/>
<path fill-rule="evenodd" clip-rule="evenodd" d="M285.24 480.366L294.873 486.819C294.779 485.676 294.118 483.704 291.413 480.959C288.967 478.474 289.741 473.552 290.23 471.406L286.318 470.499L285.24 480.366ZM295.902 489.916L283.119 481.352L284.575 468.042L292.719 469.929L292.411 470.952C291.887 472.692 290.942 477.629 292.838 479.554C298.485 485.287 296.672 488.664 296.447 489.031L295.902 489.915V489.916ZM322.495 464.077L327.287 471.607L338.48 468.327C337.555 467.765 335.747 467.201 332.334 467.608C329.284 467.968 327.286 463.478 326.411 460.932L322.495 464.077ZM326.408 473.949L319.846 463.639L327.49 457.5L327.894 458.968C328.662 461.762 330.528 465.845 332.098 465.621C339.695 464.716 341.121 468.108 341.258 468.498L341.607 469.493L326.408 473.949ZM302.074 404.88L300.349 403.867L316.995 375.535H291.923L279.61 395.431L277.91 394.378L290.809 373.535H320.49L302.074 404.88ZM235.627 398.434L233.65 398.129C233.951 396.182 241.234 350.364 260.269 344.245C265.655 342.516 269.495 344.212 269.657 344.287L268.828 346.107C268.801 346.097 265.491 344.667 260.882 346.149C243.01 351.893 235.699 397.969 235.627 398.434Z" fill="white"/>
<path fill-rule="evenodd" clip-rule="evenodd" d="M268.314 346.198C267.651 346.198 266.981 346.423 266.291 346.876C261.366 350.109 260.235 355.616 260.224 355.67L260.222 355.683C258.936 361.825 255.688 378.657 253.19 391.695C252.834 393.551 253.453 395.683 254.888 397.541C256.637 399.808 259.321 401.324 261.892 401.496L292.418 402.836L293.209 399.056C280.742 396.443 266.177 393.223 265.202 392.247C264.365 391.411 262.623 389.669 264.661 387.377C265.901 385.634 274.74 356.834 274.415 353.949C274.197 352.011 272.232 347.717 269.676 346.517C269.251 346.311 268.786 346.202 268.314 346.198ZM294.027 404.908L261.781 403.493C258.585 403.279 255.425 401.511 253.305 398.764C251.52 396.452 250.762 393.738 251.226 391.318C253.725 378.276 256.974 361.438 258.263 355.278C258.332 354.93 259.618 348.864 265.194 345.204C266.937 344.059 268.782 343.887 270.526 344.707C273.944 346.312 276.136 351.354 276.403 353.725C276.731 356.645 267.921 386.72 266.157 388.705C265.495 389.449 265.543 389.75 266.55 390.766C268.224 391.61 284.574 395.209 294.597 397.303L295.576 397.507L294.027 404.908Z" fill="white"/>
<path fill-rule="evenodd" clip-rule="evenodd" d="M265.993 343.471C267.36 343.471 268.884 344.003 269.803 344.386L273.169 338.994L268.275 336.737L262.938 343.747C263.926 343.597 265.043 343.471 265.993 343.471ZM270.551 346.966L269.733 346.549C269.712 346.539 267.598 345.471 265.993 345.471C263.94 345.471 260.826 346.165 260.795 346.172L258.118 346.774L267.656 334.248L276.066 338.128L270.551 346.966Z" fill="white"/>
<path fill-rule="evenodd" clip-rule="evenodd" d="M270.282 334.167C273.856 337.148 278.126 340.307 279.088 340.427C279.214 340.457 279.258 340.397 279.283 340.371C279.774 339.896 279.774 337.757 279.773 336.196V336.033C279.773 333.223 278.765 329.023 276.512 325.97L274.992 324.023L270.884 326.846L270.282 334.167ZM279.099 342.427C279.068 342.427 279.037 342.425 279.007 342.424C277.099 342.361 271.093 337.467 268.598 335.366L268.203 335.034L268.969 325.735L275.41 321.308L278.113 324.771C280.641 328.191 281.773 332.891 281.773 336.033V336.195C281.774 338.636 281.774 340.745 280.673 341.809C280.254 342.214 279.711 342.426 279.099 342.426V342.427Z" fill="white"/>
<path fill-rule="evenodd" clip-rule="evenodd" d="M281.12 334.07C279.787 335.404 277.104 336.501 275.008 335.493C274.199 335.104 272.678 333.933 271.746 333.187C271.828 331.121 271.628 329.292 271.431 327.96C270.966 324.821 278.188 323.811 278.688 320.478C279.188 317.145 274.188 315.311 271.39 316.478C268.592 317.645 267.188 320.645 263.688 322.311C260.188 323.978 261.188 327.645 261.521 330.811C261.854 333.978 264.803 340.131 268.688 339.218C268.958 339.155 269.205 339.058 269.431 338.933C270.268 338.471 271.326 338.741 271.96 339.456C273.471 341.161 275.246 343.183 275.954 344.067C277.287 345.73 279.787 345.237 281.12 342.404C282.454 339.57 282.454 332.737 281.12 334.07ZM293.236 471.428L280.627 467.936L280.753 467.066C280.918 465.913 284.833 438.806 286.793 432.893C287.487 430.798 288.649 427.138 290.247 422.016L292.157 422.612C290.555 427.746 289.39 431.416 288.692 433.522C286.979 438.69 283.56 461.695 282.859 466.479L291.915 468.987L302.827 434.781L304.732 435.388L293.236 471.428ZM311.084 415.476L309.179 414.868L310.422 410.97C310.631 410.327 310.683 409.643 310.575 408.976C310.467 408.309 310.201 407.677 309.799 407.133C309.403 406.585 308.882 406.14 308.279 405.834C307.677 405.528 307.01 405.37 306.334 405.373H301.211V403.373H306.334C308.364 403.373 310.215 404.314 311.413 405.954C312.002 406.751 312.393 407.677 312.551 408.655C312.71 409.633 312.634 410.636 312.327 411.578L311.084 415.475" fill="white"/>
<path fill-rule="evenodd" clip-rule="evenodd" d="M297.065 421.189L320.7 462.957L328.012 457.079L306.64 409.884C306.026 408.517 305.042 407.348 303.8 406.51C302.557 405.672 301.106 405.197 299.608 405.139L262.256 403.572L235.441 399.418C235.321 400 235.188 400.575 235.058 401.138C234.086 405.332 233.168 409.295 237.869 415.432C242.535 421.523 281.748 421.667 296.461 421.207L297.065 421.189ZM320.119 465.991L295.919 423.225C288.153 423.447 242.234 424.419 236.282 416.649C231.007 409.763 232.076 405.149 233.11 400.686C233.314 399.804 233.507 398.972 233.653 398.114L233.818 397.144L262.507 401.586L299.692 403.141C303.521 403.301 306.882 405.569 308.462 409.061L330.473 457.667L320.119 465.991Z" fill="white"/>
<path fill-rule="evenodd" clip-rule="evenodd" d="M296.493 422.207C296.493 422.207 251.967 423.595 239.656 417.873H202.777V431.377H301.211V430.547L296.493 422.207ZM294.868 402.923L298.909 403.113C298.47 402.438 296.826 401.005 295.216 400.109L294.868 402.923ZM300.995 405.213L292.618 404.82L293.555 397.253L294.735 397.684C296.82 398.444 300.989 401.355 300.993 403.184L300.995 405.212V405.213Z" fill="white"/>
<path fill-rule="evenodd" clip-rule="evenodd" d="M580.626 184.321L579.383 182.755L589.953 174.365L579.383 165.976L580.626 164.409L593.17 174.365L580.626 184.321ZM567.914 182.755L566.671 184.321L554.128 174.365L566.671 164.409L567.914 165.976L557.345 174.365L567.914 182.755ZM548.777 193.606H598.52V155.126H548.777V193.606Z" fill="white"/>
</svg>
