<svg width="340" height="340" viewBox="0 0 340 340" fill="none" xmlns="http://www.w3.org/2000/svg">
<path fill-rule="evenodd" clip-rule="evenodd" d="M215.672 324.596H59.627V305.044H61.6568V322.566H213.642V285.479H215.672V324.596Z" fill="#1B1A19"/>
<path fill-rule="evenodd" clip-rule="evenodd" d="M215.672 251.859H213.642V206.525H151.731V204.496H215.672V251.859Z" fill="#1B1A19"/>
<path fill-rule="evenodd" clip-rule="evenodd" d="M151.731 223.103H214.657V205.51H151.731V223.103Z" fill="#1B1A19"/>
<path fill-rule="evenodd" clip-rule="evenodd" d="M176.853 41.0836C174.701 41.0836 172.551 40.5974 170.878 39.6261C169.092 38.5889 168.115 37.1487 168.124 35.5725V5.50537H170.154V35.5786C170.149 36.4027 170.769 37.2147 171.898 37.8703C174.579 39.4293 179.125 39.4272 181.824 37.8693C182.95 37.2198 183.598 36.3814 183.603 35.5715V5.50537H185.633V35.5776C185.623 37.1568 184.631 38.593 182.838 39.6282C181.158 40.5984 179.004 41.0836 176.853 41.0836Z" fill="#1B1A19"/>
<path fill-rule="evenodd" clip-rule="evenodd" d="M171.931 3.21542C170.803 3.867 170.155 4.70634 170.154 5.51828C170.153 6.33327 170.773 7.14318 171.899 7.7978C174.577 9.35571 179.124 9.35571 181.824 7.79577C182.954 7.14419 183.602 6.30383 183.603 5.49088C183.605 4.67589 182.986 3.86598 181.861 3.21237C179.179 1.65446 174.633 1.65548 171.931 3.21542ZM176.852 11.01C174.7 11.01 172.551 10.5249 170.878 9.5526C169.099 8.51941 168.122 7.08532 168.124 5.51523C168.126 3.93702 169.119 2.49583 170.916 1.45654C174.282 -0.485007 179.536 -0.486022 182.879 1.45654C184.657 2.48974 185.636 3.92383 185.633 5.49392C185.63 7.07314 184.639 8.51535 182.838 9.55464C181.158 10.5249 179.003 11.01 176.852 11.01Z" fill="#1B1A19"/>
<path fill-rule="evenodd" clip-rule="evenodd" d="M171.388 8.676C172.785 9.48692 174.589 9.91725 176.424 9.97612V40.0494C174.589 39.9905 172.785 39.5602 171.388 38.7482C169.881 37.8724 169.133 36.7255 169.139 35.5786V5.50537C169.133 6.65224 169.881 7.7991 171.388 8.676Z" fill="#1B1A19"/>
<path fill-rule="evenodd" clip-rule="evenodd" d="M19.2836 21.5562C9.76973 21.5562 2.0299 29.296 2.0299 38.8099V286.452C2.0299 295.966 9.76973 303.705 19.2836 303.705H133.463C142.977 303.705 150.716 295.966 150.716 286.452V38.8099C150.716 29.296 142.977 21.5562 133.463 21.5562H19.2836ZM133.463 305.735H19.2836C8.65021 305.735 0 297.085 0 286.452V38.81C0 28.1766 8.65021 19.5264 19.2836 19.5264H133.463C144.096 19.5264 152.746 28.1766 152.746 38.81V286.452C152.746 297.085 144.096 305.735 133.463 305.735Z" fill="#1B1A19"/>
<path fill-rule="evenodd" clip-rule="evenodd" d="M46.7705 284.59H107.666V282.561H46.7705V284.59Z" fill="#1B1A19"/>
<path fill-rule="evenodd" clip-rule="evenodd" d="M22.7091 29.5062C16.0634 29.5062 10.6569 34.9137 10.6569 41.5584V283.702C10.6569 290.348 16.0634 295.755 22.7091 295.755H130.037C136.683 295.755 142.09 290.348 142.09 283.702V41.5584C142.09 34.9137 136.683 29.5062 130.037 29.5062H107.27C106.765 33.8338 103.078 37.2024 98.6174 37.2024H54.1292C49.6686 37.2024 45.9813 33.8338 45.4769 29.5062H22.7091ZM130.037 297.784H22.709C14.9449 297.784 8.62695 291.468 8.62695 283.702V41.5584C8.62695 33.7942 14.9449 27.4763 22.709 27.4763H47.4478V28.4912C47.4478 32.1754 50.4449 35.1725 54.1291 35.1725H98.6173C102.302 35.1725 105.299 32.1754 105.299 28.4912V27.4763H130.037C137.802 27.4763 144.119 33.7942 144.119 41.5584V283.702C144.119 291.468 137.802 297.784 130.037 297.784Z" fill="#1B1A19"/>
<path fill-rule="evenodd" clip-rule="evenodd" d="M45.418 338.6H60.6419V323.376H45.418V338.6Z" fill="#1B1A19"/>
<path fill-rule="evenodd" clip-rule="evenodd" d="M199.095 283.999H230.219V252.874H199.095V283.999ZM197.065 286.029H232.249V250.844H197.065V286.029Z" fill="#1B1A19"/>
<path fill-rule="evenodd" clip-rule="evenodd" d="M220.916 268.436C220.916 271.893 218.112 274.695 214.657 274.695C211.201 274.695 208.397 271.893 208.397 268.436C208.397 264.98 211.201 262.178 214.657 262.178C218.112 262.178 220.916 264.98 220.916 268.436Z" fill="#1B1A19"/>
<path fill-rule="evenodd" clip-rule="evenodd" d="M193.682 338.128H231.234V336.098H193.682V338.128Z" fill="#1B1A19"/>
<path fill-rule="evenodd" clip-rule="evenodd" d="M97.8206 159.087L88.0123 168.895L78.2041 159.087L88.0123 149.278L97.8206 159.087Z" fill="#1B1A19"/>
<path fill-rule="evenodd" clip-rule="evenodd" d="M79.6387 159.086L88.0119 167.46L96.385 159.086L88.0119 150.713L79.6387 159.086ZM88.0119 170.33L76.7686 159.086L88.0119 147.843L99.2552 159.086L88.0119 170.33Z" fill="#1B1A19"/>
<path fill-rule="evenodd" clip-rule="evenodd" d="M36.4766 108.567L42.4576 114.547L48.4386 108.567L42.4576 102.586L36.4766 108.567ZM42.4576 117.418L33.6064 108.566L42.4576 99.7153L51.3088 108.566L42.4576 117.418Z" fill="#1B1A19"/>
<path fill-rule="evenodd" clip-rule="evenodd" d="M108.551 129.557L114.532 135.537L120.512 129.557L114.532 123.577L108.551 129.557ZM114.532 138.408L105.681 129.557L114.532 120.705L123.382 129.557L114.532 138.408Z" fill="#1B1A19"/>
<path fill-rule="evenodd" clip-rule="evenodd" d="M33.2667 209.232L39.2476 215.213L45.2286 209.232L39.2476 203.251L33.2667 209.232ZM39.2476 218.083L30.3965 209.232L39.2476 200.381L48.0988 209.232L39.2476 218.083Z" fill="#1B1A19"/>
<path fill-rule="evenodd" clip-rule="evenodd" d="M114.391 192.569L120.372 198.55L126.352 192.569L120.372 186.588L114.391 192.569ZM120.372 201.42L111.521 192.569L120.372 183.718L129.222 192.569L120.372 201.42Z" fill="#1B1A19"/>
<path fill-rule="evenodd" clip-rule="evenodd" d="M84.9023 152.448L45.7871 113.33L47.2222 111.895L86.3374 151.013L84.9023 152.448Z" fill="#1B1A19"/>
<path fill-rule="evenodd" clip-rule="evenodd" d="M93.0708 154.338L91.6357 152.903L111.049 133.49L112.484 134.925L93.0708 154.338Z" fill="#1B1A19"/>
<path fill-rule="evenodd" clip-rule="evenodd" d="M115.974 189.605L91.5801 165.212L93.0152 163.777L117.409 188.17L115.974 189.605Z" fill="#1B1A19"/>
<path fill-rule="evenodd" clip-rule="evenodd" d="M43.6724 206.242L42.2373 204.807L83.081 163.963L84.5161 165.398L43.6724 206.242Z" fill="#1B1A19"/>
<path fill-rule="evenodd" clip-rule="evenodd" d="M110.783 125.888L89.4668 104.572L90.9019 103.137L112.218 124.453L110.783 125.888Z" fill="#1B1A19"/>
<path fill-rule="evenodd" clip-rule="evenodd" d="M118.981 125.208L117.546 123.773L123.973 117.346L125.409 118.781L118.981 125.208Z" fill="#1B1A19"/>
<path fill-rule="evenodd" clip-rule="evenodd" d="M87.2945 258.715L42.998 214.418L44.4332 212.983L88.7296 257.28L87.2945 258.715Z" fill="#1B1A19"/>
<path fill-rule="evenodd" clip-rule="evenodd" d="M105.956 209.617L104.521 208.182L116.544 196.158L117.979 197.593L105.956 209.617Z" fill="#1B1A19"/>
<path fill-rule="evenodd" clip-rule="evenodd" d="M127.949 201.751L123.277 197.079L124.712 195.644L129.384 200.316L127.949 201.751Z" fill="#1B1A19"/>
<path fill-rule="evenodd" clip-rule="evenodd" d="M28.7964 221.118L27.3613 219.683L35.3772 211.667L36.8123 213.102L28.7964 221.118Z" fill="#1B1A19"/>
<path fill-rule="evenodd" clip-rule="evenodd" d="M32.3736 121.22L30.9385 119.785L38.5991 112.124L40.0342 113.559L32.3736 121.22Z" fill="#1B1A19"/>
<path fill-rule="evenodd" clip-rule="evenodd" d="M38.7103 104.899L27.0488 93.2383L28.4839 91.8032L40.1454 103.464L38.7103 104.899Z" fill="#1B1A19"/>
<path fill-rule="evenodd" clip-rule="evenodd" d="M49.191 107.885L47.7559 106.45L88.1134 66.092L89.5485 67.5271L49.191 107.885Z" fill="#1B1A19"/>
<path fill-rule="evenodd" clip-rule="evenodd" d="M33.5539 121.991L30.1681 125.377L26.7812 121.991L30.1681 118.605L33.5539 121.991Z" fill="#1B1A19"/>
<path fill-rule="evenodd" clip-rule="evenodd" d="M92.169 66.762L88.7832 70.1478L85.3975 66.762L88.7832 63.3762L92.169 66.762Z" fill="#1B1A19"/>
<path fill-rule="evenodd" clip-rule="evenodd" d="M91.9161 102.199L88.5304 105.585L85.1436 102.199L88.5304 98.812L91.9161 102.199Z" fill="#1B1A19"/>
<path fill-rule="evenodd" clip-rule="evenodd" d="M129.687 116.286L126.3 119.672L122.914 116.286L126.3 112.9L129.687 116.286Z" fill="#1B1A19"/>
<path fill-rule="evenodd" clip-rule="evenodd" d="M134.966 181.36L131.58 184.747L128.194 181.36L131.58 177.974L134.966 181.36Z" fill="#1B1A19"/>
<path fill-rule="evenodd" clip-rule="evenodd" d="M107.317 210.208L103.931 213.594L100.544 210.208L103.931 206.822L107.317 210.208Z" fill="#1B1A19"/>
<path fill-rule="evenodd" clip-rule="evenodd" d="M91.3986 257.997L88.0118 261.383L84.626 257.997L88.0118 254.611L91.3986 257.997Z" fill="#1B1A19"/>
<path fill-rule="evenodd" clip-rule="evenodd" d="M30.2072 221.659L26.8204 225.046L23.4346 221.659L26.8204 218.273L30.2072 221.659Z" fill="#1B1A19"/>
<path fill-rule="evenodd" clip-rule="evenodd" d="M133.663 202.809L130.277 206.195L126.891 202.809L130.277 199.423L133.663 202.809Z" fill="#1B1A19"/>
<path fill-rule="evenodd" clip-rule="evenodd" d="M29.4561 90.824L26.0714 94.2108L22.6846 90.824L26.0714 87.4382L29.4561 90.824Z" fill="#1B1A19"/>
<path fill-rule="evenodd" clip-rule="evenodd" d="M124.846 189.628L123.411 188.193L131.189 180.414L132.624 181.85L124.846 189.628Z" fill="#1B1A19"/>
<path fill-rule="evenodd" clip-rule="evenodd" d="M252.989 155.93C250.896 158.051 247.986 159.271 245.005 159.277L214.978 159.327L214.421 145.168L239.895 144.455C241.847 144.4 243.663 143.489 244.875 141.956L268.386 112.225C269.92 110.285 272.121 109.072 274.581 108.809C277.038 108.545 279.446 109.27 281.356 110.843C283.632 112.72 285.023 115.485 285.175 118.43C285.327 121.376 284.226 124.27 282.154 126.37L276.029 132.578L269.035 139.634L257.611 151.226L256.226 152.631L256.235 152.641L252.989 155.93ZM207.637 145.358L212.392 145.225L212.947 159.331L207.661 159.339L207.637 145.358ZM261.04 70.9354C263.813 71.253 265.481 74.3973 268.743 76.6261C272.004 78.8538 274.419 76.1927 275.943 79.8393C277.099 82.605 273.056 83.9031 273.146 86.5236C273.223 88.7808 277.52 90.9923 280.854 90.9517L282.365 96.1542C281.104 96.1755 279.804 96.3024 278.489 96.5328C276.439 96.8921 274.461 97.5792 272.592 98.5809C272.386 97.8694 272.156 97.024 271.937 96.1085L271.588 94.643L270.361 95.5179C269.965 95.8 269.584 96.1025 269.21 96.4008C267.457 97.7943 266.374 98.5484 264.515 97.7852C261.847 96.6942 260.608 89.75 259.671 82.4152L258.412 71.9838C259.063 71.2957 259.92 70.8075 261.04 70.9354ZM270.666 105.858L270.287 103.939C271.523 102.755 274.536 100.315 279.013 99.5319C280.304 99.3056 281.57 99.1919 282.773 99.1919C285.041 99.1919 286.641 99.5999 287.486 99.8861L287.983 101.532C287.076 101.423 286.025 101.345 284.87 101.345C281.072 101.345 275.771 102.19 270.666 105.858ZM298.115 111.572C303.19 118.676 314.88 145.59 314.88 145.59L298.093 162.377C298.653 157.678 299.72 146.388 297.684 141.864C295.963 138.042 292.957 137.012 290.306 136.104C288.675 135.545 286.989 134.967 285.407 133.737C284.151 132.76 283.221 131.526 282.564 129.967L282.233 129.18L283.6 127.795C286.07 125.291 287.383 121.839 287.202 118.326C287.022 114.813 285.361 111.515 282.646 109.277C280.312 107.354 277.368 106.475 274.366 106.791C273.642 106.869 272.938 107.016 272.258 107.224C276.735 104.154 281.35 103.374 284.87 103.374C288.457 103.374 290.904 104.179 290.904 104.179C291.93 104.685 294.372 106.332 298.115 111.572ZM259.067 152.66L277.426 134.052L280.694 130.754C281.465 132.587 282.594 134.12 284.16 135.338C288.727 138.891 293.548 137.622 295.831 142.697C298.115 147.771 295.831 164.046 295.831 164.046L282.928 177.542L259.067 152.66ZM205.606 156.851H201.394L194.201 157.999C193.685 158.081 193.164 158.096 192.647 158.037L180.626 156.707C180.227 156.601 179.87 156.309 179.612 155.881L178.424 153.897C177.966 153.133 177.93 152.074 178.332 151.261L179.558 148.792C179.855 148.19 180.352 147.805 180.886 147.761L194.861 146.612L191.364 142.634C191.142 142.381 190.957 142.081 190.819 141.749L194.435 143.459L198.629 146.064C198.901 146.28 199.144 146.547 199.353 146.859L200.901 148.511L205.606 148.286V156.851ZM168.544 154.157V153.269H176.085C176.179 153.86 176.378 154.432 176.683 154.941L177.872 156.923C177.904 156.979 177.948 157.022 177.982 157.075H171.462C169.853 157.075 168.544 155.766 168.544 154.157ZM171.462 142.527H188.953C189.176 143.06 189.468 143.551 189.839 143.973L190.67 144.92L180.72 145.737C179.469 145.841 178.355 146.646 177.739 147.891L176.515 150.359C176.375 150.639 176.275 150.937 176.195 151.239H168.544V145.445C168.544 143.836 169.853 142.527 171.462 142.527ZM338.527 124.208L285.993 71.6732C285.65 73.835 285.793 76.9569 286.052 78.1809C287.31 84.1243 287.451 90.6117 283.154 92.2569L282.853 90.5559C285.72 89.1513 285.714 83.2484 284.189 76.0496C282.606 68.5736 288.617 65.7664 280.317 59.8108C276.858 57.3303 264.272 57.0685 262.1 61.12C260.6 63.9192 258.115 59.3013 252.712 59.3439C247.309 59.3876 248.701 71.9909 256.711 75.3127C256.711 75.3127 256.725 75.2508 256.751 75.1595L257.655 82.6649C258.14 86.4536 258.652 89.6516 259.296 92.2387L227.327 124.208L243.519 140.4L243.284 140.697C242.445 141.758 241.189 142.387 239.838 142.426L205.604 143.385L205.609 146.254L201.733 146.44L200.989 145.656C200.659 145.178 200.269 144.764 199.831 144.426L195.457 141.704L190.676 139.436C190.182 139.204 189.629 139.262 189.191 139.588C188.892 139.812 188.7 140.137 188.611 140.497H171.461C168.733 140.497 166.514 142.717 166.514 145.445V154.157C166.514 156.885 168.733 159.105 171.461 159.105H182.687V158.972L192.424 160.055C192.709 160.086 192.994 160.102 193.28 160.102C193.696 160.102 194.113 160.069 194.524 160.002L201.475 158.881H205.631L205.635 161.372L245.009 161.306C248.527 161.3 251.962 159.86 254.434 157.356L257.434 154.316L267.332 164.213L281.461 178.948L282.93 180.477L297.3 165.448L297.579 165.155L338.527 124.208Z" fill="#1B1A19"/>
</svg>