<svg width="800" height="600" viewBox="0 0 800 600" fill="none" xmlns="http://www.w3.org/2000/svg">
<path fill-rule="evenodd" clip-rule="evenodd" d="M353.773 599.73H88.077V596.644H353.773V599.73Z" fill="#1B1A19"/>
<path fill-rule="evenodd" clip-rule="evenodd" d="M534.829 542.029H213.847V8.08637H534.829V542.029ZM537.915 545.115H210.761V5H537.915V545.115Z" fill="#1B1A19"/>
<path fill-rule="evenodd" clip-rule="evenodd" d="M762.578 331.642H716.282V163.948H762.578V331.642Z" fill="#1B1A19"/>
<path fill-rule="evenodd" clip-rule="evenodd" d="M647.353 371.249H717.825V124.339H647.353V127.425H714.739V368.162H647.353V371.249Z" fill="#1B1A19"/>
<path fill-rule="evenodd" clip-rule="evenodd" d="M645.81 163.948H648.896V90.3884H536.372V93.4759H645.81V163.948Z" fill="#1B1A19"/>
<path fill-rule="evenodd" clip-rule="evenodd" d="M536.372 405.199H648.896V275.488H645.81V402.113H536.372V405.199Z" fill="#1B1A19"/>
<path fill-rule="evenodd" clip-rule="evenodd" d="M536.372 342.958C568.475 342.958 594.499 368.984 594.499 401.085C594.499 433.188 568.475 459.21 536.372 459.21V342.958Z" fill="#1B1A19"/>
<path fill-rule="evenodd" clip-rule="evenodd" d="M800 401.47H769.136V370.607H800V401.47Z" fill="#1B1A19"/>
<path fill-rule="evenodd" clip-rule="evenodd" d="M699.049 68.7843C707.7 68.7843 714.739 75.823 714.739 84.4738C714.739 93.126 707.7 100.163 699.049 100.163C690.399 100.163 683.36 93.126 683.36 84.4738C683.36 75.823 690.399 68.7843 699.049 68.7843ZM699.049 103.249C709.402 103.249 717.825 94.8277 717.825 84.4738C717.825 74.1213 709.402 65.6982 699.049 65.6982C688.696 65.6982 680.274 74.1213 680.274 84.4738C680.274 94.8277 688.696 103.249 699.049 103.249Z" fill="#1B1A19"/>
<path fill-rule="evenodd" clip-rule="evenodd" d="M663.676 189.657C663.676 192.109 665.664 194.097 668.117 194.097C670.569 194.097 672.557 192.109 672.557 189.657C672.557 187.206 670.569 185.217 668.117 185.217C665.664 185.217 663.676 187.206 663.676 189.657Z" fill="#1B1A19"/>
<path fill-rule="evenodd" clip-rule="evenodd" d="M643.275 189.657C643.275 192.109 645.264 194.097 647.715 194.097C650.17 194.097 652.157 192.109 652.157 189.657C652.157 187.206 650.17 185.217 647.715 185.217C645.264 185.217 643.275 187.206 643.275 189.657Z" fill="#1B1A19"/>
<path fill-rule="evenodd" clip-rule="evenodd" d="M622.873 189.657C622.873 192.109 624.862 194.097 627.314 194.097C629.767 194.097 631.756 192.109 631.756 189.657C631.756 187.206 629.767 185.217 627.314 185.217C624.862 185.217 622.873 187.206 622.873 189.657Z" fill="#1B1A19"/>
<path fill-rule="evenodd" clip-rule="evenodd" d="M606.914 186.76C608.511 186.76 609.811 188.059 609.811 189.658C609.811 191.255 608.511 192.554 606.914 192.554C605.315 192.554 604.015 191.255 604.015 189.658C604.015 188.059 605.315 186.76 606.914 186.76ZM606.914 195.64C610.213 195.64 612.898 192.957 612.898 189.658C612.898 186.357 610.213 183.673 606.914 183.673C603.614 183.673 600.929 186.357 600.929 189.658C600.929 192.957 603.614 195.64 606.914 195.64Z" fill="#1B1A19"/>
<path fill-rule="evenodd" clip-rule="evenodd" d="M668.117 207.658C669.715 207.658 671.014 208.957 671.014 210.555C671.014 212.154 669.715 213.453 668.117 213.453C666.519 213.453 665.22 212.154 665.22 210.555C665.22 208.957 666.519 207.658 668.117 207.658ZM668.117 216.541C671.417 216.541 674.1 213.857 674.1 210.555C674.1 207.257 671.417 204.572 668.117 204.572C664.816 204.572 662.133 207.257 662.133 210.555C662.133 213.857 664.816 216.541 668.117 216.541Z" fill="#1B1A19"/>
<path fill-rule="evenodd" clip-rule="evenodd" d="M647.715 207.658C649.314 207.658 650.613 208.957 650.613 210.555C650.613 212.154 649.314 213.453 647.715 213.453C646.118 213.453 644.818 212.154 644.818 210.555C644.818 208.957 646.118 207.658 647.715 207.658ZM647.715 216.541C651.014 216.541 653.7 213.857 653.7 210.555C653.7 207.257 651.014 204.572 647.715 204.572C644.416 204.572 641.732 207.257 641.732 210.555C641.732 213.857 644.416 216.541 647.715 216.541Z" fill="#1B1A19"/>
<path fill-rule="evenodd" clip-rule="evenodd" d="M622.873 210.555C622.873 213.008 624.862 214.997 627.314 214.997C629.767 214.997 631.756 213.008 631.756 210.555C631.756 208.104 629.767 206.115 627.314 206.115C624.862 206.115 622.873 208.104 622.873 210.555Z" fill="#1B1A19"/>
<path fill-rule="evenodd" clip-rule="evenodd" d="M602.472 210.555C602.472 213.008 604.46 214.997 606.914 214.997C609.365 214.997 611.355 213.008 611.355 210.555C611.355 208.104 609.365 206.115 606.914 206.115C604.46 206.115 602.472 208.104 602.472 210.555Z" fill="#1B1A19"/>
<path fill-rule="evenodd" clip-rule="evenodd" d="M663.676 231.453C663.676 233.907 665.664 235.895 668.117 235.895C670.569 235.895 672.557 233.907 672.557 231.453C672.557 229.001 670.569 227.014 668.117 227.014C665.664 227.014 663.676 229.001 663.676 231.453Z" fill="#1B1A19"/>
<path fill-rule="evenodd" clip-rule="evenodd" d="M647.715 228.557C649.314 228.557 650.613 229.856 650.613 231.453C650.613 233.051 649.314 234.352 647.715 234.352C646.118 234.352 644.818 233.051 644.818 231.453C644.818 229.856 646.118 228.557 647.715 228.557ZM647.715 237.438C651.014 237.438 653.7 234.755 653.7 231.453C653.7 228.154 651.014 225.47 647.715 225.47C644.416 225.47 641.732 228.154 641.732 231.453C641.732 234.755 644.416 237.438 647.715 237.438Z" fill="#1B1A19"/>
<path fill-rule="evenodd" clip-rule="evenodd" d="M622.873 231.453C622.873 233.907 624.862 235.895 627.314 235.895C629.767 235.895 631.756 233.907 631.756 231.453C631.756 229.001 629.767 227.014 627.314 227.014C624.862 227.014 622.873 229.001 622.873 231.453Z" fill="#1B1A19"/>
<path fill-rule="evenodd" clip-rule="evenodd" d="M606.914 228.557C608.511 228.557 609.811 229.856 609.811 231.453C609.811 233.051 608.511 234.352 606.914 234.352C605.315 234.352 604.015 233.051 604.015 231.453C604.015 229.856 605.315 228.557 606.914 228.557ZM606.914 237.438C610.213 237.438 612.898 234.755 612.898 231.453C612.898 228.154 610.213 225.47 606.914 225.47C603.614 225.47 600.929 228.154 600.929 231.453C600.929 234.755 603.614 237.438 606.914 237.438Z" fill="#1B1A19"/>
<path fill-rule="evenodd" clip-rule="evenodd" d="M668.117 249.454C669.715 249.454 671.014 250.753 671.014 252.353C671.014 253.952 669.715 255.251 668.117 255.251C666.519 255.251 665.22 253.952 665.22 252.353C665.22 250.753 666.519 249.454 668.117 249.454ZM668.117 258.337C671.417 258.337 674.1 255.654 674.1 252.353C674.1 249.053 671.417 246.368 668.117 246.368C664.816 246.368 662.133 249.053 662.133 252.353C662.133 255.654 664.816 258.337 668.117 258.337Z" fill="#1B1A19"/>
<path fill-rule="evenodd" clip-rule="evenodd" d="M647.715 249.454C649.314 249.454 650.613 250.753 650.613 252.353C650.613 253.952 649.314 255.251 647.715 255.251C646.118 255.251 644.818 253.952 644.818 252.353C644.818 250.753 646.118 249.454 647.715 249.454ZM647.715 258.337C651.014 258.337 653.7 255.654 653.7 252.353C653.7 249.053 651.014 246.368 647.715 246.368C644.416 246.368 641.732 249.053 641.732 252.353C641.732 255.654 644.416 258.337 647.715 258.337Z" fill="#1B1A19"/>
<path fill-rule="evenodd" clip-rule="evenodd" d="M627.314 249.454C628.913 249.454 630.213 250.753 630.213 252.353C630.213 253.952 628.913 255.251 627.314 255.251C625.715 255.251 624.416 253.952 624.416 252.353C624.416 250.753 625.715 249.454 627.314 249.454ZM627.314 258.337C630.614 258.337 633.299 255.654 633.299 252.353C633.299 249.053 630.614 246.368 627.314 246.368C624.015 246.368 621.33 249.053 621.33 252.353C621.33 255.654 624.015 258.337 627.314 258.337Z" fill="#1B1A19"/>
<path fill-rule="evenodd" clip-rule="evenodd" d="M602.472 252.353C602.472 254.805 604.46 256.794 606.914 256.794C609.365 256.794 611.355 254.805 611.355 252.353C611.355 249.9 609.365 247.911 606.914 247.911C604.46 247.911 602.472 249.9 602.472 252.353Z" fill="#1B1A19"/>
<path fill-rule="evenodd" clip-rule="evenodd" d="M451.063 235.128H310.633V135.304H451.063V235.128ZM447.976 232.042H313.719V138.39H447.976V232.042Z" fill="#1B1A19"/>
<path fill-rule="evenodd" clip-rule="evenodd" d="M481.927 384.495H280.541V235.16H481.927V384.495ZM485.013 387.582H277.454V232.074H485.013V387.582Z" fill="#1B1A19"/>
<path fill-rule="evenodd" clip-rule="evenodd" d="M426.328 341.621H335.365V277.031H426.328V341.621ZM429.414 344.707H332.279V273.945H429.414V344.707Z" fill="#1B1A19"/>
<path fill-rule="evenodd" clip-rule="evenodd" d="M380.077 212.867L608.161 212.665L608.159 209.579L380.075 209.781L380.077 212.867Z" fill="#1B1A19"/>
<path fill-rule="evenodd" clip-rule="evenodd" d="M285.749 216.193H253.342V370.284L278.225 387.711V233.617H312.176V135.304H451.063L426.179 117.879H285.749V216.193Z" fill="#1B1A19"/>
<path fill-rule="evenodd" clip-rule="evenodd" d="M374.914 211.225C374.914 214.501 377.572 217.158 380.847 217.158C384.123 217.158 386.78 214.501 386.78 211.225C386.78 207.949 384.123 205.292 380.847 205.292C377.572 205.292 374.914 207.949 374.914 211.225Z" fill="#1B1A19"/>
<path fill-rule="evenodd" clip-rule="evenodd" d="M152.553 183.672H125.129V156.247H152.553V183.672ZM155.639 186.76H122.043V153.161H155.639V186.76Z" fill="#1B1A19"/>
<path fill-rule="evenodd" clip-rule="evenodd" d="M122.043 183.672H94.617V156.247H122.043V183.672ZM125.13 186.76H91.531V153.161H125.13V186.76Z" fill="#1B1A19"/>
<path fill-rule="evenodd" clip-rule="evenodd" d="M93.074 185.216H62.564V154.704H93.074V185.216Z" fill="#1B1A19"/>
<path fill-rule="evenodd" clip-rule="evenodd" d="M91.531 183.672H64.107V156.247H91.531V183.672ZM94.617 186.76H61.021V153.161H94.617V186.76Z" fill="#1B1A19"/>
<path fill-rule="evenodd" clip-rule="evenodd" d="M61.021 183.672H33.597V156.247H61.021V183.672ZM64.107 186.76H30.51V153.161H64.107V186.76Z" fill="#1B1A19"/>
<path fill-rule="evenodd" clip-rule="evenodd" d="M152.553 214.184H125.129V186.76H152.553V214.184ZM155.639 217.27H122.043V183.673H155.639V217.27Z" fill="#1B1A19"/>
<path fill-rule="evenodd" clip-rule="evenodd" d="M122.043 214.184H94.617V186.76H122.043V214.184ZM125.13 217.27H91.531V183.673H125.13V217.27Z" fill="#1B1A19"/>
<path fill-rule="evenodd" clip-rule="evenodd" d="M91.531 214.184H64.107V186.76H91.531V214.184ZM94.617 217.27H61.021V183.673H94.617V217.27Z" fill="#1B1A19"/>
<path fill-rule="evenodd" clip-rule="evenodd" d="M61.021 214.184H33.597V186.76H61.021V214.184ZM64.107 217.27H30.51V183.673H64.107V217.27Z" fill="#1B1A19"/>
<path fill-rule="evenodd" clip-rule="evenodd" d="M30.51 183.672H3.086V156.247H30.51V183.672ZM33.597 186.76H0V153.161H33.597V186.76Z" fill="#1B1A19"/>
<path fill-rule="evenodd" clip-rule="evenodd" d="M32.053 215.727H1.54303V185.217H32.053V215.727Z" fill="#1B1A19"/>
<path fill-rule="evenodd" clip-rule="evenodd" d="M30.51 214.184H3.086V186.76H30.51V214.184ZM33.597 217.27H0V183.673H33.597V217.27Z" fill="#1B1A19"/>
<path fill-rule="evenodd" clip-rule="evenodd" d="M111.574 584.318H99.277C97.585 574.841 87.003 515.515 85.407 504.421C84.221 496.166 77.091 473.881 71.885 457.609C69.543 450.295 67.524 443.978 67.246 442.593C66.697 439.849 66.692 437.582 66.75 436.379L98.984 425.48C99.94 432.654 102.522 454.138 105.026 474.985C108.156 501.015 111.109 525.604 111.574 528.158C112.256 531.9 111.825 568.592 111.574 584.318ZM96.694 587.404H114.609L114.636 585.886C114.671 583.712 115.513 532.565 114.609 527.606C114.161 525.141 111.075 499.457 108.091 474.618C105.178 450.387 102.428 427.499 101.784 423.193L101.509 421.369L63.894 434.088L63.764 435.033C63.744 435.175 63.294 438.57 64.22 443.198C64.53 444.755 66.382 450.54 68.945 458.551C73.826 473.806 81.203 496.862 82.352 504.862C84.087 516.916 96.343 585.442 96.466 586.131L96.694 587.404Z" fill="#1B1A19"/>
<path fill-rule="evenodd" clip-rule="evenodd" d="M78.502 437.819C87.86 437.819 105.756 431.353 106.538 431.068L107.791 430.612L107.521 429.305C107.456 428.993 101.009 397.78 95.128 368.684L92.102 369.297C97.298 395.001 102.938 422.359 104.227 428.61C99.818 430.139 84.978 435.113 77.76 434.714C68.968 434.276 55.357 432.676 52.187 431.873C50.647 426.041 50.941 377.693 52.651 367.01C54.067 358.158 65.361 333.563 70.791 321.745C71.642 319.888 72.354 318.338 72.867 317.199L82.476 319.9C82.835 322.183 83.624 326.471 84.824 332.691L87.854 332.107C86.457 324.86 85.626 320.276 85.385 318.481L85.249 317.477L71.117 313.5L70.582 314.74C70.115 315.82 69.193 317.829 67.985 320.456C62.5 332.401 51.086 357.254 49.603 366.523C48.633 372.573 48.14 390.074 48.091 403.774C47.981 433.562 49.406 434.132 50.553 434.591C53.233 435.665 69.616 437.399 77.607 437.797C77.894 437.811 78.195 437.819 78.502 437.819Z" fill="#1B1A19"/>
<path fill-rule="evenodd" clip-rule="evenodd" d="M48.105 595.525H32.77L21.957 591.977L27.139 581.389L32.799 583.138C31.421 586.144 31.124 587.769 31.648 589.03C31.951 589.767 32.532 590.296 33.321 590.561C33.881 590.745 34.839 590.909 36.627 591.205C39.577 591.691 44.514 592.508 46.26 593.614C46.934 594.041 47.576 594.777 48.105 595.525ZM32.275 598.611H53.172L52.189 596.433C52.015 596.045 50.404 592.585 47.913 591.008C45.81 589.674 41.614 588.899 37.13 588.159C36.079 587.986 34.994 587.805 34.488 587.683C34.499 587.224 34.781 586.014 36.346 582.883L37.159 581.255L25.526 577.66L17.626 593.803L32.275 598.611Z" fill="#1B1A19"/>
<path fill-rule="evenodd" clip-rule="evenodd" d="M125.142 596.554H97.92L101.352 588.172L106.605 588.098C106.389 588.917 106.401 589.617 106.74 590.237C107.31 591.281 108.423 591.4 109.089 591.471C109.356 591.5 109.61 591.527 109.791 591.59C110.363 591.78 111.513 591.979 113.669 592.344C116.583 592.84 122.647 593.869 123.759 594.702C124.369 595.16 124.822 595.871 125.142 596.554ZM93.319 599.64H129.077L128.777 597.845C128.715 597.467 128.091 594.094 125.61 592.235C124.026 591.046 119.69 590.238 114.187 589.301C112.759 589.058 111.14 588.784 110.769 588.66C110.401 588.538 110.048 588.478 109.737 588.44C109.845 588.154 110.02 587.757 110.29 587.214L111.425 584.946L99.271 585.111L93.319 599.64Z" fill="#1B1A19"/>
<path fill-rule="evenodd" clip-rule="evenodd" d="M84.248 307.64C84.004 307.64 83.771 307.66 83.549 307.705C82.641 307.889 80.62 308.298 81.905 316.534L73.407 314.143L71.17 295.603L77.582 283.491L85.26 281.268L88.841 293.175C89.417 295.14 90.023 296.976 90.579 298.665C91.996 302.959 93.333 307.015 92.186 308.093C91.182 309.038 88.854 308.508 86.983 308.083C85.962 307.849 85.045 307.64 84.248 307.64ZM85.855 320.852L85.37 318.386C84.759 315.302 84.464 312.033 84.647 310.756C85.113 310.821 85.772 310.971 86.298 311.091C88.744 311.648 92.092 312.41 94.298 310.344C96.881 307.918 95.467 303.633 93.509 297.7C92.963 296.039 92.367 294.232 91.802 292.303L91.799 292.291L87.336 277.456L75.467 280.89L67.989 295.012L70.59 316.558L85.855 320.852Z" fill="#1B1A19"/>
<path fill-rule="evenodd" clip-rule="evenodd" d="M89.288 285.426C95.687 279.362 91.923 269.713 86.686 271.727C81.448 273.743 81.608 278.537 79.032 276.562C75.296 273.702 68.134 275.19 67.652 279.362C67.003 284.946 56.591 291.321 58.081 298.72C59.593 306.231 67.112 309.619 70.738 309.217C74.363 308.813 78.911 304.284 77.94 301.865C76.967 299.449 72.54 299.804 72.54 296.851C72.54 292.956 75.946 294.459 78.197 291.191C80.447 287.926 80.788 284.434 83.341 283.089C86.32 281.522 89.288 285.426 89.288 285.426Z" fill="#1B1A19"/>
<path fill-rule="evenodd" clip-rule="evenodd" d="M181.464 350.919C182.035 354.532 179.238 360.005 175.978 362.115C174.083 363.342 169.047 364.233 166.427 364.592L164.458 362.066C167.062 361.246 169.562 360.061 170.054 358.456C170.29 357.689 170.251 356.717 170.199 355.486C170.127 353.736 170.018 351.094 171.123 350.549C171.498 350.913 171.989 352.26 172.208 352.856C172.593 353.922 172.9 354.763 173.509 355.27C175.791 357.164 178.529 354.153 180.944 351.49C181.105 351.311 181.284 351.114 181.464 350.919ZM165.067 367.867L165.928 367.766C166.8 367.666 174.536 366.725 177.654 364.707C182.796 361.378 186.549 352.503 183.489 347.636L183.081 346.988L182.199 346.846C181.089 346.768 180.321 347.583 178.658 349.416C177.852 350.305 176.294 352.021 175.398 352.577C175.302 352.334 175.196 352.044 175.106 351.803C174.537 350.234 173.829 348.283 172.22 347.635C171.677 347.418 170.811 347.265 169.764 347.777C166.849 349.206 167.009 353.061 167.116 355.613C167.144 356.314 167.184 357.274 167.104 357.549C166.742 357.986 164.02 359.072 161.459 359.693L159.138 360.257L165.067 367.867Z" fill="#1B1A19"/>
<path fill-rule="evenodd" clip-rule="evenodd" d="M163.371 365.69C151.667 371.457 125.407 383.925 120.182 384.238C115.487 383.99 74.721 354.181 70.792 349.203C69.296 347.31 66.308 337.866 70.671 333.503C75.38 328.794 82.971 331.245 88.037 336.098C88.645 336.681 90.504 338.569 92.919 341.015C107.439 355.731 110.22 358.3 111.267 358.848C111.317 358.996 111.372 359.207 111.412 359.362C111.642 360.249 112.026 361.736 113.525 362.283C114.571 362.664 115.793 362.515 116.872 362.384C117.123 362.356 117.454 362.314 117.721 362.295C117.774 362.483 117.828 362.696 117.877 362.879C118.302 364.504 119.016 367.228 121.409 367.388C121.429 367.389 121.454 367.389 121.478 367.389C123.828 367.39 147.242 361.866 158.327 359.218L163.371 365.69ZM120.239 387.323C120.271 387.323 120.304 387.323 120.335 387.32C127.413 386.928 162.464 369.591 166.438 367.616L168.129 366.775L159.54 355.755L158.575 355.987C145.496 359.115 124.214 364.064 121.675 364.299C121.348 363.957 121.012 362.664 120.862 362.096C120.602 361.099 120.414 360.38 119.902 359.869C119.048 359.013 117.812 359.161 116.502 359.321C115.878 359.396 114.932 359.512 114.582 359.382C114.593 359.333 114.471 358.866 114.4 358.586C114.193 357.788 113.854 356.481 112.59 356.053C110.892 354.839 100.269 344.068 95.116 338.845C92.671 336.369 90.789 334.459 90.171 333.872C83.003 327 73.883 325.926 68.49 331.32C62.713 337.095 66.138 348.289 68.368 351.115C71.452 355.022 113.825 387.32 120.239 387.323Z" fill="#1B1A19"/>
<path fill-rule="evenodd" clip-rule="evenodd" d="M449.52 190.375H310.633V187.289H449.52V190.375Z" fill="#1B1A19"/>
<path fill-rule="evenodd" clip-rule="evenodd" d="M404.767 233.617H401.68V188.832H404.767V233.617Z" fill="#1B1A19"/>
<path fill-rule="evenodd" clip-rule="evenodd" d="M358.472 233.617H355.384V188.832H358.472V233.617Z" fill="#1B1A19"/>
<path fill-rule="evenodd" clip-rule="evenodd" d="M66.987 599.73H32.522V596.644H66.987V599.73Z" fill="#1B1A19"/>
<path fill-rule="evenodd" clip-rule="evenodd" d="M114.149 68.7179C123.216 68.7179 127.788 65.7918 132.213 62.962C136.447 60.2501 140.447 57.6901 148.61 57.6901C156.776 57.6901 160.776 60.2501 165.01 62.9606C169.435 65.7918 174.007 68.7179 183.073 68.7179C192.141 68.7179 196.715 65.7918 201.139 62.962C205.375 60.2501 209.374 57.6901 217.54 57.6901C225.706 57.6901 229.706 60.2501 233.943 62.962C238.366 65.7918 242.94 68.7179 252.007 68.7179V65.6318C243.841 65.6318 239.844 63.0718 235.605 60.3613C231.184 57.5301 226.609 54.604 217.54 54.604C208.472 54.604 203.898 57.5301 199.474 60.3613C195.238 63.0718 191.239 65.6318 183.073 65.6318C174.91 65.6318 170.91 63.0718 166.675 60.3613C162.251 57.5301 157.679 54.604 148.61 54.604C139.543 54.604 134.972 57.5301 130.548 60.3613C126.313 63.0718 122.313 65.6318 114.149 65.6318V68.7179Z" fill="#1B1A19"/>
<path fill-rule="evenodd" clip-rule="evenodd" d="M114.149 93.476C123.216 93.476 127.788 90.5499 132.213 87.72C136.447 85.0082 140.447 82.4482 148.61 82.4482C156.776 82.4482 160.776 85.0082 165.01 87.7173C169.435 90.5499 174.007 93.476 183.073 93.476C192.141 93.476 196.715 90.5499 201.139 87.72C205.375 85.0082 209.374 82.4482 217.54 82.4482C225.706 82.4482 229.706 85.0082 233.943 87.72C238.366 90.5499 242.94 93.476 252.007 93.476V90.3885C243.841 90.3885 239.844 87.8285 235.605 85.1194C231.184 82.2868 226.609 79.3621 217.54 79.3621C208.472 79.3621 203.898 82.2868 199.474 85.1194C195.238 87.8285 191.239 90.3885 183.073 90.3885C174.91 90.3885 170.91 87.8285 166.675 85.1194C162.251 82.2868 157.679 79.3621 148.61 79.3621C139.543 79.3621 134.972 82.2868 130.548 85.1194C126.313 87.8285 122.313 90.3885 114.149 90.3885V93.476Z" fill="#1B1A19"/>
<path fill-rule="evenodd" clip-rule="evenodd" d="M50.784 516.089C53.314 513.194 54.378 504.166 54.267 501.477C54.075 496.847 58.106 493.343 58.898 491.639C61.473 486.093 50.698 456.254 51.181 433.159L65.402 435.039C65.29 437.584 65.29 440.681 65.732 442.896C66.514 446.806 78.712 482.497 82.749 499.152C81.353 508.987 80.217 516.127 79.73 517.102C77.959 520.643 37.848 584.09 37.848 584.09L23.683 580.106C23.683 580.106 46.359 521.152 50.784 516.089Z" fill="#1B1A19"/>
<path fill-rule="evenodd" clip-rule="evenodd" d="M51.127 366.766C50.419 371.195 49.923 382.574 49.725 394.687C43.769 388.488 33.295 376.954 33.295 372.535C33.295 370.485 37.765 361.507 42.008 356.608C44.879 353.298 56.815 340.402 64.248 332.399C58.717 344.733 52.203 360.043 51.127 366.766Z" fill="#1B1A19"/>
<path fill-rule="evenodd" clip-rule="evenodd" d="M70.331 406.742C73.032 397.483 86.654 404.813 91.847 400.184C95.188 397.207 86.129 374.369 79.237 358.447C83.337 361.658 88.296 365.385 93.351 369.043C99.203 399.023 106.011 429.618 106.011 429.618C106.011 429.618 86.536 436.699 77.684 436.256C74.784 436.112 68.917 435.597 65.292 435.243C64.868 430.854 67.913 415.034 70.331 406.742Z" fill="#1B1A19"/>
<path fill-rule="evenodd" clip-rule="evenodd" d="M182.183 348.458C181.595 347.519 176.396 355.662 174.496 354.081C173.581 353.321 173.001 347.909 170.445 349.163C167.539 350.588 169.094 356.332 168.579 358.002C168.168 359.339 164.118 360.57 162.496 361.016L155.971 356.581L171.28 341.542L182.725 348.23L182.287 348.661C182.248 348.595 182.224 348.521 182.183 348.458Z" fill="#1B1A19"/>
</svg>
