<svg width="520" height="401" viewBox="0 0 520 401" fill="none" xmlns="http://www.w3.org/2000/svg">
<path fill-rule="evenodd" clip-rule="evenodd" d="M483.274 271.209L466.118 254.081L475.265 244.949C478.079 247.45 483.072 247.724 486.079 247.881C486.428 247.899 486.748 247.916 487.031 247.935C487.138 247.942 487.245 247.945 487.354 247.945C489.423 247.945 491.56 246.654 491.949 245.114C492.199 244.127 491.72 243.228 490.703 242.766C487.512 241.319 483.69 239.261 482.835 238.162C482.75 238.054 482.65 237.885 482.54 237.685L498.633 221.621L515.788 238.749L483.274 271.209ZM477.211 229.867C478.042 232.291 480.084 238.064 481.17 239.456C482.619 241.319 488.164 243.928 489.828 244.682C489.841 244.689 489.853 244.694 489.863 244.699C489.633 245.107 488.527 245.924 487.171 245.833C486.88 245.813 486.55 245.796 486.189 245.777C483.424 245.632 478.795 245.39 476.569 243.307C474.035 240.933 471.703 236.731 470.338 232.15L477.211 229.867ZM460.352 183.617L429.39 137.147C429.366 137.11 426.99 133.43 427.818 129.816C428.252 127.924 429.51 126.341 431.559 125.111C433.018 124.235 434.372 123.893 435.598 123.893C439.837 123.893 442.536 127.98 442.698 128.231L475.943 175.684C477.038 177.248 477.651 179.082 477.71 180.988L478.795 216.01C475.953 216.693 468.235 218.549 465.392 219.237L461.281 186.117C461.169 185.226 460.848 184.363 460.352 183.617ZM393.786 174.762C392.106 176.015 390.027 176.705 387.931 176.705H344.992V162.048L382.068 160.884C383.483 160.84 384.825 160.277 385.851 159.303L402.694 143.278V143.279L415.827 130.784L416.394 130.245C416.405 130.283 416.412 130.319 416.423 130.357C416.789 131.731 417.745 134.644 419.063 138.491C418.603 139.959 418.191 141.466 417.796 142.93C417.274 144.863 416.734 146.863 416.092 148.69C414.716 152.598 412.408 153.867 409.214 155.624C407.562 156.532 405.691 157.561 403.765 159.111C398.537 163.322 395.974 168.142 396.469 172.758L393.786 174.762ZM371.826 365.218C371.826 375.091 363.781 383.121 353.892 383.121H235.216C225.327 383.121 217.282 375.091 217.282 365.218V320.723H224.139V362.366C224.139 370.423 230.706 376.978 238.776 376.978H350.332C358.403 376.978 364.969 370.423 364.969 362.366V178.811H371.826V365.218ZM180.655 334.501L201.56 324.026L199.948 320.171L207.525 316.375V320.722H215.173V334.501H180.655ZM151.886 346.561C148.548 348.339 144.61 348.573 141.089 347.208C137.563 345.841 134.818 343.015 133.538 339.406C133.388 339.041 118.464 302.71 114.848 289.754C113.302 284.212 112.054 274.389 121.077 270.861C122.909 270.146 124.629 269.788 126.227 269.788C127.585 269.788 128.854 270.046 130.025 270.564C133.878 272.265 135.956 276.45 136.851 278.794C141.214 290.209 151.655 320.599 151.765 320.915C152.095 321.85 152.807 322.618 153.715 323.021C154.625 323.424 155.671 323.436 156.589 323.053L192.6 308.056L198.854 323.025L175.951 334.501H175.614V334.67L151.886 346.561ZM68.2373 328.253C73.4802 315.186 80.6588 297.289 98.9424 277.468C116.334 258.613 120.775 254.92 121.791 254.206L141.325 261.478L139.184 278.993C139.06 278.666 138.939 278.344 138.823 278.043C137.585 274.805 135.204 270.547 130.879 268.637C127.796 267.275 124.238 267.364 120.308 268.9C111.571 272.317 111.116 280.708 111.998 286.513C110.811 292.828 113.429 299.761 112.936 301.854C112.232 304.838 107.309 307.647 104.848 310.981C102.387 314.316 103.089 317.476 102.034 321.162C100.979 324.848 97.167 323.189 91.9378 326.251C89.7574 327.529 87.8089 330.591 86.581 334.502L65.6739 334.501C66.501 332.583 67.3491 330.467 68.2373 328.253ZM126.389 245.389L128.327 246.67L143.207 256.499L141.909 259.446L124.147 252.836L123.157 252.466L126.389 245.389ZM131.775 245.255C134.74 244.858 140.067 239.575 140.529 238.929C141.269 237.895 140.419 236.702 138.875 234.534C137.155 232.12 134.556 228.473 135.972 226.718C136.631 225.902 137.432 226.099 139.698 227.636C141.092 228.581 142.671 229.649 143.85 228.397C144.895 227.289 144.518 225.573 144.153 223.914C143.737 222.024 143.505 220.635 144.297 219.963C145.255 219.147 147.001 219.277 149.019 219.428C151.242 219.592 153.908 219.77 156.472 218.713C156.558 223.215 156.579 229.078 156.271 233.562C156.03 237.091 155.291 247.831 151.599 248.165C148.456 248.458 145.652 245.13 145.623 245.095L144.617 243.887L140.281 252.04L131.243 246.069L131.775 245.255ZM202.287 307.297L202.778 306.987V294.305C202.778 290.061 204.883 286.663 205.531 286.367C205.65 286.329 205.835 286.415 205.927 286.471C206.457 286.777 206.989 287.538 207.162 288.227C207.394 289.424 207.506 304.403 207.524 314.018L199.134 318.221L196.152 311.084C197.179 310.509 198.973 309.394 202.287 307.297ZM209.634 293.604H346.772V318.616H209.634V315.318L209.635 315.317L209.634 314.666V293.604ZM217.282 291.498H224.139V187.747H217.282V291.498ZM200.044 156.536H312.128V160.276C310.321 160.212 307.603 159.948 307.572 159.945L306.432 159.834L306.414 160.976C306.39 162.587 307.251 165.814 310.691 166.502C311.192 166.602 311.661 166.738 312.128 166.885V185.641H200.044V156.536ZM340.443 160.082V98.5967H350.332C357.24 98.5967 362.859 104.208 362.859 111.103V159.379L340.443 160.082ZM312.831 162.398C313.114 162.398 313.445 162.377 313.826 162.352C315.747 162.226 318.963 162.013 323.157 164.735L323.393 164.888L331.397 165.325V174.934C329.677 175.242 328.54 175.572 327.678 175.823C326.641 176.122 326.016 176.3 325.095 176.265C323.417 176.195 316.766 175.757 314.238 175.589V167.535C315.831 167.978 317.863 168.353 321.187 168.365L321.179 166.259C321.13 166.259 321.084 166.26 321.036 166.26C317.037 166.26 315.138 165.642 313.461 165.095C312.693 164.846 311.968 164.61 311.106 164.437C309.571 164.13 308.948 163.036 308.695 162.161C309.922 162.264 311.715 162.398 312.831 162.398ZM331.831 160.353V163.24L324.067 162.816C319.793 160.122 316.333 160.1 314.238 160.217V154.43H226.249V111.103C226.249 104.208 231.869 98.5967 238.776 98.5967H262.441C268 98.6193 273.655 98.6038 273.655 98.6038L338.333 98.5967V99V160.149L331.831 160.353ZM314.238 187.747V177.699C316.874 177.875 323.313 178.299 325.006 178.369C325.12 178.373 325.229 178.377 325.336 178.377C326.432 178.377 327.251 178.138 328.266 177.846C329.136 177.593 330.194 177.288 331.831 176.996V178.811H338.333V204.613C338.333 224.248 332.354 247.652 303.873 247.652C276.132 247.652 263.047 261.6 262.747 291.498H226.249V187.747H314.238ZM226.249 320.722H348.882V291.498H264.856C265.156 263.037 277.57 249.759 303.873 249.759C327.456 249.759 340.442 233.725 340.442 204.613V178.811H362.859V362.366C362.859 369.262 357.24 374.872 350.332 374.872H238.776C231.869 374.872 226.249 369.262 226.249 362.366V320.722ZM217.282 108.251C217.282 98.3786 225.327 90.3474 235.216 90.3474H353.892C363.781 90.3474 371.826 98.3786 371.826 108.251V159.098L364.969 159.312V111.103C364.969 103.046 358.403 96.4904 350.332 96.4904H264.489V98.6056C270.989 98.6061 336.333 98.5838 338.333 98.5967L301.445 98.6007L264.489 98.6056C269.286 98.6059 260.658 98.6056 264.489 98.6056V96.4904H238.776C230.706 96.4904 224.139 103.046 224.139 111.103V154.43H217.282V108.251ZM404.637 113.447C401.69 113.354 397.052 104.681 394.701 96.2935L394.674 96.1618C394.372 94.6674 393.963 90.1083 395.971 88.8067C397.336 87.9189 401.041 91.331 402.627 92.7854C404.181 94.2124 404.758 94.7506 405.526 94.6063L406.112 94.4599L406.313 94.0597C406.537 93.8733 407.438 93.4721 408.493 93.5205C409.313 93.5563 409.951 93.847 410.391 94.3841C410.946 95.0623 411.339 95.987 411.72 96.8822C411.943 97.4045 412.161 97.9132 412.412 98.366L412.45 98.4872L412.547 98.5946C412.813 99.0306 413.119 99.4002 413.503 99.6561L421.489 108.528L416.057 113.611L409.829 108.157L409.229 109.415C408.683 110.558 406.814 113.468 404.637 113.447ZM429.595 111.609C429.495 111.631 429.399 111.651 429.298 111.675C429.081 111.725 428.855 111.784 428.624 111.847C428.543 111.869 428.467 111.887 428.383 111.91C428.069 112 427.744 112.101 427.41 112.216C427.34 112.24 427.267 112.269 427.197 112.294C426.931 112.389 426.662 112.489 426.385 112.601C426.262 112.652 426.137 112.708 426.01 112.762C425.779 112.861 425.547 112.966 425.311 113.077C425.169 113.146 425.027 113.217 424.882 113.29C424.652 113.407 424.422 113.53 424.189 113.66C424.042 113.741 423.896 113.823 423.748 113.91C423.5 114.056 423.252 114.215 423.003 114.376C422.87 114.462 422.738 114.544 422.605 114.635C422.243 114.882 421.881 115.146 421.52 115.429C421.5 115.445 421.48 115.457 421.461 115.472C421.446 115.484 421.434 115.496 421.419 115.508C421.134 115.734 420.863 115.965 420.599 116.197C420.51 116.277 420.423 116.356 420.336 116.435C420.146 116.61 419.962 116.783 419.783 116.958C419.702 117.038 419.619 117.117 419.54 117.198C419.324 117.415 419.117 117.633 418.92 117.849C418.89 117.883 418.859 117.914 418.83 117.947C418.619 118.182 418.421 118.414 418.231 118.643C418.159 118.73 418.093 118.814 418.024 118.899C417.899 119.056 417.779 119.21 417.661 119.363C417.596 119.45 417.53 119.536 417.467 119.622C417.342 119.792 417.223 119.959 417.11 120.123C417.056 120.2 417.002 120.276 416.952 120.35C416.831 120.529 416.717 120.703 416.611 120.872C416.555 120.961 416.503 121.044 416.45 121.131C416.383 121.238 416.321 121.344 416.261 121.445C416.233 121.491 416.2 121.543 416.174 121.588L414.156 118.277L424.439 108.654L425.65 107.522L430.266 111.475C430.225 111.481 430.179 111.492 430.137 111.501C429.962 111.532 429.781 111.569 429.595 111.609ZM407.802 164.299L398.527 171.222C398.738 166.598 402.602 162.755 405.09 160.751C406.872 159.317 408.58 158.377 410.231 157.469C413.424 155.713 416.44 154.054 418.082 149.389C418.752 147.487 419.302 145.449 419.833 143.477C419.971 142.97 420.113 142.455 420.254 141.94C421.338 145.052 422.58 148.577 423.899 152.284L407.802 164.299ZM499.441 181.758C499.12 182.053 498.796 182.346 498.467 182.635C498.213 182.86 497.954 183.08 497.695 183.3C497.342 183.599 496.986 183.896 496.625 184.187C491.724 188.138 486.178 191.269 480.204 193.403L479.818 180.923C479.746 178.605 479.003 176.376 477.672 174.477L444.452 127.061C442.511 124.025 437.095 119.331 430.471 123.306C427.907 124.845 426.321 126.883 425.758 129.362C424.736 133.861 427.509 138.126 427.63 138.309L458.595 184.784C458.911 185.259 459.116 185.81 459.188 186.377L460.465 196.665C459.879 196.656 459.292 196.649 458.71 196.623V196.626C458.014 196.596 457.319 196.544 456.626 196.488C456.454 196.475 456.281 196.462 456.109 196.446H456.108L456.107 196.453C451.945 196.078 447.855 195.235 443.874 193.948C442.851 193.619 441.838 193.267 440.858 192.889C440.846 192.884 440.833 192.88 440.821 192.875C438.283 185.94 420.33 136.807 418.46 129.815C418.325 129.31 418.206 128.819 418.094 128.336L418.019 127.997C417.805 127.027 417.616 125.845 417.487 124.95C417.441 124.575 417.398 124.202 417.371 123.846C417.373 123.842 417.376 123.837 417.378 123.833C417.699 123.144 418.688 121.231 420.531 119.216C420.56 119.184 420.59 119.151 420.62 119.118C420.906 118.809 421.214 118.498 421.543 118.189C421.591 118.144 421.642 118.1 421.69 118.055C422.031 117.741 422.387 117.428 422.771 117.124C422.832 117.076 422.892 117.036 422.952 116.99C423.192 116.804 423.433 116.622 423.673 116.456C423.756 116.398 423.838 116.348 423.92 116.294C424.143 116.144 424.367 115.995 424.589 115.86C424.646 115.825 424.702 115.796 424.76 115.761C425.01 115.612 425.259 115.469 425.506 115.339C425.53 115.325 425.555 115.314 425.58 115.301C428.842 113.59 431.717 113.368 432.555 113.342C432.555 113.342 432.56 113.342 432.563 113.342C432.66 113.339 432.718 113.339 432.755 113.339C433.017 113.375 433.261 113.413 433.515 113.451C433.779 113.491 434.051 113.529 434.307 113.57C434.573 113.612 434.818 113.658 435.074 113.702C435.306 113.742 435.547 113.781 435.77 113.822C436.017 113.867 436.241 113.916 436.476 113.963C436.687 114.005 436.908 114.046 437.11 114.091C437.333 114.138 437.533 114.188 437.743 114.238C437.935 114.283 438.137 114.326 438.315 114.372C438.515 114.421 438.689 114.474 438.874 114.524C439.043 114.572 439.226 114.617 439.384 114.666C439.552 114.716 439.695 114.767 439.851 114.818C440.002 114.869 440.166 114.918 440.306 114.969C440.453 115.023 440.573 115.076 440.706 115.131C440.828 115.181 440.963 115.23 441.075 115.281C441.303 115.385 441.508 115.491 441.683 115.599C443.643 116.794 454.571 126.146 464.212 134.397C472.238 141.265 479.817 147.751 483.409 150.595C483.75 150.863 484.117 151.157 484.509 151.469C484.712 151.631 484.937 151.813 485.152 151.986C485.351 152.147 485.541 152.299 485.75 152.467C486.047 152.706 486.362 152.963 486.676 153.218C486.82 153.335 486.955 153.443 487.101 153.562C487.398 153.804 487.71 154.058 488.019 154.31C488.214 154.47 488.403 154.624 488.604 154.787C488.892 155.023 489.191 155.27 489.487 155.512C489.716 155.699 489.94 155.882 490.173 156.074C490.468 156.316 490.771 156.567 491.073 156.816C491.325 157.024 491.575 157.229 491.833 157.441C492.096 157.659 492.366 157.883 492.635 158.105C492.953 158.369 493.271 158.631 493.593 158.899C493.8 159.07 494.009 159.244 494.218 159.417C494.603 159.737 494.988 160.057 495.377 160.381C495.552 160.528 495.73 160.675 495.906 160.822C496.334 161.18 496.764 161.538 497.195 161.898C497.331 162.012 497.467 162.125 497.603 162.24C498.081 162.639 498.558 163.04 499.033 163.439C499.122 163.514 499.21 163.587 499.298 163.662C499.824 164.103 500.347 164.546 500.866 164.984C500.909 165.02 500.952 165.056 500.996 165.093C501.55 165.56 502.098 166.024 502.64 166.484C502.665 166.505 502.692 166.528 502.717 166.55C504.736 168.263 506.638 169.895 508.319 171.357C505.779 175.194 502.787 178.678 499.441 181.758ZM142.529 47.5403L159.109 64.0915L142.529 80.6437L125.949 64.0915L142.529 47.5403ZM163.763 59.445L147.183 42.8938L163.763 26.3416L180.343 42.8938L163.763 59.445ZM481.605 235.641C480.825 233.756 479.907 231.23 479.213 229.201L481.294 228.509L480.274 195.605C486.56 193.442 492.405 190.221 497.57 186.124L497.577 186.133C497.767 185.983 497.948 185.823 498.135 185.671C498.494 185.378 498.854 185.085 499.207 184.784C499.505 184.529 499.796 184.271 500.087 184.011C500.411 183.724 500.734 183.438 501.052 183.142C501.141 183.06 501.235 182.981 501.324 182.898L501.316 182.89C504.538 179.861 507.424 176.462 509.911 172.745L509.929 172.761L510.539 171.807C510.556 171.781 510.574 171.755 510.591 171.729L511.078 170.967L511.065 170.955C516.752 161.757 519.76 151.194 519.76 140.341C519.76 108.112 493.496 81.8917 461.213 81.8917C444.626 81.8917 428.865 88.933 417.755 101.228L416.208 99.5098C419.612 97.255 418.369 88.6266 417.648 84.9248C417.208 82.6668 416.128 80.946 414.438 79.8118C412.105 78.2457 409.235 78.2489 407.796 78.3774C407.094 76.6418 405.07 72.7947 400.384 70.958C398.836 70.3503 397.355 70.3988 395.986 71.1044C393.76 72.2512 392.401 74.9294 391.707 76.7239C391.337 76.4659 390.889 76.2332 390.354 76.0794C388.881 75.655 387.23 75.9762 385.451 77.0262C383.763 78.0214 383.271 79.3221 383.153 80.2372C382.881 82.3909 384.335 84.5119 385.222 85.5819C384.547 86.5761 383.532 88.4654 383.532 90.8434C383.532 92.7781 385.079 95.055 387.378 96.5083C389.227 97.6752 391.17 98.0817 392.887 97.7131C395.403 106.384 400.199 115.415 404.57 115.552C406.796 115.641 408.549 114.055 409.683 112.608C405.088 121.102 402.666 130.642 402.666 140.341C402.666 140.358 402.667 140.376 402.667 140.394L384.395 157.778C383.747 158.395 382.897 158.75 382.003 158.779L373.936 159.031V108.251C373.936 97.2181 364.945 88.2411 353.893 88.2411H300.356V41.7269H182.157L163.763 23.3633L144.2 42.8938L163.763 62.4233L182.384 43.8332H298.246V88.2411H235.216C224.165 88.2411 215.173 97.2181 215.173 108.251V154.43H197.935V187.747H215.173V291.498H209.421C209.367 289.484 209.299 288.075 209.213 287.732C208.898 286.474 208.001 285.235 206.982 284.647C206.312 284.26 205.608 284.154 204.951 284.343C203.023 284.892 200.668 289.598 200.668 294.305V305.828C198.628 307.115 196.502 308.428 195.33 309.118L193.735 305.3L163.28 317.984C155.746 301.475 145.208 278.328 142.224 271.507L143.502 261.064L145.855 255.722L142.048 253.208L145.068 247.531C146.415 248.754 148.904 250.519 151.791 250.264C156.609 249.827 157.803 242.047 158.377 233.707C158.716 228.766 158.662 222.187 158.557 217.53C163.64 213.763 166.709 205.036 165.947 201.326C165.655 199.901 164.829 199.259 164.187 198.972C162.36 198.151 159.526 198.95 155.004 201.564C152.909 202.774 148.868 203.249 144.96 203.708C144.484 203.764 144.006 203.821 143.528 203.878V82.6247L162.092 64.0915L142.529 44.5609L122.966 64.0915L141.418 82.5141V204.149C137.878 204.641 134.575 205.335 132.515 206.811C126.985 210.774 126.573 216.95 126.375 219.918C126.355 220.213 126.337 220.485 126.317 220.709C123.035 223.177 122.346 225.41 123.569 229.348C123.609 229.478 127.282 240.977 129.865 244.325L129.483 244.908L125.492 242.272L120.862 252.412C118.778 253.688 113.373 258.712 97.3917 276.041C78.8454 296.146 71.5824 314.251 66.2794 327.471C65.1633 330.251 64.1095 332.877 63.0957 335.121L62.4248 336.607L130.12 336.608C131.004 338.785 131.544 340.098 131.568 340.158C133.034 344.297 136.225 347.582 140.324 349.171C142.09 349.856 143.942 350.194 145.79 350.194C148.231 350.194 150.66 349.602 152.855 348.432L176.451 336.607H215.173V365.218C215.173 376.252 224.165 385.228 235.216 385.228H353.893C364.945 385.228 373.936 376.252 373.936 365.218V178.811H387.931C390.48 178.811 393.007 177.973 395.049 176.448L408.739 166.228C415.098 179.045 425.976 189.126 439.164 194.486L439.603 194.661C439.742 194.716 439.883 194.762 440.022 194.816C440.636 195.054 441.254 195.285 441.878 195.503C442.146 195.596 442.415 195.686 442.684 195.775C442.952 195.865 443.215 195.962 443.484 196.047L443.485 196.043L443.487 196.044L443.491 196.031C447.637 197.351 451.895 198.203 456.23 198.569C456.459 198.588 456.686 198.608 456.915 198.625C457.249 198.65 457.582 198.671 457.917 198.69V198.688C458.85 198.741 459.787 198.772 460.727 198.779L465.085 233.896L468.343 232.813C469.588 236.972 471.535 240.756 473.803 243.429L463.135 254.081L483.274 274.187L518.772 238.749L498.633 218.642L481.605 235.641Z" fill="#1B1A19"/>
<path fill-rule="evenodd" clip-rule="evenodd" d="M142.416 5.03004L158.996 21.5823L142.416 38.1345L125.837 21.5823L142.416 5.03004ZM161.979 21.5823L142.416 2.05176L122.853 21.5823L142.416 41.1128L161.979 21.5823Z" fill="#1B1A19"/>
<path fill-rule="evenodd" clip-rule="evenodd" d="M140.745 42.78L121.182 23.2505L101.62 42.78L121.182 62.3105L140.745 42.78Z" fill="#1B1A19"/>
<path fill-rule="evenodd" clip-rule="evenodd" d="M195.898 375.05L177.347 356.529H195.898V375.05ZM198.008 380.135V354.423H172.254L198.008 380.135Z" fill="#1B1A19"/>
<path fill-rule="evenodd" clip-rule="evenodd" d="M401.151 308.387C400.063 307.76 399.436 306.957 399.432 306.189V247.901C399.639 248.05 399.859 248.195 400.096 248.331C401.756 249.287 403.883 249.766 406.006 249.766C406.147 249.766 406.286 249.746 406.427 249.742V309.505C404.522 309.57 402.575 309.206 401.151 308.387ZM401.115 242.11C402.424 241.35 404.187 240.971 405.954 240.971C407.72 240.971 409.493 241.351 410.812 242.113C411.903 242.742 412.529 243.546 412.53 244.322C412.531 245.089 411.917 245.885 410.844 246.508C408.227 248.027 403.787 248.025 401.151 246.505C400.06 245.877 399.433 245.071 399.432 244.295C399.431 243.527 400.044 242.731 401.115 242.11ZM411.867 240.289C408.544 238.373 403.357 238.373 400.054 240.289C398.291 241.312 397.319 242.736 397.322 244.297C397.322 244.301 397.323 244.304 397.323 244.308H397.322V306.194C397.331 307.759 398.315 309.185 400.096 310.211C401.756 311.167 403.882 311.647 406.006 311.647C408.131 311.646 410.254 311.167 411.905 310.209C413.679 309.18 414.65 307.75 414.64 306.189V244.308H414.639C414.632 242.743 413.649 241.316 411.867 240.289Z" fill="#1B1A19"/>
<path fill-rule="evenodd" clip-rule="evenodd" d="M51.7683 279.436C49.667 282.697 46.1204 284.658 42.2489 284.738C37.1526 284.579 33.0533 280.401 33.0533 275.275V273.018H26.1616L46.0666 242.127C48.1605 238.877 51.6892 236.919 55.5449 236.827C60.6179 237.012 64.6919 241.179 64.6919 246.288V248.545H71.6733L51.7683 279.436ZM97.7452 248.545V246.288C97.7452 239.9 92.5393 234.704 86.1413 234.704H54.2927V234.799C50.2123 235.252 46.5476 237.486 44.2933 240.988L23.6541 273.018H0V275.275C0 281.662 5.20489 286.859 11.6039 286.859H43.4515V286.769C47.5677 286.339 51.2694 284.102 53.5416 280.575L74.1808 248.545H97.7452Z" fill="#1B1A19"/>
<path fill-rule="evenodd" clip-rule="evenodd" d="M339.388 65.0887C341.715 65.0887 343.608 66.978 343.608 69.3013C343.608 71.6234 341.715 73.5138 339.388 73.5138C337.061 73.5138 335.168 71.6234 335.168 69.3013C335.168 66.978 337.061 65.0887 339.388 65.0887ZM339.388 75.6201C342.879 75.6201 345.717 72.7851 345.717 69.3013C345.717 65.8164 342.879 62.9824 339.388 62.9824C335.898 62.9824 333.059 65.8164 333.059 69.3013C333.059 72.7851 335.898 75.6201 339.388 75.6201Z" fill="#1B1A19"/>
<path fill-rule="evenodd" clip-rule="evenodd" d="M48.9177 257.096C46.8786 257.096 45.2256 258.745 45.2256 260.782C45.2256 262.817 46.8786 264.468 48.9177 264.468C50.9569 264.468 52.6099 262.817 52.6099 260.782C52.6099 258.745 50.9569 257.096 48.9177 257.096Z" fill="#1B1A19"/>
<path fill-rule="evenodd" clip-rule="evenodd" d="M214.762 165.15L208.815 171.089L214.762 177.027L216.255 175.538L211.799 171.089L216.255 166.639L214.762 165.15Z" fill="#1B1A19"/>
<path fill-rule="evenodd" clip-rule="evenodd" d="M289.888 167.753H304.833V165.647H289.888V167.753Z" fill="#1B1A19"/>
<path fill-rule="evenodd" clip-rule="evenodd" d="M289.888 172.142H304.833V170.036H289.888V172.142Z" fill="#1B1A19"/>
<path fill-rule="evenodd" clip-rule="evenodd" d="M289.888 176.529H304.833V174.423H289.888V176.529Z" fill="#1B1A19"/>
<path fill-rule="evenodd" clip-rule="evenodd" d="M238.824 306.205L233.106 300.497L227.39 306.205L233.106 311.912L238.824 306.205Z" fill="#1B1A19"/>
<path fill-rule="evenodd" clip-rule="evenodd" d="M260.845 306.205L255.128 300.497L249.411 306.205L255.128 311.912L260.845 306.205Z" fill="#1B1A19"/>
<path fill-rule="evenodd" clip-rule="evenodd" d="M286.285 306.205L278.204 298.137L270.123 306.205L278.204 314.272L286.285 306.205Z" fill="#1B1A19"/>
<path fill-rule="evenodd" clip-rule="evenodd" d="M306.997 306.205L301.279 300.497L295.562 306.205L301.279 311.912L306.997 306.205Z" fill="#1B1A19"/>
<path fill-rule="evenodd" clip-rule="evenodd" d="M329.018 306.205L323.301 300.497L317.584 306.205L323.301 311.912L329.018 306.205Z" fill="#1B1A19"/>
</svg>
