<svg width="1307" height="740" viewBox="0 0 1307 740" fill="none" xmlns="http://www.w3.org/2000/svg">
<g clip-path="url(#clip0_22_7)">
<path d="M-28.6379 0.362396V470.81H49.9073V538.018H-28.6379V739.638H756.821V672.429H835.367V739.638H1306.64V605.227H1228.09V538.018H1306.64V0.362396H-28.6379ZM364.088 134.773H442.633V201.982H364.088V134.773ZM756.821 404H777H797H816H835.367V470.81H756.821V404ZM835.367 201.982H756.821V134.773H835.367V201.982ZM1071 67.5712V134.773H992.457V67.5712H1071ZM285.543 67.5712V134.773H206.998V67.5712H285.543ZM521.179 672.429V605.227H599.724V672.429H521.179Z" stroke="#D1D5DB" stroke-miterlimit="10"/>
<path d="M835.367 672.429H756.821V739.638H835.367V672.429Z" stroke="#D1D5DB" stroke-miterlimit="10"/>
<path d="M1306.64 672.429H1228.09H1149.55H1071H992.457H913.912H835.367" stroke="#D1D5DB" stroke-miterlimit="10"/>
<path d="M-28.6379 672.429H49.9073H128.452H206.998H285.543H364.088H442.633H521.179" stroke="#D1D5DB" stroke-miterlimit="10"/>
<path d="M599.724 672.429H678.276H756.821" stroke="#D1D5DB" stroke-miterlimit="10"/>
<path d="M599.724 605.227H678.276H756.821H835.367H913.912H992.457H1071H1149.55H1228.09" stroke="#D1D5DB" stroke-miterlimit="10"/>
<path d="M599 605.227H364.088H285.543H206.998H128.452H49.9073H-28.6379" stroke="#D1D5DB" stroke-miterlimit="10"/>
<path d="M49.9072 538.018H128.452H206.998H285.543H364.088H442.633H521.178H599.724H678.276H756.821H835.367H913.912H992.457H1071H1149.55H1228.09" stroke="#D1D5DB" stroke-miterlimit="10"/>
<path d="M364.545 337H286V404.209H364.545V337Z" fill="#EFEFEF"/>
<path d="M756.545 336H678V403.209H756.545V336Z" fill="#EFEFEF"/>
<path d="M443.55 337H364V404.209H443.55V337Z" fill="#EFEFEF"/>
<path d="M835.55 336H756V403.209H835.55V336Z" fill="#EFEFEF"/>
<path d="M678 539H600V605H678V539Z" fill="#EFEFEF"/>
<path d="M600 539H522V605H600V539Z" fill="#EFEFEF"/>
<path d="M600 606H522V672.5H600V606Z" fill="#EFEFEF"/>
<path d="M520 606H442V672.5H520V606Z" fill="#EFEFEF"/>
<path d="M364.545 403H286V470.209H364.545V403Z" fill="#EFEFEF"/>
<path d="M835 405H758V470H835V405Z" fill="#EFEFEF"/>
<path d="M756.821 470.81H678.276H599.724H521.178H442.633H364.088H285.543H206.998H128.452H49.9072" stroke="#D1D5DB" stroke-miterlimit="10"/>
<path d="M835.367 470.81H913.912H992.457H1071H1149.55H1228.09H1306.64" stroke="#D1D5DB" stroke-miterlimit="10"/>
<path d="M-28 404H48.2302H124.46H200.691H276.921H353.151H429.381H505.611H581.841H658.079H756.5" stroke="#D1D5DB" stroke-miterlimit="10"/>
<path d="M835 404H913.545H992.09H1070.64H1149.18H1227.73H1306.27" stroke="#D1D5DB" stroke-miterlimit="10"/>
<path d="M1306.64 336.397H-28.6379" stroke="#D1D5DB" stroke-miterlimit="10"/>
<path d="M1306.64 269.19H-28.6379" stroke="#D1D5DB" stroke-miterlimit="10"/>
<path d="M756.821 201.982H678.276H599.724H521.178H442.633" stroke="#D1D5DB" stroke-miterlimit="10"/>
<path d="M364.088 201.982H285.543H206.998H128.453H49.9073H-28.6379" stroke="#D1D5DB" stroke-miterlimit="10"/>
<path d="M835.367 201.982H913.912H992.457H1071H1149.55H1228.09H1306.64" stroke="#D1D5DB" stroke-miterlimit="10"/>
<path d="M-28.6379 134.773H49.9073H128.452H206.998" stroke="#D1D5DB" stroke-miterlimit="10"/>
<path d="M835.367 134.773H913.912H992.457" stroke="#D1D5DB" stroke-miterlimit="10"/>
<path d="M1071 134.773H1149.55H1228.09H1306.64" stroke="#D1D5DB" stroke-miterlimit="10"/>
<path d="M364.088 134.773H285.543" stroke="#D1D5DB" stroke-miterlimit="10"/>
<path d="M442.633 134.773H521.178H599.724H678.276H756.821" stroke="#D1D5DB" stroke-miterlimit="10"/>
<path d="M364.543 67.5712H285.998V134.773H364.543V67.5712Z" fill="#EFEFEF" stroke="#D1D5DB" stroke-miterlimit="10"/>
<path d="M-28.6379 67.5712H49.9073H128.452H206.998" stroke="#D1D5DB" stroke-miterlimit="10"/>
<path d="M835.367 134.773H756.821V201.982H835.367V134.773Z" fill="#EFEFEF" stroke="#D1D5DB" stroke-miterlimit="10"/>
<path d="M835 539H757V605H835V539Z" fill="#EFEFEF"/>
<path d="M364 539H286V605H364V539Z" fill="#EFEFEF"/>
<path d="M285 606H207V672H285V606Z" fill="#EFEFEF"/>
<path d="M914 606H836V672H914V606Z" fill="#EFEFEF"/>
<path d="M442.545 135H364V202.209H442.545V135Z" fill="#EFEFEF" stroke="#D1D5DB" stroke-miterlimit="10"/>
<path d="M677.545 1H599V68.2088H677.545V1Z" fill="#EFEFEF" stroke="#D1D5DB" stroke-miterlimit="10"/>
<path d="M678.545 68H600V135.209H678.545V68Z" fill="#EFEFEF" stroke="#D1D5DB" stroke-miterlimit="10"/>
<path d="M599.545 68H521V135.209H599.545V68Z" fill="#EFEFEF" stroke="#D1D5DB" stroke-miterlimit="10"/>
<path d="M599.545 135H521V202.209H599.545V135Z" fill="#EFEFEF" stroke="#D1D5DB" stroke-miterlimit="10"/>
<path d="M913.545 67H835V134.209H913.545V67Z" fill="#EFEFEF"/>
<path d="M992.457 67.5712H913.912H835.367H756.821H678.276H599.724H521.179H442.633H364.088H285.543" stroke="#D1D5DB" stroke-miterlimit="10"/>
<path d="M1071 67.5712H1149.55H1228.09H1306.64" stroke="#D1D5DB" stroke-miterlimit="10"/>
<path d="M49.9072 739.638V672.429V605.227V538.018" stroke="#D1D5DB" stroke-miterlimit="10"/>
<path d="M49.9072 470.81V403.601V336.399V269.19V201.982V134.773V67.5712V0.362396" stroke="#D1D5DB" stroke-miterlimit="10"/>
<path d="M128.453 0.362396V739.638" stroke="#D1D5DB" stroke-miterlimit="10"/>
<path d="M206.998 739.638V672.429V605.227V538.018V470.81V403.601V336.399V269.19V201.982V134.773" stroke="#D1D5DB" stroke-miterlimit="10"/>
<path d="M206.998 67.5712V0.362396" stroke="#D1D5DB" stroke-miterlimit="10"/>
<path d="M285.543 739.638V672.429V605.227V538.018V470.81V403.601V336.399V269.19V201.982V134.773" stroke="#D1D5DB" stroke-miterlimit="10"/>
<path d="M285.543 67.5712V0.362396" stroke="#D1D5DB" stroke-miterlimit="10"/>
<path d="M364.088 739.638V672.429V605.227V538.018V470.81V403.601V336.399V269.19V201.982" stroke="#D1D5DB" stroke-miterlimit="10"/>
<path d="M364.088 134.773V67.5712V0.362396" stroke="#D1D5DB" stroke-miterlimit="10"/>
<path d="M443.633 739.638V672.429V605.227V538.018V470.81V403.601V336.399V269.19V201.982" stroke="#D1D5DB" stroke-miterlimit="10"/>
<path d="M442.633 134.773V67.5712V0.362396" stroke="#D1D5DB" stroke-miterlimit="10"/>
<path d="M521.178 739.638V672.429" stroke="#D1D5DB" stroke-miterlimit="10"/>
<path d="M521 740.001L521.02 657.817L521.04 575.633L521.06 493.449L521.079 411.274L521.099 329.09L521.119 246.906L521.139 164.722L521.159 82.5464L521.179 0.362396" stroke="#D1D5DB" stroke-miterlimit="10"/>
<path d="M599.724 739.638V672.429" stroke="#D1D5DB" stroke-miterlimit="10"/>
<path d="M600 744L599.97 661.372L599.939 578.743L599.908 496.115L599.877 413.495L599.847 330.867L599.816 248.239L599.785 165.61L599.754 82.9908L599.724 0.362396" stroke="#D1D5DB" stroke-miterlimit="10"/>
<path d="M678.273 0.362396V739.638" stroke="#D1D5DB" stroke-miterlimit="10"/>
<path d="M756.821 201.982V269.19V336.399V403.601" stroke="#D1D5DB" stroke-miterlimit="10"/>
<path d="M756.821 672.429V605.227V538.018V470.81" stroke="#D1D5DB" stroke-miterlimit="10"/>
<path d="M756.821 134.773V67.5712V0.362396" stroke="#D1D5DB" stroke-miterlimit="10"/>
<path d="M835.367 201.982V269.19V336.399V403.601" stroke="#D1D5DB" stroke-miterlimit="10"/>
<path d="M835.367 672.429V605.227V538.018V470.81" stroke="#D1D5DB" stroke-miterlimit="10"/>
<path d="M835.367 134.773V67.5712V0.362396" stroke="#D1D5DB" stroke-miterlimit="10"/>
<path d="M913.91 0.362396V739.638" stroke="#D1D5DB" stroke-miterlimit="10"/>
<path d="M992.457 739.638V672.429V605.227V538.018V470.81V403.601V336.399V269.19V201.982V134.773" stroke="#D1D5DB" stroke-miterlimit="10"/>
<path d="M992.457 67.5712V0.362396" stroke="#D1D5DB" stroke-miterlimit="10"/>
<path d="M1071 739.638V672.429V605.227V538.018V470.81V403.601V336.399V269.19V201.982V134.773" stroke="#D1D5DB" stroke-miterlimit="10"/>
<path d="M1071 67.5712V0.362396" stroke="#D1D5DB" stroke-miterlimit="10"/>
<path d="M1149.55 0.362396V739.638" stroke="#D1D5DB" stroke-miterlimit="10"/>
<path d="M1228.09 739.638V672.429V605.227" stroke="#D1D5DB" stroke-miterlimit="10"/>
<path d="M1228.09 538.018V470.81V403.601V336.399V269.19V201.982V134.773V67.5712V0.362396" stroke="#D1D5DB" stroke-miterlimit="10"/>
<rect x="-34.1794" y="-4.38354" width="1341.18" height="744.021" fill="url(#paint0_linear_22_7)"/>
</g>
<defs>
<linearGradient id="paint0_linear_22_7" x1="-90.3081" y1="398.234" x2="1362.43" y2="388.022" gradientUnits="userSpaceOnUse">
<stop stop-color="white"/>
<stop offset="0.531719" stop-color="white" stop-opacity="0"/>
<stop offset="1" stop-color="white"/>
</linearGradient>
<clipPath id="clip0_22_7">
<rect width="1336" height="740" fill="white" transform="translate(-29)"/>
</clipPath>
</defs>
</svg>
