<svg width="1440" height="780" viewBox="0 0 1440 780" fill="none" xmlns="http://www.w3.org/2000/svg">
<g clip-path="url(#clip0_1_3)">
<path d="M1439.62 708.789V779.628H169.702V708.789H0.380493V0.371765H423.689V71.2112H508.346V142.058H593.011V212.898H677.668V425.423H593.011V496.263H762.332V567.102H846.989V637.942H931.654V708.789H1439.62Z" stroke="white" stroke-miterlimit="10"/>
<path d="M931.654 0.371765V71.2112H846.989V0.371765H423.689V71.2112H508.346V142.058H593.011V212.898H677.668V496.263H762.332V567.102H846.989V637.942H931.654V708.789H1185.63V637.942H1270.3V708.789H1439.62V0.371765H931.654ZM846.989 354.577H931.654V425.423H846.989V354.577ZM1185.63 283.737H1100.98V212.898H1185.63V283.737ZM0.380493 708.789V779.628H85.0452V708.789H0.380493Z" stroke="#E0E0E0" stroke-miterlimit="10"/>
<path d="M169.702 708.789H85.0452V779.628H169.702V708.789Z" fill="#F2F2F2" stroke="#E0E0E0" stroke-miterlimit="10"/>
<path d="M1270.3 637.942H1185.63V708.789H1270.3V637.942Z" fill="#F2F2F2" stroke="#E0E0E0" stroke-miterlimit="10"/>
<path d="M931.654 0.371765H846.989V71.2112H931.654V0.371765Z" fill="white" stroke="#E0E0E0" stroke-miterlimit="10"/>
<path d="M1439.62 637.942H1354.95H1270.3" stroke="#E0E0E0" stroke-miterlimit="10"/>
<path d="M1185.63 637.942H1100.98H1016.31H931.654" stroke="#E0E0E0" stroke-miterlimit="10"/>
<path d="M1439.62 567.102H1354.95H1270.3H1185.63H1100.98H1016.31H931.654H846.989" stroke="#E0E0E0" stroke-miterlimit="10"/>
<path d="M1439.62 496.263H1354.95H1270.3H1185.63H1100.98H1016.31H931.654H846.989H762.332" stroke="#E0E0E0" stroke-miterlimit="10"/>
<path d="M677.668 425.423H593.011V496.263H677.668V425.423Z" stroke="#E0E0E0" stroke-miterlimit="10"/>
<path d="M1439.62 425.423H1354.95H1270.3H1185.63H1100.98H1016.31H931.654" stroke="#E0E0E0" stroke-miterlimit="10"/>
<path d="M846.989 425.423H762.332H677.668" stroke="#E0E0E0" stroke-miterlimit="10"/>
<path d="M1439.62 354.577H1354.95H1270.3H1185.63H1100.98H1016.31H931.654" stroke="#E0E0E0" stroke-miterlimit="10"/>
<path d="M846.989 354.577H762.332H677.668" stroke="#E0E0E0" stroke-miterlimit="10"/>
<path d="M1439.62 283.737H1354.95H1270.3H1185.63" stroke="#E0E0E0" stroke-miterlimit="10"/>
<path d="M1100.98 283.737H1016.31H931.654H846.989H762.332H677.668" stroke="#E0E0E0" stroke-miterlimit="10"/>
<path d="M677.668 212.898H762.332H846.989H931.654H1016.31H1100.98" stroke="#E0E0E0" stroke-miterlimit="10"/>
<path d="M1185.63 212.898H1270.3H1354.95H1439.62" stroke="#E0E0E0" stroke-miterlimit="10"/>
<path d="M1439.62 142.058H1354.95H1270.3H1185.63H1100.98H1016.31H931.654H846.99H762.332H677.668H593.011" stroke="#E0E0E0" stroke-miterlimit="10"/>
<path d="M508.346 71.2112H593.011H677.668H762.332H846.989" stroke="#E0E0E0" stroke-miterlimit="10"/>
<path d="M931.654 71.2112H1016.31H1100.98H1185.63H1270.3H1354.95H1439.62" stroke="#E0E0E0" stroke-miterlimit="10"/>
<path d="M508.346 71.2112V0.371765" stroke="#E0E0E0" stroke-miterlimit="10"/>
<path d="M593.011 142.058V71.2112V0.371765" stroke="#E0E0E0" stroke-miterlimit="10"/>
<path d="M677.668 212.898V142.058V71.2112V0.371765" stroke="#E0E0E0" stroke-miterlimit="10"/>
<path d="M762.332 0.371765V71.2112V142.058V212.898V283.737V354.577V425.423V496.263" stroke="#E0E0E0" stroke-miterlimit="10"/>
<path d="M931.654 354.577H846.989V425.423H931.654V354.577Z" fill="#F2F2F2" stroke="#E0E0E0" stroke-miterlimit="10"/>
<path d="M846.989 567.102V496.263V425.423" stroke="#E0E0E0" stroke-miterlimit="10"/>
<path d="M846.989 354.577V283.737V212.898V142.058V71.2112" stroke="#E0E0E0" stroke-miterlimit="10"/>
<path d="M931.654 637.942V567.102V496.263V425.423" stroke="#E0E0E0" stroke-miterlimit="10"/>
<path d="M931.654 354.577V283.737V212.898V142.058V71.2112" stroke="#E0E0E0" stroke-miterlimit="10"/>
<path d="M1016.31 708.789V637.942V567.102V496.263V425.423V354.577V283.737V212.898V142.058V71.2112V0.371765" stroke="#E0E0E0" stroke-miterlimit="10"/>
<path d="M1100.98 0.371765V71.2112V142.058V212.898" stroke="#E0E0E0" stroke-miterlimit="10"/>
<path d="M1100.98 283.737V354.577V425.423V496.263V567.102V637.942V708.789" stroke="#E0E0E0" stroke-miterlimit="10"/>
<path d="M1185.63 0.371765V71.2112V142.058V212.898" stroke="#E0E0E0" stroke-miterlimit="10"/>
<path d="M1185.63 637.942V567.102V496.263V425.423V354.577V283.737" stroke="#E0E0E0" stroke-miterlimit="10"/>
<path d="M1270.3 637.942V567.102V496.263V425.423V354.577V283.737V212.898V142.058V71.2112V0.371765" stroke="#E0E0E0" stroke-miterlimit="10"/>
<path d="M1185.63 212.898H1100.98V283.737H1185.63V212.898Z" fill="#F2F2F2" stroke="#E0E0E0" stroke-miterlimit="10"/>
<path d="M1354.95 0.371765V71.2112V142.058V212.898V283.737V354.577V425.423V496.263V567.102V637.942V708.789" stroke="#E0E0E0" stroke-miterlimit="10"/>
<g filter="url(#filter0_f_1_3)">
<rect x="317.186" y="-120.751" width="230.681" height="1021.5" fill="white"/>
</g>
<g filter="url(#filter1_f_1_3)">
<rect x="1334.07" y="-135.236" width="230.681" height="1021.5" fill="white"/>
</g>
<g filter="url(#filter2_f_1_3)">
<rect x="547.867" y="145.893" width="230.681" height="244.107" fill="white"/>
</g>
<g filter="url(#filter3_f_1_3)">
<rect x="-115.34" y="601.69" width="230.681" height="244.107" fill="white"/>
</g>
<g filter="url(#filter4_f_1_3)">
<rect width="231.086" height="439.618" transform="matrix(0.737089 -0.675795 0.672962 0.739677 465.008 531.683)" fill="white"/>
</g>
</g>
<defs>
<filter id="filter0_f_1_3" x="105.386" y="-332.551" width="654.281" height="1445.1" filterUnits="userSpaceOnUse" color-interpolation-filters="sRGB">
<feFlood flood-opacity="0" result="BackgroundImageFix"/>
<feBlend mode="normal" in="SourceGraphic" in2="BackgroundImageFix" result="shape"/>
<feGaussianBlur stdDeviation="105.9" result="effect1_foregroundBlur_1_3"/>
</filter>
<filter id="filter1_f_1_3" x="1122.27" y="-347.036" width="654.281" height="1445.1" filterUnits="userSpaceOnUse" color-interpolation-filters="sRGB">
<feFlood flood-opacity="0" result="BackgroundImageFix"/>
<feBlend mode="normal" in="SourceGraphic" in2="BackgroundImageFix" result="shape"/>
<feGaussianBlur stdDeviation="105.9" result="effect1_foregroundBlur_1_3"/>
</filter>
<filter id="filter2_f_1_3" x="336.067" y="-65.9067" width="654.281" height="667.707" filterUnits="userSpaceOnUse" color-interpolation-filters="sRGB">
<feFlood flood-opacity="0" result="BackgroundImageFix"/>
<feBlend mode="normal" in="SourceGraphic" in2="BackgroundImageFix" result="shape"/>
<feGaussianBlur stdDeviation="105.9" result="effect1_foregroundBlur_1_3"/>
</filter>
<filter id="filter3_f_1_3" x="-327.14" y="389.89" width="654.281" height="667.707" filterUnits="userSpaceOnUse" color-interpolation-filters="sRGB">
<feFlood flood-opacity="0" result="BackgroundImageFix"/>
<feBlend mode="normal" in="SourceGraphic" in2="BackgroundImageFix" result="shape"/>
<feGaussianBlur stdDeviation="105.9" result="effect1_foregroundBlur_1_3"/>
</filter>
<filter id="filter4_f_1_3" x="253.208" y="163.715" width="889.777" height="904.943" filterUnits="userSpaceOnUse" color-interpolation-filters="sRGB">
<feFlood flood-opacity="0" result="BackgroundImageFix"/>
<feBlend mode="normal" in="SourceGraphic" in2="BackgroundImageFix" result="shape"/>
<feGaussianBlur stdDeviation="105.9" result="effect1_foregroundBlur_1_3"/>
</filter>
<clipPath id="clip0_1_3">
<rect width="1440" height="780" fill="white"/>
</clipPath>
</defs>
</svg>
