<svg width="1960" height="1200" viewBox="0 0 1960 1200" fill="none" xmlns="http://www.w3.org/2000/svg">
<path d="M535.48 610.48L491.43 566.42H462.82L448.43 552.04V516.26L467.6 497.1H508.15L526.39 515.34H543.29V487.23L607.04 423.48V379.08H644.82V344.45L584.38 284.01H549.07V348.52H523.94L484.3 308.88V281.47L523.98 241.78V223.4H498.98L481.33 205.75V179.09H475.3H461.29V222.39H355.36L341.61 208.63H293.73H212.75L202.56 198.45H143.72L107.83 234.34V290.63L145.27 328.07H169.97L195.31 302.73H254.51L325.63 373.84V455.14L396.77 526.28V546.82L438.71 588.75H482.18L532.51 639.09V692.65L573.55 733.69V819.85L555.54 837.87V887.56L585.58 917.6H606.79V880.97L689.63 798.12V772.88L736.83 725.69V685.35L661.96 610.48H535.48Z" stroke="#231F20" stroke-width="3" stroke-linecap="round" stroke-linejoin="round"/>
<path d="M1151.15 764.55V805.55H1169.36V781.23L1184.77 765.82V747.67L1176.4 739.3L1151.15 764.55Z" stroke="#231F20" stroke-width="3" stroke-linecap="round" stroke-linejoin="round"/>
<path d="M569.27 179.09H496.34V201.22H541.61L565.32 224.93V247.98L599.44 282.1L624.78 256.76L606.96 238.94L618.03 227.86L569.27 179.09Z" stroke="#231F20" stroke-width="3" stroke-linecap="round" stroke-linejoin="round"/>
<path d="M1406.63 643.52V652.47L1435.25 681.09V689.71L1446.8 701.25H1456.8V682.31L1418.01 643.52H1406.63Z" stroke="#231F20" stroke-width="3" stroke-linecap="round" stroke-linejoin="round"/>
<path d="M716.7 79.0001H642.61L603 118.61H573.34V143.95H625.8L665.78 183.93V254.47L696.47 285.16H725.12L776.62 233.65H799.99L842.03 191.6V56.3301H739.38L716.7 79.0001Z" stroke="#231F20" stroke-width="3" stroke-linecap="round" stroke-linejoin="round"/>
<path d="M930.5 352.67V331.16L916.36 317.02V300.21H901.34V368.91H914.26L930.5 352.67Z" stroke="#231F20" stroke-width="3" stroke-linecap="round" stroke-linejoin="round"/>
<path d="M1227.39 140.327L1171.21 196.507L1184.18 209.468L1240.36 153.289L1227.39 140.327Z" stroke="#231F20" stroke-width="3" stroke-linecap="round" stroke-linejoin="round"/>
<path d="M503.06 144.46H554.88V105.75H586.58L630.38 61.9502H520.37L489.56 92.7702V106.26H503.06V144.46Z" stroke="#231F20" stroke-width="3" stroke-linecap="round" stroke-linejoin="round"/>
<path d="M889.54 340.33H869.42V360.45H889.54V340.33Z" stroke="#231F20" stroke-width="3" stroke-linecap="round" stroke-linejoin="round"/>
<path d="M1658.92 754.96L1650.57 746.6V732.54H1637.46V755.97L1629.74 763.7H1617.6L1606.78 752.88V732.54H1573.46L1543.75 762.25V773.63H1520.83L1498.42 796.04V839.84L1519.26 860.68H1551.73L1568.94 843.47H1595.19L1634.97 883.25H1667.51L1697.19 853.57V810.64L1658.92 772.37V754.96Z" stroke="#231F20" stroke-width="3" stroke-linecap="round" stroke-linejoin="round"/>
<path d="M1698.07 186.9H1483.48L1469.39 172.81L1493.5 148.71V135.29H1418.97L1381.7 172.56H1270.08V195.9H1217.62L1137.91 275.61H1111.68V253.45H1128.49L1143.26 238.68V213.73H1024.59L956.6 281.72V314.57H992V329.85H1021.53V284.01L1051.08 254.47L1061.52 264.91L1043.69 282.74V331.38L1029.05 346.02H962.63L924.02 384.62V407.61H903.21L889.12 421.7V458.2H929.69L973.15 414.74L1013.73 455.31L1026.28 442.75L1011.76 428.23L1020.29 419.7L1048.3 447.71H1068.8L1086.05 464.97H1111.68V483.32L1100.48 494.53H1063.81L1052.6 483.32H1022.72L1011.86 494.19L989.11 471.44H906.94L852.95 525.43V595.2L898.54 640.78H979.26V706.4L1003.54 730.68V826.6L1035.71 858.77H1067.2L1099.59 826.39V779.74L1132.97 746.36V682.63L1180.22 635.38V609.29H1152.09L1119.49 576.7V527.46H1131.33V551.18L1172.29 592.14H1186.04L1221.18 557V542.74H1201.83L1171.27 512.18L1178.91 504.54L1198.27 523.9H1262.95L1285.36 546.31H1298.09V602.33L1316.17 620.41H1327.63L1337.18 610.86V586.54L1362.45 561.27V548.34H1379.33L1407.21 576.23H1421.6V622.51L1430.34 631.25V637.3L1451.9 658.87L1456.4 654.37V644.26L1431.32 619.18V600.8H1442.06L1459.03 617.78H1467.69L1480.34 605.13V584.85L1462.9 567.4V555.48H1489.08L1536.45 508.11V486.21L1521.68 471.44V444.95L1536.32 430.31L1554.02 448.01V472.97H1568.03L1577.7 463.29V437.57L1632.84 382.44V350.73H1614.88V326.79L1642.89 298.78H1739.66L1707.07 331.38V370.6H1723.88L1758.51 335.96V298.78H1788.39L1845.01 242.16V212.03H1723.2L1698.07 186.9Z" stroke="#231F20" stroke-width="3" stroke-linecap="round" stroke-linejoin="round"/>
<path d="M1733.98 882.82L1744.72 898.56L1772.6 870.67V855.65L1769.38 847.42L1733.98 882.82Z" stroke="#231F20" stroke-width="3" stroke-linecap="round" stroke-linejoin="round"/>
<path d="M1508.68 706.23H1470.48L1465.89 710.81L1473.02 717.94H1520.39L1508.68 706.23Z" stroke="#231F20" stroke-width="3" stroke-linecap="round" stroke-linejoin="round"/>
<path d="M1645.44 456.92V433.75H1638.82L1610.55 462.02V474.24H1589.16V487.1H1615.26L1645.44 456.92Z" stroke="#231F20" stroke-width="3" stroke-linecap="round" stroke-linejoin="round"/>
<path d="M1528.17 680.25V638.07H1515.53L1494.01 659.59H1482.16V673.12L1500.67 691.63H1516.8L1528.17 680.25Z" stroke="#231F20" stroke-width="3" stroke-linecap="round" stroke-linejoin="round"/>
<path d="M1583.8 686.2H1600.01L1633.37 719.56H1668.01L1682.14 733.69L1689.33 726.5L1670.09 707.25V694.86L1651.09 675.86H1623.95L1615.6 684.21H1610.71L1597.07 670.58H1590.84L1583.8 677.62V686.2Z" stroke="#231F20" stroke-width="3" stroke-linecap="round" stroke-linejoin="round"/>
<path d="M1649.48 398.44L1649.84 367.63L1646.18 363.89L1640.37 369.58L1639.92 407.77L1649.48 398.44Z" stroke="#231F20" stroke-width="3" stroke-linecap="round" stroke-linejoin="round"/>
<path d="M1094.95 450.19L1137.96 449.89L1137.88 439.62L1115.82 422.29L1083.2 427.94L1083.29 441.04L1094.95 450.19Z" stroke="#231F20" stroke-width="3" stroke-linecap="round" stroke-linejoin="round"/>
<path d="M1161.06 448.52L1170.82 471.41L1182.11 466.6L1176.32 453.02L1182.21 440.35L1177.9 430.22L1170.71 427.76L1161.06 448.52Z" stroke="#231F20" stroke-width="3" stroke-linecap="round" stroke-linejoin="round"/>
</svg>
