<svg width="750" height="750" viewBox="0 0 750 750" fill="none" xmlns="http://www.w3.org/2000/svg">
<rect width="750" height="750" transform="matrix(-1 0 0 1 750 0)" fill="white"/>
<path fill-rule="evenodd" clip-rule="evenodd" d="M535.923 404.068C535.2 407.558 536.009 411.204 537.332 414.514C537 414.83 536.669 415.145 536.337 415.461C529.718 410.308 522.996 405.048 518.183 398.177C516.156 395.283 518.551 391.057 521.798 389.662C525.045 388.268 528.737 388.698 532.268 388.548C536.516 388.369 540.725 387.3 544.544 385.43C550.09 382.717 555.178 378.24 561.351 378.148C562.032 378.138 562.762 378.2 563.298 378.622C564.603 379.65 563.806 381.743 562.825 383.085C557.958 389.743 550.663 394.586 542.637 396.484C539.167 397.304 536.646 400.577 535.923 404.068Z" fill="#00160A"/>
<path fill-rule="evenodd" clip-rule="evenodd" d="M429.438 505.771L517.189 525.356C535.124 529.358 552.908 518.064 556.911 500.129C558.84 491.484 557.243 482.427 552.473 474.964L504.058 399.203C489.153 375.88 484.162 347.577 490.191 320.562L509.775 232.811C513.778 214.876 502.484 197.092 484.549 193.089C475.904 191.16 466.847 192.757 459.384 197.526L383.623 245.942C360.3 260.847 331.996 265.838 304.982 259.809L217.231 240.224C199.296 236.222 181.512 247.516 177.509 265.451C175.58 274.096 177.177 283.153 181.946 290.616L230.362 366.377C245.267 389.7 250.258 418.004 244.229 445.018L224.644 532.769C220.641 550.704 231.936 568.488 249.871 572.491C258.516 574.42 267.573 572.823 275.036 568.054L350.797 519.638C374.12 504.733 402.423 499.742 429.438 505.771Z" fill="#00160A"/>
<path d="M120.803 471.608C120.803 471.608 514.059 471.816 669.759 471.608C681.979 444.967 666.605 409.369 638.832 400C647.524 409.916 656.216 419.832 664.908 429.747C649.637 429.594 120.803 429.747 120.803 429.747V471.608Z" fill="white"/>
<path fill-rule="evenodd" clip-rule="evenodd" d="M247.637 471.667C442.897 471.742 583.604 471.723 669.759 471.608C681.979 444.967 382.331 456.186 268.705 456.186C155.08 456.186 207.647 471.651 247.637 471.667Z" fill="#E7EAEE"/>
<path fill-rule="evenodd" clip-rule="evenodd" d="M328.956 166.191C327.568 164.609 324.829 164.492 323.311 165.95C328.213 156.241 342.555 153.331 345.636 142.9C349.581 129.548 355.399 116.75 362.867 105C365.975 116.552 371.912 127.333 380.014 136.135C382.121 136.144 384.229 136.154 386.337 136.163C391.125 136.185 395.956 136.211 400.632 137.24C409.046 139.092 416.587 144.11 425.111 145.358C424.479 144.567 423.848 143.776 423.216 142.984C423.392 142.168 424.575 141.794 425.188 142.362C426.268 138.067 429.746 134.695 433.691 132.684C437.637 130.674 443.455 126.932 455.101 127.916C440.971 143.733 445.347 209.579 441.871 222.058C440.686 222.374 439.778 221.078 439.007 220.124C438.236 219.17 436.436 218.583 436.019 219.738C433.125 227.76 432.714 240.106 423.842 244.886C422.13 245.808 421.112 244.085 421.245 243.245C421.414 242.173 420.126 241.347 419.053 241.51C417.979 241.672 417.121 242.45 416.284 243.141C402.172 254.793 379.065 248.787 364.937 260.419C362.145 262.717 359.685 265.712 356.201 266.68C354.122 267.257 351.907 267.03 349.783 266.649C337.136 264.382 325.876 256.878 317.092 247.501C308.308 238.124 301.75 226.912 295.644 215.607C301.27 212.421 307.184 208.949 310.241 203.251C312.649 198.762 314.13 192.328 319.194 191.779C317.588 196.996 315.981 202.214 314.375 207.431C313.787 209.342 313.192 211.334 313.503 213.309C313.814 215.283 315.323 217.223 317.319 217.323C320.029 217.459 321.937 214.393 324.627 214.044C325.137 224.135 329.012 234.028 335.491 241.781C337.74 244.471 342.063 246.914 344.345 244.252C340.882 238.657 337.418 233.061 333.955 227.466C331.796 223.979 329.582 220.331 329.186 216.249C328.79 212.168 330.814 207.538 334.739 206.348C334.914 205.268 333.775 204.342 332.682 204.309C331.59 204.277 330.583 204.856 329.644 205.416C326.151 207.499 322.657 209.583 319.164 211.667C320.278 203.383 322.558 195.256 325.914 187.601C322.662 187.293 319.337 187.789 316.318 189.035C318.643 182.309 322.905 176.266 328.46 171.819C330.104 170.504 330.344 167.773 328.956 166.191Z" fill="white"/>
<path fill-rule="evenodd" clip-rule="evenodd" d="M398.725 148.339C395.847 150.244 393.577 153.053 392.317 156.267C391.926 157.266 390.813 157.748 390.063 158.516C389.312 159.283 389.188 160.923 390.24 161.138C390.7 161.231 391.151 160.978 391.554 160.737C398.007 156.884 405.855 153.773 412.895 156.405C411.737 156.996 411.153 158.513 411.614 159.728C410.178 159.78 408.838 160.426 407.547 161.06C406.41 161.618 405.273 162.175 404.137 162.733C404.256 163.069 404.375 163.405 404.494 163.74C409.634 161.123 415.912 160.851 421.259 163.014C419.482 163.284 417.671 163.333 415.882 163.16C413.273 164.475 410.664 165.79 408.056 167.105C407.475 167.397 406.863 167.719 406.536 168.281C406.21 168.843 406.334 169.714 406.941 169.946C411.655 165.788 418.323 163.95 424.502 165.105C425.223 165.239 425.716 164.234 425.41 163.567C425.104 162.9 424.37 162.558 423.688 162.29C420.263 160.941 416.651 160.069 412.988 159.706C414.821 158.007 416.943 156.622 419.235 155.629C419.613 154.338 417.75 153.101 416.706 153.949C408.773 152.394 400.275 153.937 393.395 158.181C393.337 156.832 394.338 155.697 395.275 154.723C398.202 151.68 401.13 148.637 404.057 145.594C398.931 146.243 393.906 147.687 389.217 149.856C388.157 150.347 387.109 150.877 386.148 151.542C382.531 154.047 380.377 158.527 380.682 162.917C382.874 158.285 386.343 154.265 390.604 151.419C393.04 149.793 395.802 148.526 398.725 148.339V148.339Z" fill="#E7EAEE"/>
<path fill-rule="evenodd" clip-rule="evenodd" d="M585.062 367.27C592.485 373.933 591.836 385.722 589.157 395.33C585.71 407.691 579.881 419.383 572.085 429.574L664.908 430.507L638.832 400.76C666.605 410.129 681.979 445.727 669.759 472.368C514.059 472.575 358.36 472.257 202.663 471.412C231.061 490.605 258.591 513.889 271.787 545.522C284.983 577.156 279.519 618.746 251.466 638.439C241.016 645.774 228.469 649.533 215.925 651.908C202.991 654.358 187.329 654.461 179.345 643.994C174.683 637.881 176.912 628.289 179.116 618.802C180.654 612.185 182.179 605.619 181.345 600.321C178.518 582.357 166.425 573.247 152.625 562.852C149.726 560.668 146.752 558.428 143.773 556.036C118.333 535.62 89.1716 509.806 81.7474 478.043C74.9661 449.03 82.4294 420.25 101.824 397.632C108.807 389.488 117.392 382.076 126.02 374.627C137.613 364.616 149.285 354.538 157.256 342.526C162.123 335.191 163.829 327.349 165.62 319.121C166.262 316.167 166.916 313.164 167.73 310.116C178.186 270.986 215.472 250.866 253.865 230.149L253.867 230.148L253.869 230.147L253.869 230.147L253.875 230.144C258.734 227.522 263.611 224.89 268.453 222.209C290.672 209.907 313.097 194.161 320.231 169.513C316.297 169.666 314.838 163.753 317.105 160.533C318.791 158.139 321.454 156.792 324.111 155.448L324.111 155.448C325.027 154.985 325.942 154.522 326.816 154.017C334.928 149.327 339.579 139.759 344.342 129.961C351.497 115.24 358.906 100 378.685 100C379.431 104.994 378.659 109.444 377.936 113.613C376.819 120.055 375.818 125.827 380.714 131.905C394.731 130.351 409.222 133.416 421.409 140.513C428.455 127.137 446.324 121.423 460.809 125.753C458.975 128.062 457.887 129.22 456.986 130.18C455.081 132.208 454.006 133.352 448.48 142.594C440.337 156.21 445.496 206.266 446.784 214.181C448.073 222.095 441.975 227.719 436.397 223.811C439.114 235.541 429.326 246.736 417.29 247.073C413.179 247.806 410.624 249.795 408.21 251.674C406.708 252.843 405.261 253.97 403.527 254.726C441.745 282.062 484.053 303.669 528.604 318.604L529.388 318.867C537.724 321.657 546.437 324.573 552.34 331.051C558.427 337.732 559.857 349.592 552.773 355.206C557.098 359.128 563.017 360.194 568.938 361.261C574.835 362.323 580.734 363.386 585.062 367.27ZM190.258 420.173C197.155 426.691 210.659 427.032 220.148 426.993L343.206 426.489C346.761 421.765 344.562 414.505 339.97 410.783C335.377 407.06 329.194 406.058 323.301 405.591C304.279 404.085 284.934 406.818 267.074 413.534C262.059 414.426 258.251 408.098 259.463 403.151C260.675 398.204 264.888 394.665 268.806 391.41C281.448 380.908 293.844 369.081 299.778 353.754C305.932 337.859 304.147 319.108 295.104 304.66C310.286 317.272 313.476 340.455 306.658 358.977C299.84 377.499 284.867 391.906 268.644 403.147C277.504 404.964 286.703 402.94 295.808 400.937C306.841 398.51 317.738 396.112 327.73 400.614L329.79 344.41L335.131 393.675C335.528 397.338 336.681 401.87 340.302 402.551C350.129 404.4 355.956 417.27 350.86 425.875C355.252 428.838 361.951 427.513 364.883 423.1C367.815 418.688 366.441 411.998 362.008 409.098C351.254 402.063 350.403 386.91 350.696 374.063L352.715 285.367C352.764 283.226 352.279 280.411 350.158 280.116C319.109 275.802 291.503 252.473 282.073 222.578C254.556 234.904 227.035 249.117 204.831 268.69C154.019 313.483 167.956 350.728 171.602 360.471C172.241 362.178 172.564 363.041 172.168 362.952C169.634 362.386 168.432 359.533 167.73 357.034C166.091 351.195 165.024 345.195 164.549 339.149C156.163 354.728 142.811 366.565 129.433 378.425C117.204 389.266 104.954 400.126 96.4526 413.882C83.3424 435.095 80.5981 462.397 89.2242 485.795C99.4142 513.435 122.834 532.77 145.934 551.84C151.484 556.423 157.017 560.99 162.342 565.654C173.489 575.415 184.704 587.509 185.064 602.321C185.16 606.29 184.451 610.202 183.741 614.12C183.24 616.89 182.737 619.662 182.518 622.46C181.99 629.215 183.656 636.9 189.377 640.532C191.789 642.063 194.658 642.694 197.486 643.103C226.806 647.337 262.721 627.497 271.085 599.078C279.292 571.191 264.886 536.787 245.958 514.724C234.199 501.018 218.984 491.224 203.718 481.396C194.411 475.405 185.085 469.401 176.513 462.492C168.479 456.017 160.545 449.038 155.461 440.059C150.378 431.08 148.552 419.665 153.118 410.412C156.861 402.829 164.237 397.564 171.469 392.4C180.564 385.908 189.432 379.577 190.563 369.004C190.424 373.754 188.419 379.076 186.431 384.351C184.698 388.95 182.978 393.514 182.521 397.632C181.539 406.474 183.792 414.063 190.258 420.173ZM175.295 402.042C162.942 402.177 155.687 417.815 159.162 429.669C162.637 441.524 172.843 449.962 182.521 457.639C187.376 461.491 192.737 465.531 198.935 465.577L666.25 469.074L668.298 432.822L578.17 432.736C566.512 432.725 553.294 433.391 545.7 442.237C542.939 445.454 538.022 441.951 534.653 439.378C526.672 433.282 515.835 432.985 505.793 432.944L176.058 431.606C172.522 431.592 167.764 430.404 167.88 426.87L190.053 426.036C182.09 420.555 176.595 411.621 175.295 402.042ZM518.223 428.803C513.277 416.857 509.524 404.416 507.039 391.728C506.341 388.164 505.741 384.515 506.215 380.915C507.639 370.111 517.898 363 527.324 357.529C523.301 357.449 519.869 354.605 517.287 351.519C516.568 350.66 515.882 349.766 515.196 348.873C513.416 346.556 511.637 344.24 509.292 342.526C504.482 339.011 503.712 338.948 493.775 338.133L493.773 338.133L493.74 338.13C492.726 338.047 491.618 337.956 490.4 337.853C481.661 337.112 460.528 329.15 445.097 323.336L445.097 323.336L445.097 323.336C437.225 320.37 430.837 317.963 428.336 317.36C394.112 309.101 370.389 319.914 365.046 325.741C362.131 328.922 361.415 333.482 360.83 337.757C358.194 356.988 355.558 376.522 358.334 395.733C358.852 399.319 359.81 403.273 362.851 405.243C365.901 407.218 368.772 409.468 371.42 411.956C375.665 415.945 379.481 422.422 376.184 427.224L518.223 428.803ZM323.415 164.524C324.933 163.066 327.672 163.183 329.06 164.765C330.448 166.347 330.208 169.077 328.565 170.393C323.009 174.84 318.747 180.883 316.422 187.608C319.441 186.363 322.766 185.866 326.018 186.174C322.662 193.83 320.382 201.956 319.268 210.241L329.749 203.989C330.687 203.429 331.694 202.851 332.786 202.883C333.879 202.915 335.018 203.842 334.843 204.921C330.919 206.111 328.895 210.741 329.29 214.823C329.686 218.905 331.9 222.553 334.059 226.04L344.449 242.825C342.167 245.488 337.844 243.045 335.595 240.354C329.116 232.601 325.241 222.709 324.731 212.617C323.481 212.78 322.4 213.528 321.33 214.269C320.095 215.124 318.874 215.97 317.423 215.897C315.427 215.797 313.918 213.857 313.607 211.882C313.296 209.908 313.891 207.915 314.479 206.005L319.298 190.353C315.37 190.778 313.597 194.746 311.876 198.599C311.378 199.713 310.885 200.818 310.345 201.825C307.288 207.522 301.374 210.995 295.748 214.181C301.854 225.486 308.412 236.698 317.196 246.075C325.98 255.452 337.24 262.956 349.887 265.222C352.011 265.603 354.226 265.831 356.305 265.253C358.91 264.53 360.943 262.673 362.969 260.821C363.653 260.197 364.337 259.572 365.041 258.992C372.101 253.18 381.403 251.772 390.704 250.364C400.016 248.954 409.328 247.544 416.388 241.715L416.478 241.64L416.589 241.548C417.363 240.904 418.169 240.233 419.157 240.083C420.23 239.92 421.518 240.747 421.349 241.819C421.216 242.659 422.234 244.382 423.946 243.459C430.548 239.902 432.465 232.156 434.206 225.12C434.805 222.7 435.383 220.364 436.123 218.311C436.54 217.157 438.34 217.743 439.111 218.698L439.158 218.756C439.204 218.814 439.251 218.873 439.299 218.932C440.029 219.849 440.884 220.923 441.975 220.631C443.277 215.844 442.823 210.433 442.384 205.198C442.206 203.067 442.029 200.965 441.975 198.946C441.97 198.763 441.914 198.211 441.825 197.346C440.817 187.492 435.647 136.971 455.1 127.916C450.475 127.005 443.011 127.848 436.397 131.905C429.706 136.009 424.898 143.534 425.215 143.932C420.594 143.255 416.261 141.47 411.922 139.683C408.258 138.173 404.589 136.662 400.736 135.814C396.06 134.784 391.229 134.758 386.441 134.737L380.118 134.708C373.305 127.307 373.569 119.2 373.875 109.798L373.875 109.796C373.933 108.017 373.992 106.191 374.005 104.315C362.199 105.866 349.685 128.121 345.74 141.474C344.093 147.051 339.226 150.478 334.305 153.944C330.021 156.96 325.696 160.006 323.415 164.524ZM524.648 321.964C523.296 321.62 521.952 321.279 520.626 320.928C500.344 315.562 481.415 306.118 462.649 296.737C440.292 285.561 417.549 274.115 399.613 256.706C398.226 255.361 396.028 255.454 394.112 255.701C387.027 256.614 380.057 258.423 373.422 261.07C369.945 262.457 366.035 264.84 366.011 268.583C366.002 269.901 366.508 271.161 367.006 272.381L370.346 280.569C371.771 284.062 373.221 287.685 373.098 291.456C372.975 295.226 370.834 299.206 367.206 300.242C363.579 301.278 359.098 297.903 360.035 294.249C361.64 287.991 362.739 281.604 363.316 275.17C356.248 289.167 358.686 305.868 361.292 321.33C370.646 316.402 380.439 312.304 390.516 309.101C393.977 308.001 397.857 307.032 401.126 308.613C409.131 312.483 424.199 313.514 425.682 312.474C427.166 311.434 429.196 311.936 430.905 312.537C433.658 313.504 438.905 315.55 445.173 317.993L445.174 317.994L445.174 317.994L445.175 317.994L445.176 317.994L445.176 317.995C460.557 323.991 482.087 332.384 488.015 333.135C489.575 333.333 491.144 333.479 492.713 333.626L492.714 333.626C496.107 333.942 499.499 334.259 502.796 335.093C507.619 336.313 512.373 338.841 514.926 343.111C516.833 342.062 518.023 340.207 519.22 338.342L519.22 338.342C519.798 337.442 520.377 336.54 521.039 335.724C523.073 333.219 527.343 331.673 529.293 334.244C531.004 328.393 539.665 326.135 544.015 330.405C544.687 331.065 545.248 331.825 545.809 332.586C546.392 333.376 546.975 334.166 547.682 334.844C549.071 336.172 551.294 336.99 552.905 335.943C546.32 327.466 535.234 324.651 524.648 321.964ZM546.113 428.215C551.082 430.003 556.564 428.261 561.493 426.367C566.153 424.577 571.016 422.442 573.847 418.33C577.253 413.383 576.886 406.854 576.384 400.868L574.282 375.792C577.4 378.415 579.69 382.007 580.751 385.941C583.271 380.382 579.523 372.958 573.554 371.684C576.076 369.595 580.226 370.966 582.006 373.714C583.786 376.462 583.746 380.001 583.225 383.234C583.085 384.105 582.914 384.976 582.743 385.846L582.743 385.846L582.743 385.847L582.743 385.847L582.743 385.847C582.28 388.204 581.818 390.562 581.96 392.948C585.707 387.094 586.421 379.407 583.817 372.963C582.638 370.044 580.547 367.188 577.491 366.437C574.434 365.685 570.651 368.183 571.157 371.289C572.318 378.409 568.998 385.718 563.906 390.829C558.815 395.94 552.143 399.159 545.409 401.745C542.93 402.697 539.848 404.877 541.057 407.241C542.319 409.71 543.19 412.504 542.756 415.243C542.323 417.982 540.316 420.599 537.584 421.071C534.216 421.653 531.219 419.044 528.798 416.632L514.493 402.381C516.399 407.677 518.636 412.854 521.184 417.873C522.93 421.311 524.927 424.792 528.083 427.007C531.24 429.221 535.86 429.797 538.846 427.358C540.509 425.998 542.779 426.902 544.891 427.744L544.892 427.744L544.893 427.745C545.308 427.91 545.717 428.073 546.113 428.215ZM547.529 378.345C548.864 377.46 550.199 376.574 551.583 375.794C555.87 373.375 561.563 372.075 565.498 375.031C566.76 370.971 564.266 366.61 561.013 363.871C555.259 359.027 546.823 357.606 539.799 360.299C533.14 362.851 526.381 365.63 521.092 370.413C515.802 375.197 512.186 382.43 513.545 389.431C515.032 389.793 516.274 388.599 517.434 387.482C517.655 387.269 517.874 387.059 518.09 386.863C521.38 383.887 525.892 383.807 530.491 383.724H530.491C533.287 383.674 536.115 383.624 538.719 382.922C541.937 382.054 544.73 380.201 547.529 378.345ZM537.331 414.514C536.008 411.204 535.199 407.559 535.922 404.068C536.645 400.577 539.167 397.305 542.636 396.484C550.662 394.586 557.958 389.744 562.824 383.085C563.805 381.743 564.603 379.65 563.297 378.622C562.761 378.201 562.032 378.138 561.35 378.148C556.955 378.214 553.11 380.502 549.258 382.794C547.7 383.721 546.141 384.649 544.544 385.431C540.724 387.3 536.516 388.369 532.267 388.549C531.416 388.585 530.555 388.587 529.693 388.59C526.982 388.597 524.261 388.604 521.797 389.663C518.55 391.057 516.155 395.283 518.182 398.178C522.995 405.048 529.717 410.308 536.337 415.461L537.331 414.514ZM293.71 218.13C292.971 216.796 291.875 215.263 290.36 215.435C288.397 215.659 288.002 218.337 288.272 220.293C290.183 234.173 298.775 246.514 309.706 255.279C320.636 264.045 333.787 269.594 347.09 273.993C348.004 274.295 348.9 274.865 349.781 275.425C351.463 276.495 353.086 277.528 354.664 276.582C356.483 275.491 356.019 272.499 354.364 271.172C352.862 269.969 350.862 269.711 348.935 269.462C348.738 269.437 348.542 269.412 348.347 269.385C335.485 267.654 323.998 260.023 315.211 250.472C306.424 240.921 299.995 229.485 293.71 218.13ZM532.198 335.045C531.04 336.425 529.763 337.946 528.004 337.908C526.525 337.876 525.604 339.078 524.649 340.322C523.972 341.205 523.278 342.109 522.357 342.611C520.154 343.812 519.965 347.155 521.411 349.206C522.857 351.256 525.366 352.254 527.793 352.888C532.743 354.181 537.969 354.404 543.01 353.539C546.298 352.974 549.707 351.818 551.779 349.204C553.852 346.589 553.911 342.198 551.167 340.301C550.249 339.666 549.144 339.37 548.045 339.076C546.735 338.725 545.434 338.377 544.47 337.46C543.754 336.779 543.326 335.871 542.898 334.964C542.449 334.014 542.002 333.066 541.226 332.381C539.97 331.273 538.066 331.121 536.485 331.675C534.904 332.229 533.605 333.388 532.519 334.664L532.419 334.783L532.361 334.852L532.198 335.045ZM541.466 437.111C541.975 437.312 542.548 437.344 543.076 437.202C543.586 437.065 544.052 436.765 544.388 436.357C545.757 434.698 543.849 431.699 541.766 432.237C539.684 432.774 539.465 436.322 541.466 437.111ZM372.132 426.703C372.639 427.31 373.874 427.246 374.005 426.467C374.545 423.261 374.802 419.317 372.15 417.436L371.701 424.432C371.65 425.221 371.625 426.096 372.132 426.703ZM398.725 143.339C395.847 145.244 393.576 148.053 392.317 151.267C392.061 151.922 391.494 152.355 390.923 152.791C390.623 153.021 390.322 153.251 390.063 153.516C389.312 154.283 389.188 155.923 390.24 156.138C390.7 156.231 391.151 155.978 391.554 155.737C398.007 151.884 405.855 148.773 412.895 151.405C411.737 151.996 411.153 153.513 411.614 154.728C410.177 154.78 408.838 155.426 407.547 156.06L404.136 157.733L404.494 158.74C409.634 156.123 415.912 155.851 421.259 158.014C419.482 158.284 417.671 158.333 415.882 158.16L408.055 162.105C407.475 162.397 406.863 162.719 406.536 163.281C406.21 163.843 406.334 164.714 406.941 164.946C411.655 160.788 418.323 158.95 424.502 160.105C425.223 160.239 425.716 159.234 425.41 158.567C425.104 157.9 424.37 157.558 423.688 157.29C420.263 155.941 416.651 155.069 412.988 154.706C414.82 153.007 416.943 151.623 419.235 150.629C419.613 149.338 417.75 148.101 416.706 148.949C408.773 147.394 400.274 148.937 393.395 153.181C393.337 151.832 394.338 150.697 395.275 149.723L404.057 140.594C398.931 141.243 393.906 142.687 389.217 144.856C388.156 145.347 387.109 145.877 386.148 146.542C382.53 149.047 380.377 153.527 380.682 157.917C382.874 153.285 386.343 149.265 390.604 146.419C393.04 144.793 395.802 143.526 398.725 143.339ZM380.665 185.967C381.163 182.094 381.186 177.962 379.343 174.518C378.792 173.488 378.027 172.499 376.942 172.067C375.282 171.407 373.37 172.25 372.061 173.466C368.811 176.482 368.12 181.369 368.399 185.794C368.52 187.716 368.802 189.683 369.745 191.363C370.687 193.043 372.411 194.395 374.338 194.423C376.271 194.452 378.037 193.144 379.043 191.492C380.049 189.84 380.419 187.885 380.665 185.967ZM426.916 200.377C430.57 194.785 430.323 186.92 426.327 181.567C425.849 180.928 425.306 180.308 424.597 179.942C423.215 179.23 421.449 179.659 420.251 180.651C419.054 181.643 418.334 183.096 417.813 184.561C416.269 188.901 416.205 193.752 417.634 198.13C418.501 200.786 420.649 203.659 423.401 203.179C424.921 202.914 426.072 201.668 426.916 200.377ZM391.819 229.099C391.38 228.977 390.943 228.856 390.62 228.547C389.935 227.892 390.176 226.626 390.953 226.083C391.731 225.541 392.822 225.635 393.651 226.094C394.49 226.56 395.157 227.48 395.015 228.429C394.873 229.378 393.659 230.087 392.879 229.529C392.569 229.308 392.193 229.203 391.819 229.099ZM381.953 213.681C375.887 212.337 372.496 212.507 367.292 213.834L366.195 214.12C361.002 215.476 357.758 215.482 351.167 213.345C350.379 213.09 349.533 213.521 349.278 214.309C349.022 215.098 361.049 218.515 366.547 217.126L367.561 216.863C372.623 215.533 375.568 215.339 381.304 216.61C382.113 216.789 382.914 216.279 383.093 215.47C383.272 214.661 382.762 213.861 381.953 213.681ZM334.306 199.194C334.672 198.451 335.571 198.145 336.315 198.511C346.99 203.765 352.904 204.45 362.639 203.207L365.095 202.903C365.375 202.871 365.621 202.845 365.88 202.82L366.757 202.742C372.553 202.286 377.148 203.27 383.044 206.791C383.755 207.216 383.987 208.137 383.563 208.848C383.138 209.559 382.217 209.792 381.506 209.367C376.02 206.09 371.97 205.278 366.556 205.77C366.197 205.802 365.898 205.832 365.551 205.87L361.951 206.313C352.28 207.436 333.94 199.937 334.306 199.194ZM408.365 213.276C407.538 213.217 406.821 213.839 406.762 214.666C406.703 215.492 407.325 216.209 408.151 216.268C411.571 216.512 413.926 217.675 417.462 220.524L418.741 221.58L419.16 221.931C419.385 222.12 419.577 222.28 419.649 222.34C422.765 224.938 424.841 226.354 427.595 227.484C428.361 227.798 433.655 228.875 429.552 226.665C425.449 224.455 420.103 218.809 420.103 218.809L419.32 218.168C415.353 214.975 412.514 213.571 408.365 213.276ZM406.114 220.452C406.439 219.69 407.32 219.336 408.082 219.661C411.847 221.268 413.967 223.323 417.53 227.985L418.63 229.416C419.35 230.338 419.955 231.269 420.541 232.172C421.834 234.163 423.04 236.021 425.217 237.36C428.382 239.306 423.86 238.286 423.154 237.852C420.344 236.124 418.522 234.217 415.678 230.503L414.853 229.425C411.766 225.423 409.964 223.726 406.904 222.42C406.142 222.095 405.788 221.214 406.114 220.452Z" fill="#00160A"/>
<path fill-rule="evenodd" clip-rule="evenodd" d="M400.859 215.688C402.086 214.582 403.868 214.243 405.067 213.106C406.203 212.028 406.638 210.271 406.135 208.787C405.633 207.304 404.219 206.173 402.662 206.008C398.195 205.534 393.727 205.061 389.26 204.587C388.2 204.475 387.028 204.39 386.169 205.022C384.857 205.987 385.064 208.095 386.012 209.419C386.96 210.742 388.421 211.595 389.563 212.755C391.035 214.25 391.956 216.277 392.113 218.369C392.23 219.923 392.061 221.775 393.292 222.73C394.838 223.928 397.124 222.512 398.07 220.8C399.016 219.088 399.406 216.997 400.859 215.688H400.859Z" fill="#00160A"/>
<path fill-rule="evenodd" clip-rule="evenodd" d="M219.714 427.415C210.225 427.454 196.721 427.113 189.824 420.596C183.358 414.486 181.105 406.896 182.087 398.054C183.069 389.213 189.87 378.318 190.129 369.426C188.098 388.408 161.133 393.716 152.685 410.834C148.118 420.087 149.944 431.502 155.028 440.481C160.111 449.46 168.045 456.439 176.079 462.914C198.712 481.156 226.596 493.084 245.524 515.147C264.452 537.209 278.858 571.614 270.651 599.5C262.287 627.919 226.372 647.759 197.052 643.525C194.224 643.117 191.355 642.486 188.943 640.954C183.223 637.322 181.556 629.637 182.085 622.882C182.613 616.127 184.794 609.517 184.63 602.743C184.27 587.931 173.056 575.837 161.909 566.076C134.42 542.005 101.429 520.5 88.7905 486.217C80.1645 462.819 82.9088 435.517 96.019 414.304C113.822 385.498 148.065 369.389 164.115 339.571C164.59 345.617 165.658 351.617 167.297 357.456C167.998 359.955 169.2 362.808 171.734 363.375C174.394 363.969 144.683 321.753 204.398 269.112C226.602 249.539 254.122 235.326 281.64 223C291.07 252.895 318.675 276.224 349.724 280.538C351.846 280.833 352.33 283.648 352.282 285.789C351.608 315.354 350.935 344.92 350.262 374.485C349.97 387.332 350.821 402.486 361.574 409.52C366.008 412.42 367.381 419.11 364.45 423.522C361.518 427.935 354.818 429.261 350.427 426.297C355.522 417.693 349.696 404.823 339.868 402.973C336.248 402.292 335.095 397.76 334.698 394.098C332.917 377.676 331.137 361.254 329.356 344.832C328.67 363.567 327.983 382.302 327.296 401.036C309.058 392.819 287.807 407.587 268.21 403.569C284.434 392.329 299.406 377.921 306.224 359.399C313.042 340.877 309.852 317.694 294.671 305.082C303.714 319.53 305.499 338.281 299.345 354.176C293.411 369.503 281.014 381.33 268.372 391.832C264.454 395.087 260.241 398.626 259.029 403.573C257.817 408.521 261.625 414.848 266.641 413.957C284.5 407.241 303.846 404.508 322.867 406.014C328.761 406.48 334.943 407.482 339.536 411.205C344.129 414.928 346.327 422.188 342.772 426.912C301.753 427.079 260.734 427.247 219.714 427.415Z" fill="white"/>
<path fill-rule="evenodd" clip-rule="evenodd" d="M197.486 643.103C194.658 642.694 191.789 642.063 189.377 640.532C183.656 636.9 181.99 629.215 182.518 622.46C183.047 615.704 185.228 609.095 185.064 602.321C184.704 587.509 173.489 575.415 162.342 565.654C134.854 541.583 101.863 520.077 89.2241 485.795C84.1637 472.069 147.704 514.043 182.518 563.461C207.049 598.282 209.606 644.853 197.486 643.103Z" fill="#E7EAEE"/>
<path fill-rule="evenodd" clip-rule="evenodd" d="M174.111 301.748C178.419 291.376 190.425 281.389 204.832 268.69C227.035 249.116 254.556 234.904 282.073 222.578C255.091 242.233 222.197 258.641 198.79 283.31C187.382 295.334 179.664 319.565 173.214 327.352C168.277 333.313 161.828 331.328 174.111 301.748Z" fill="#E7EAEE"/>
<path fill-rule="evenodd" clip-rule="evenodd" d="M364.245 297.68C363.266 295.543 362.578 285.683 367.733 285.683C370.948 289.333 370.618 296.338 364.245 297.68Z" fill="#00160A"/>
<path fill-rule="evenodd" clip-rule="evenodd" d="M520.626 320.928C532.329 324.025 545.479 326.383 552.905 335.943C551.294 336.99 549.071 336.172 547.682 334.843C546.294 333.515 545.386 331.751 544.015 330.405C539.665 326.134 531.004 328.393 529.293 334.244C527.343 331.673 523.073 333.219 521.039 335.724C519.005 338.229 517.753 341.556 514.926 343.111C512.373 338.841 507.619 336.313 502.796 335.093C497.973 333.873 492.95 333.76 488.015 333.135C479.671 332.078 471.518 329.529 464.058 325.645C464.512 326.576 433.603 313.173 405.319 311.23C384.665 309.811 365.24 319.25 361.292 321.33C358.686 305.868 356.248 289.167 363.316 275.17C362.739 281.604 361.64 287.991 360.035 294.249C359.098 297.903 363.579 301.278 367.206 300.242C370.834 299.206 372.975 295.226 373.098 291.456C373.221 287.685 371.771 284.062 370.346 280.569C369.233 277.84 368.119 275.11 367.006 272.381C366.508 271.161 366.002 269.901 366.011 268.583C366.035 264.84 369.945 262.457 373.422 261.07C380.057 258.423 387.027 256.614 394.112 255.701C396.028 255.454 398.226 255.361 399.613 256.706C417.549 274.115 440.292 285.561 462.649 296.737C481.415 306.118 500.344 315.562 520.626 320.928Z" fill="white"/>
<path fill-rule="evenodd" clip-rule="evenodd" d="M514.926 343.111C512.373 338.841 507.619 336.313 502.796 335.093C497.973 333.873 492.95 333.76 488.015 333.135C486.089 332.891 478.182 331.643 467.918 328.042C453.077 322.835 432.705 314.522 413.295 312.407C387.959 309.646 365.366 319.184 361.292 321.33C358.686 305.868 367.499 307.725 372.231 307.236C476.838 296.431 517.753 341.556 514.926 343.111Z" fill="#E7EAEE"/>
</svg>
