<svg width="263" height="266" viewBox="0 0 263 266" fill="none" xmlns="http://www.w3.org/2000/svg">
<path fill-rule="evenodd" clip-rule="evenodd" d="M82.463 256.24L92.096 262.693C92.002 261.55 91.341 259.578 88.636 256.833C86.19 254.348 86.964 249.426 87.453 247.28L83.541 246.373L82.463 256.24ZM93.125 265.79L80.342 257.226L81.798 243.916L89.942 245.803L89.634 246.826C89.11 248.566 88.165 253.503 90.061 255.428C95.708 261.161 93.895 264.538 93.67 264.905L93.125 265.789V265.79ZM119.718 239.951L124.51 247.481L135.703 244.201C134.778 243.639 132.97 243.075 129.557 243.482C126.507 243.842 124.509 239.352 123.634 236.806L119.718 239.951ZM123.631 249.823L117.069 239.513L124.713 233.374L125.117 234.842C125.885 237.636 127.751 241.719 129.321 241.495C136.918 240.59 138.344 243.982 138.481 244.372L138.83 245.367L123.631 249.823ZM99.297 180.754L97.572 179.741L114.218 151.409H89.146L76.833 171.305L75.133 170.252L88.032 149.409H117.713L99.297 180.754ZM32.85 174.308L30.873 174.003C31.174 172.056 38.457 126.238 57.492 120.119C62.878 118.39 66.718 120.086 66.88 120.161L66.051 121.981C66.024 121.971 62.714 120.541 58.105 122.023C40.233 127.767 32.922 173.843 32.85 174.308Z" fill="#1B1A19"/>
<path fill-rule="evenodd" clip-rule="evenodd" d="M65.537 122.072C64.874 122.072 64.204 122.297 63.514 122.75C58.589 125.983 57.458 131.49 57.447 131.544L57.445 131.557C56.159 137.699 52.911 154.531 50.413 167.569C50.057 169.425 50.676 171.557 52.111 173.415C53.86 175.682 56.544 177.198 59.115 177.37L89.641 178.71L90.432 174.93C77.965 172.317 63.4 169.097 62.425 168.121C61.588 167.285 59.846 165.543 61.884 163.251C63.124 161.508 71.963 132.708 71.638 129.823C71.42 127.885 69.455 123.591 66.899 122.391C66.4744 122.185 66.0091 122.076 65.537 122.072ZM91.25 180.782L59.004 179.367C55.808 179.153 52.648 177.385 50.528 174.638C48.743 172.326 47.985 169.612 48.449 167.192C50.948 154.15 54.197 137.312 55.486 131.152C55.555 130.804 56.841 124.738 62.417 121.078C64.16 119.933 66.005 119.761 67.749 120.581C71.167 122.186 73.359 127.228 73.626 129.599C73.954 132.519 65.144 162.594 63.38 164.579C62.718 165.323 62.766 165.624 63.773 166.64C65.447 167.484 81.797 171.083 91.82 173.177L92.799 173.381L91.25 180.782Z" fill="#1B1A19"/>
<path fill-rule="evenodd" clip-rule="evenodd" d="M63.216 119.345C64.583 119.345 66.107 119.877 67.026 120.26L70.392 114.868L65.498 112.611L60.161 119.621C61.149 119.471 62.266 119.345 63.216 119.345ZM67.774 122.84L66.956 122.423C66.935 122.413 64.821 121.345 63.216 121.345C61.163 121.345 58.049 122.039 58.018 122.046L55.341 122.648L64.879 110.122L73.289 114.002L67.774 122.84Z" fill="#1B1A19"/>
<path fill-rule="evenodd" clip-rule="evenodd" d="M67.505 110.041C71.079 113.022 75.349 116.181 76.311 116.301C76.437 116.331 76.481 116.271 76.506 116.245C76.997 115.77 76.997 113.631 76.996 112.07V111.907C76.996 109.097 75.988 104.897 73.735 101.844L72.215 99.8973L68.107 102.72L67.505 110.041ZM76.322 118.301C76.291 118.301 76.26 118.299 76.23 118.298C74.322 118.235 68.316 113.341 65.821 111.24L65.426 110.908L66.192 101.609L72.633 97.1823L75.336 100.645C77.864 104.065 78.996 108.765 78.996 111.907V112.069C78.997 114.51 78.997 116.619 77.896 117.683C77.477 118.088 76.934 118.3 76.322 118.3V118.301Z" fill="#1B1A19"/>
<path fill-rule="evenodd" clip-rule="evenodd" d="M78.343 109.944C77.01 111.278 74.327 112.375 72.231 111.367C71.422 110.978 69.901 109.807 68.969 109.061C69.051 106.995 68.851 105.166 68.654 103.834C68.189 100.695 75.411 99.6853 75.911 96.3523C76.411 93.0193 71.411 91.1853 68.613 92.3523C65.815 93.5193 64.411 96.5193 60.911 98.1853C57.411 99.8523 58.411 103.519 58.744 106.685C59.077 109.852 62.026 116.005 65.911 115.092C66.181 115.029 66.428 114.932 66.654 114.807C67.491 114.345 68.549 114.615 69.183 115.33C70.694 117.035 72.469 119.057 73.177 119.941C74.51 121.604 77.01 121.111 78.343 118.278C79.677 115.444 79.677 108.611 78.343 109.944ZM90.459 247.302L77.85 243.81L77.976 242.94C78.141 241.787 82.056 214.68 84.016 208.767C84.71 206.672 85.872 203.012 87.47 197.89L89.38 198.486C87.778 203.62 86.613 207.29 85.915 209.396C84.202 214.564 80.783 237.569 80.082 242.353L89.138 244.861L100.05 210.655L101.955 211.262L90.459 247.302ZM108.307 191.35L106.402 190.742L107.645 186.844C107.854 186.201 107.906 185.518 107.798 184.85C107.69 184.183 107.424 183.551 107.022 183.007C106.626 182.46 106.105 182.014 105.502 181.708C104.9 181.402 104.233 181.244 103.557 181.247H98.434V179.247H103.557C105.587 179.247 107.438 180.188 108.636 181.828C109.225 182.625 109.615 183.551 109.774 184.53C109.933 185.508 109.856 186.51 109.55 187.452L108.307 191.349" fill="#1B1A19"/>
<path fill-rule="evenodd" clip-rule="evenodd" d="M94.288 197.063L117.923 238.831L125.235 232.953L103.863 185.758C103.249 184.391 102.265 183.223 101.023 182.384C99.7804 181.546 98.3286 181.071 96.831 181.013L59.479 179.446L32.664 175.292C32.544 175.874 32.411 176.449 32.281 177.012C31.309 181.206 30.391 185.169 35.092 191.306C39.758 197.397 78.971 197.541 93.684 197.081L94.288 197.063ZM117.342 241.865L93.142 199.099C85.376 199.321 39.457 200.293 33.505 192.523C28.23 185.637 29.299 181.023 30.333 176.56C30.537 175.678 30.73 174.846 30.876 173.988L31.041 173.018L59.73 177.46L96.915 179.015C100.744 179.175 104.105 181.443 105.685 184.935L127.696 233.541L117.342 241.865Z" fill="#1B1A19"/>
<path fill-rule="evenodd" clip-rule="evenodd" d="M93.716 198.081C93.716 198.081 49.19 199.469 36.879 193.747H0V207.251H98.434V206.421L93.716 198.081ZM92.091 178.797L96.132 178.987C95.693 178.312 94.049 176.879 92.439 175.983L92.091 178.797ZM98.218 181.087L89.841 180.694L90.778 173.127L91.958 173.558C94.043 174.318 98.212 177.229 98.216 179.058L98.218 181.086V181.087Z" fill="#1B1A19"/>
</svg>
