<svg width="210" height="334" viewBox="0 0 210 334" fill="none" xmlns="http://www.w3.org/2000/svg">
<path fill-rule="evenodd" clip-rule="evenodd" d="M67.4813 217.684H30.2305V215.53H65.327V33.3916H67.4813V217.684Z" fill="#1B1A19"/>
<path fill-rule="evenodd" clip-rule="evenodd" d="M14.9211 222.475C12.393 222.475 10.3432 220.425 10.3432 217.897C10.3432 215.368 12.393 213.319 14.9211 213.319C17.4491 213.319 19.4989 215.368 19.4989 217.897C19.4989 220.425 17.4491 222.475 14.9211 222.475ZM0 232.816H29.8401V202.976H0V232.816Z" fill="#1B1A19"/>
<path fill-rule="evenodd" clip-rule="evenodd" d="M97.8491 318.458L88.4736 312.79L88.4963 312.159C88.562 310.249 90.1507 265.305 91.8397 259.115C93.5222 252.948 120.665 197.284 121.82 194.917L123.755 195.862C123.474 196.439 95.5483 253.709 93.9186 259.683C92.3987 265.252 90.8746 306.01 90.671 311.602L96.717 315.257C98.8594 309.25 108.013 283.077 107.756 275.107C107.712 273.771 107.543 270.705 107.345 268.084C107.088 264.661 108.254 261.238 110.546 258.691C129.028 238.143 140.866 224.358 142.212 221.815C144.645 217.219 148.453 204.304 148.492 204.174L150.558 204.781C150.401 205.321 146.65 218.036 144.117 222.823C142.137 226.561 123.237 247.802 112.147 260.132C110.247 262.244 109.28 265.084 109.493 267.923C109.693 270.572 109.865 273.679 109.908 275.039C110.213 284.43 98.7851 315.893 98.2972 317.228L97.8491 318.458Z" fill="#1B1A19"/>
<path fill-rule="evenodd" clip-rule="evenodd" d="M66.4051 2.1544C58.0896 2.1544 51.3251 8.91885 51.3251 17.2344C51.3251 25.5499 58.0896 32.3144 66.4051 32.3144C74.7206 32.3144 81.4851 25.5499 81.4851 17.2344C81.4851 8.91885 74.7206 2.1544 66.4051 2.1544ZM66.4052 34.4685C56.9026 34.4685 49.1709 26.7368 49.1709 17.2343C49.1709 7.73172 56.9026 0 66.4052 0C75.9077 0 83.6394 7.73172 83.6394 17.2343C83.6394 26.7368 75.9077 34.4685 66.4052 34.4685Z" fill="#1B1A19"/>
<path fill-rule="evenodd" clip-rule="evenodd" d="M99.9681 166.033C98.6464 166.033 97.4669 165.614 96.2961 165.126C94.0976 164.21 71.161 152.747 70.1862 152.259L69.6056 151.969L69.416 143.318L70.9035 143.871C80.9877 147.622 96.8637 153.2 99.2658 153.2C101.325 153.2 114.153 146.208 125.177 139.629L126.282 141.48C122.398 143.797 102.849 155.354 99.2658 155.354C96.0882 155.354 77.4472 148.58 71.6392 146.44L71.7297 150.622C75.3974 152.454 95.1823 162.329 97.1255 163.138C99.2173 164.01 100.478 164.222 102.405 163.184C103.919 162.369 112.055 158.877 118.613 156.091L119.455 158.074C110.244 161.986 104.551 164.474 103.426 165.081C102.141 165.774 101.01 166.033 99.9681 166.033Z" fill="#1B1A19"/>
<path fill-rule="evenodd" clip-rule="evenodd" d="M126.057 177.297L123.942 176.884C123.95 176.846 124.674 172.947 123.271 168.348C122.541 165.957 121.268 163.752 120.144 161.807C118.988 159.805 117.989 158.077 117.844 156.571C117.519 153.222 119.63 149.504 121.864 145.569C123.725 142.293 125.648 138.905 126.202 135.662L126.385 134.587L127.458 134.784C128.519 134.979 133.893 136.059 135.468 138.107L133.759 139.42C133.08 138.534 130.32 137.624 128.098 137.116C127.301 140.356 125.494 143.541 123.738 146.633C121.677 150.263 119.73 153.692 119.987 156.364C120.088 157.404 121.021 159.019 122.009 160.729C123.192 162.774 124.531 165.093 125.331 167.72C126.898 172.858 126.091 177.118 126.057 177.297Z" fill="#1B1A19"/>
<path fill-rule="evenodd" clip-rule="evenodd" d="M127.249 193.424L131.754 197.421C142.496 187.726 153.622 176.831 154.082 174.944C155.32 169.137 142.154 145.394 140.349 144.085C138.67 143.323 135.348 142.452 133.868 143.513C133.135 144.039 132.845 145.106 133.007 146.684C133.116 147.753 135.372 152.827 137.362 157.305C140.71 164.835 142.913 169.908 143.014 171.745C143.197 175.015 131.801 188.269 127.249 193.424ZM131.763 200.31L124.207 193.606L124.924 192.799C132.596 184.176 140.871 173.718 140.863 171.86C140.776 170.286 137.792 163.573 135.394 158.18C132.674 152.064 131.001 148.246 130.863 146.904C130.616 144.501 131.205 142.771 132.613 141.762C135.575 139.638 140.734 141.9 141.313 142.165C143.952 143.37 157.65 168.535 156.187 175.394C155.445 178.88 136.308 196.225 132.479 199.666L131.763 200.31Z" fill="#1B1A19"/>
<path fill-rule="evenodd" clip-rule="evenodd" d="M124.581 112.323C123.612 113.982 122.726 115.456 121.935 116.772C118.126 123.105 116.992 125.182 118.51 126.7C119.735 127.92 126.218 125.347 131.688 122.113L133.341 113.958L124.581 112.323ZM119.614 129.102C118.524 129.102 117.609 128.844 116.987 128.223C114.206 125.442 116.049 122.377 120.089 115.661C120.979 114.182 121.988 112.504 123.1 110.585L123.48 109.927L135.887 112.241L133.611 123.472L133.206 123.716C130.791 125.172 123.873 129.102 119.614 129.102Z" fill="#1B1A19"/>
<path fill-rule="evenodd" clip-rule="evenodd" d="M0 333.975H118.043V331.096H0V333.975Z" fill="#1B1A19"/>
<path fill-rule="evenodd" clip-rule="evenodd" d="M134.614 333.914H149.525V331.76H134.614V333.914Z" fill="#1B1A19"/>
<path fill-rule="evenodd" clip-rule="evenodd" d="M128.224 135.027L131.573 136.141V124.557L126.919 126.943L128.224 135.027ZM133.727 139.127L126.304 136.659L124.542 125.741L133.727 121.031V139.127Z" fill="#1B1A19"/>
<path fill-rule="evenodd" clip-rule="evenodd" d="M121.504 98.5239C116.803 98.5239 117.039 106.816 119.549 108.611C122.057 110.407 121.159 110.589 124.032 111.124C126.904 111.661 131.572 113.1 130.854 115.254C130.136 117.408 127.94 117.462 129.487 119.59C131.033 121.717 131.362 126.384 130.928 130.334C130.495 134.283 128.366 139.145 132.483 143.446C136.599 147.747 141.346 148.889 144.628 148.139C147.909 147.388 162.63 139.49 162.27 130.334C161.912 121.178 151.32 123.387 147.729 119.59C144.139 115.793 142.703 106.816 137.137 105.38C131.572 103.944 126.527 102.328 125.729 101.251C124.93 100.174 125.131 98.5239 121.504 98.5239Z" fill="#1B1A19"/>
<path fill-rule="evenodd" clip-rule="evenodd" d="M67.4825 137.268V146.261C67.4825 147.218 67.9532 148.112 68.7385 148.655L69.5571 149.16C69.6864 145.964 69.6454 140.839 68.5661 138.946L68.4907 138.812C68.271 138.424 67.9263 137.814 67.4825 137.268ZM71.4646 152.868L67.561 150.458C66.1457 149.483 65.3281 147.925 65.3281 146.261V133.643L66.7467 134.115C68.6737 134.757 69.8166 136.78 70.3659 137.753L70.4381 137.88C72.3188 141.179 71.6822 150.102 71.6025 151.108L71.4646 152.868Z" fill="#1B1A19"/>
<path fill-rule="evenodd" clip-rule="evenodd" d="M72.7722 326.231L91.0222 331.234L95.9868 317.293L91.1504 314.1L88.5976 324.655L87.6745 324.574C87.6228 324.57 82.4589 324.126 78.8182 324.219C76.1103 324.289 74.0411 325.347 72.7722 326.231ZM92.3809 333.84L68.5879 327.319L69.7157 326.025C69.8514 325.87 73.1054 322.211 78.7647 322.066C81.6256 321.996 85.2567 322.228 86.9381 322.354L89.7763 310.614L98.5831 316.425L92.3809 333.84Z" fill="#1B1A19"/>
<path fill-rule="evenodd" clip-rule="evenodd" d="M196.621 309.722L201.157 314.443L200.593 315.177C200.561 315.218 197.41 319.331 195.529 322.45C194.118 324.791 193.897 327.098 193.965 328.636L207.192 316.676L200.901 306.981L196.621 309.722ZM192.637 332.742L192.152 331.096C192.095 330.897 190.762 326.187 193.684 321.339C195.16 318.891 197.314 315.954 198.326 314.604L193.249 309.322L201.543 304.014L210 317.043L192.637 332.742Z" fill="#1B1A19"/>
<path fill-rule="evenodd" clip-rule="evenodd" d="M177.172 280.775C169.632 275.389 162.451 260.668 160.655 254.77C158.861 248.871 155.269 244.87 148.543 240.472C144.014 237.511 141.41 232.624 140.598 225.854C138.785 228.134 136.209 231.196 133.276 234.604C142.156 250.028 153.233 263.613 157.121 267.257C161.586 271.444 194.245 309.963 194.245 309.963L198.279 307.38C198.279 307.38 184.712 286.16 177.172 280.775Z" fill="#1B1A19"/>
<path fill-rule="evenodd" clip-rule="evenodd" d="M134.591 234.727C143.459 249.972 154.246 263.088 157.856 266.473C162.031 270.386 189.826 303.094 194.456 308.549L199.806 305.126C196.635 299.126 178.274 264.404 177.027 262.407V262.408C176.071 260.878 170.935 257.537 168.742 256.11C167.944 255.59 167.34 255.196 167.081 255.001C165.685 253.954 166.603 252.385 167.097 251.541C167.411 251.004 167.767 250.395 167.767 249.953C167.767 249.41 167.021 248.99 165.971 248.454C165.559 248.245 165.131 248.028 164.757 247.779C163.934 247.23 161.859 242.757 151.127 216.463C150.195 214.18 149.367 212.149 148.742 210.631C147.399 214.776 145.551 220.113 144.116 222.824C143.36 224.248 140.244 228.144 134.591 234.727ZM194.031 311.379L193.423 310.66C193.096 310.276 160.754 272.142 156.384 268.044C152.643 264.537 141.392 250.862 132.343 235.143L131.962 234.482L132.46 233.903C139.66 225.536 141.738 222.712 142.212 221.816C143.92 218.59 146.304 211.269 147.573 207.193L148.409 204.508L149.581 207.065C149.936 207.842 151.273 211.116 153.122 215.649C156.919 224.952 164.766 244.179 166.06 246.054C166.312 246.212 166.621 246.369 166.947 246.534C168.202 247.173 169.921 248.046 169.921 249.953C169.921 250.979 169.386 251.894 168.956 252.628C168.82 252.861 168.631 253.185 168.541 253.397C168.831 253.599 169.315 253.912 169.917 254.304C173.656 256.736 177.738 259.481 178.854 261.265V261.266C180.254 263.506 201.28 303.302 202.174 304.996L202.637 305.871L194.031 311.379Z" fill="#1B1A19"/>
<path fill-rule="evenodd" clip-rule="evenodd" d="M125.536 194.783C124.09 195.5 123.37 196.405 123.397 197.478C123.445 199.372 125.564 201.303 126.087 201.486C126.093 201.486 126.1 201.486 126.105 201.486C126.638 201.487 128.42 200.324 130.137 198.865L125.536 194.783ZM125.989 203.617C125.769 203.617 125.564 203.585 125.374 203.519C123.995 203.035 121.314 200.327 121.243 197.533C121.205 196.021 121.882 193.923 125.323 192.518L125.944 192.265L133.362 198.847L132.493 199.655C130.825 201.204 127.918 203.617 125.989 203.617Z" fill="#1B1A19"/>
<path fill-rule="evenodd" clip-rule="evenodd" d="M125.73 193.516C125.73 193.516 142.123 175.09 141.94 171.805C141.854 170.254 139.681 165.194 137.382 160.001C127.083 163.02 119.544 172.711 119.544 184.208C119.544 188.569 120.629 192.671 122.536 196.248C122.926 195.234 123.883 194.27 125.73 193.516Z" fill="#1B1A19"/>
<path fill-rule="evenodd" clip-rule="evenodd" d="M150.564 159.879C153.463 166.149 155.721 172.417 155.134 175.17C154.428 178.49 131.759 198.865 131.759 198.865C131.759 198.865 128.972 201.45 127.037 202.286C131.472 206.682 137.516 209.393 144.181 209.393C157.788 209.393 168.819 198.118 168.819 184.207C168.819 172.555 161.077 162.755 150.564 159.879Z" fill="#1B1A19"/>
</svg>
