<svg width="565" height="340" viewBox="0 0 565 340" fill="none" xmlns="http://www.w3.org/2000/svg">
<g clip-path="url(#clip0_131_3999)">
<path fill-rule="evenodd" clip-rule="evenodd" d="M440.672 324.596H284.627V305.044H286.657V322.566H438.642V285.479H440.672V324.596Z" fill="#1B1A19"/>
<path fill-rule="evenodd" clip-rule="evenodd" d="M440.672 251.859H438.642V206.525H376.731V204.496H440.672V251.859Z" fill="#1B1A19"/>
<path fill-rule="evenodd" clip-rule="evenodd" d="M376.731 223.103H439.657V205.51H376.731V223.103Z" fill="#1B1A19"/>
<path fill-rule="evenodd" clip-rule="evenodd" d="M401.853 41.0836C399.701 41.0836 397.551 40.5974 395.878 39.6261C394.092 38.5889 393.115 37.1487 393.124 35.5725V5.50537H395.154V35.5786C395.149 36.4027 395.769 37.2147 396.898 37.8703C399.579 39.4293 404.125 39.4272 406.824 37.8693C407.95 37.2198 408.598 36.3814 408.603 35.5715V5.50537H410.633V35.5776C410.623 37.1568 409.631 38.593 407.838 39.6282C406.158 40.5984 404.004 41.0836 401.853 41.0836Z" fill="#1B1A19"/>
<path fill-rule="evenodd" clip-rule="evenodd" d="M396.931 3.21542C395.803 3.867 395.155 4.70634 395.154 5.51828C395.153 6.33327 395.773 7.14318 396.899 7.7978C399.577 9.35571 404.124 9.35571 406.824 7.79577C407.954 7.14419 408.602 6.30383 408.603 5.49088C408.605 4.67589 407.986 3.86598 406.861 3.21237C404.179 1.65446 399.633 1.65548 396.931 3.21542ZM401.852 11.01C399.7 11.01 397.551 10.5249 395.878 9.5526C394.099 8.51941 393.122 7.08532 393.124 5.51523C393.126 3.93702 394.119 2.49583 395.916 1.45654C399.282 -0.485006 404.536 -0.486021 407.879 1.45654C409.657 2.48974 410.636 3.92383 410.633 5.49392C410.63 7.07314 409.639 8.51535 407.838 9.55464C406.158 10.5249 404.003 11.01 401.852 11.01Z" fill="#1B1A19"/>
<path fill-rule="evenodd" clip-rule="evenodd" d="M396.388 8.676C397.785 9.48692 399.589 9.91725 401.424 9.97612V40.0494C399.589 39.9905 397.785 39.5602 396.388 38.7482C394.881 37.8724 394.133 36.7255 394.139 35.5786V5.50537C394.133 6.65224 394.881 7.7991 396.388 8.676Z" fill="#1B1A19"/>
<path fill-rule="evenodd" clip-rule="evenodd" d="M271.771 284.59H332.666V282.561H271.771V284.59Z" fill="#1B1A19"/>
<path fill-rule="evenodd" clip-rule="evenodd" d="M247.709 29.5062C241.063 29.5062 235.657 34.9137 235.657 41.5584V283.702C235.657 290.348 241.063 295.755 247.709 295.755H355.037C361.683 295.755 367.09 290.348 367.09 283.702V41.5584C367.09 34.9137 361.683 29.5062 355.037 29.5062H272.448C276.908 29.5062 265.178 29.5062 272.448 29.5062L279.5 29.5534C291.5 29.5062 276.732 29.5062 272.209 29.5062H247.709ZM355.037 297.784H247.709C239.945 297.784 233.627 291.468 233.627 283.702V41.5584C233.627 33.7942 239.945 27.4763 247.709 27.4763H272.448V29.5062C276 29.5062 275.445 29.5062 279.129 29.5062H272.448C274.739 29.5062 276.133 29.5062 272.448 29.5062V27.4763H355.037C362.802 27.4763 369.119 33.7942 369.119 41.5584V283.702C369.119 291.468 362.802 297.784 355.037 297.784Z" fill="#1B1A19"/>
<path fill-rule="evenodd" clip-rule="evenodd" d="M270.418 338.6H285.642V323.376H270.418V338.6Z" fill="#1B1A19"/>
<path fill-rule="evenodd" clip-rule="evenodd" d="M424.095 283.999H455.219V252.874H424.095V283.999ZM422.065 286.029H457.249V250.844H422.065V286.029Z" fill="#1B1A19"/>
<path fill-rule="evenodd" clip-rule="evenodd" d="M445.916 268.436C445.916 271.893 443.112 274.695 439.657 274.695C436.201 274.695 433.397 271.893 433.397 268.436C433.397 264.98 436.201 262.178 439.657 262.178C443.112 262.178 445.916 264.98 445.916 268.436Z" fill="#1B1A19"/>
<path fill-rule="evenodd" clip-rule="evenodd" d="M418.682 338.128H456.234V336.098H418.682V338.128Z" fill="#1B1A19"/>
<path fill-rule="evenodd" clip-rule="evenodd" d="M322.821 159.087L313.012 168.895L303.204 159.087L313.012 149.278L322.821 159.087Z" fill="#1B1A19"/>
<path fill-rule="evenodd" clip-rule="evenodd" d="M304.639 159.086L313.012 167.46L321.385 159.086L313.012 150.713L304.639 159.086ZM313.012 170.33L301.769 159.086L313.012 147.843L324.255 159.086L313.012 170.33Z" fill="#1B1A19"/>
<path fill-rule="evenodd" clip-rule="evenodd" d="M261.477 108.567L267.458 114.547L273.439 108.567L267.458 102.586L261.477 108.567ZM267.458 117.418L258.606 108.566L267.458 99.7153L276.309 108.566L267.458 117.418Z" fill="#1B1A19"/>
<path fill-rule="evenodd" clip-rule="evenodd" d="M333.551 129.557L339.532 135.537L345.512 129.557L339.532 123.577L333.551 129.557ZM339.532 138.408L330.681 129.557L339.532 120.705L348.382 129.557L339.532 138.408Z" fill="#1B1A19"/>
<path fill-rule="evenodd" clip-rule="evenodd" d="M258.267 209.232L264.248 215.213L270.229 209.232L264.248 203.251L258.267 209.232ZM264.248 218.083L255.396 209.232L264.248 200.381L273.099 209.232L264.248 218.083Z" fill="#1B1A19"/>
<path fill-rule="evenodd" clip-rule="evenodd" d="M339.391 192.569L345.372 198.55L351.352 192.569L345.372 186.588L339.391 192.569ZM345.372 201.42L336.521 192.569L345.372 183.718L354.222 192.569L345.372 201.42Z" fill="#1B1A19"/>
<path fill-rule="evenodd" clip-rule="evenodd" d="M309.902 152.448L270.787 113.33L272.222 111.895L311.337 151.013L309.902 152.448Z" fill="#1B1A19"/>
<path fill-rule="evenodd" clip-rule="evenodd" d="M318.071 154.338L316.636 152.903L336.049 133.49L337.484 134.925L318.071 154.338Z" fill="#1B1A19"/>
<path fill-rule="evenodd" clip-rule="evenodd" d="M340.974 189.605L316.58 165.212L318.015 163.777L342.409 188.17L340.974 189.605Z" fill="#1B1A19"/>
<path fill-rule="evenodd" clip-rule="evenodd" d="M268.672 206.242L267.237 204.807L308.081 163.963L309.516 165.398L268.672 206.242Z" fill="#1B1A19"/>
<path fill-rule="evenodd" clip-rule="evenodd" d="M335.783 125.888L314.467 104.572L315.902 103.137L337.218 124.453L335.783 125.888Z" fill="#1B1A19"/>
<path fill-rule="evenodd" clip-rule="evenodd" d="M343.981 125.208L342.546 123.773L348.973 117.346L350.409 118.781L343.981 125.208Z" fill="#1B1A19"/>
<path fill-rule="evenodd" clip-rule="evenodd" d="M312.294 258.715L267.998 214.418L269.433 212.983L313.73 257.28L312.294 258.715Z" fill="#1B1A19"/>
<path fill-rule="evenodd" clip-rule="evenodd" d="M330.956 209.617L329.521 208.182L341.544 196.158L342.979 197.593L330.956 209.617Z" fill="#1B1A19"/>
<path fill-rule="evenodd" clip-rule="evenodd" d="M352.949 201.751L348.277 197.079L349.712 195.644L354.384 200.316L352.949 201.751Z" fill="#1B1A19"/>
<path fill-rule="evenodd" clip-rule="evenodd" d="M253.796 221.118L252.361 219.683L260.377 211.667L261.812 213.102L253.796 221.118Z" fill="#1B1A19"/>
<path fill-rule="evenodd" clip-rule="evenodd" d="M257.374 121.22L255.939 119.785L263.599 112.124L265.034 113.559L257.374 121.22Z" fill="#1B1A19"/>
<path fill-rule="evenodd" clip-rule="evenodd" d="M263.71 104.899L252.049 93.2383L253.484 91.8032L265.145 103.464L263.71 104.899Z" fill="#1B1A19"/>
<path fill-rule="evenodd" clip-rule="evenodd" d="M274.191 107.885L272.756 106.45L313.113 66.092L314.548 67.5271L274.191 107.885Z" fill="#1B1A19"/>
<path fill-rule="evenodd" clip-rule="evenodd" d="M258.554 121.991L255.168 125.377L251.781 121.991L255.168 118.605L258.554 121.991Z" fill="#1B1A19"/>
<path fill-rule="evenodd" clip-rule="evenodd" d="M317.169 66.762L313.783 70.1478L310.397 66.762L313.783 63.3762L317.169 66.762Z" fill="#1B1A19"/>
<path fill-rule="evenodd" clip-rule="evenodd" d="M316.916 102.199L313.53 105.585L310.144 102.199L313.53 98.812L316.916 102.199Z" fill="#1B1A19"/>
<path fill-rule="evenodd" clip-rule="evenodd" d="M354.687 116.286L351.3 119.672L347.914 116.286L351.3 112.9L354.687 116.286Z" fill="#1B1A19"/>
<path fill-rule="evenodd" clip-rule="evenodd" d="M359.966 181.36L356.58 184.747L353.194 181.36L356.58 177.974L359.966 181.36Z" fill="#1B1A19"/>
<path fill-rule="evenodd" clip-rule="evenodd" d="M332.317 210.208L328.931 213.594L325.544 210.208L328.931 206.822L332.317 210.208Z" fill="#1B1A19"/>
<path fill-rule="evenodd" clip-rule="evenodd" d="M316.399 257.997L313.012 261.383L309.626 257.997L313.012 254.611L316.399 257.997Z" fill="#1B1A19"/>
<path fill-rule="evenodd" clip-rule="evenodd" d="M255.207 221.659L251.82 225.046L248.435 221.659L251.82 218.273L255.207 221.659Z" fill="#1B1A19"/>
<path fill-rule="evenodd" clip-rule="evenodd" d="M358.663 202.809L355.277 206.195L351.891 202.809L355.277 199.423L358.663 202.809Z" fill="#1B1A19"/>
<path fill-rule="evenodd" clip-rule="evenodd" d="M254.456 90.824L251.071 94.2108L247.685 90.824L251.071 87.4382L254.456 90.824Z" fill="#1B1A19"/>
<path fill-rule="evenodd" clip-rule="evenodd" d="M349.846 189.628L348.411 188.193L356.189 180.414L357.624 181.85L349.846 189.628Z" fill="#1B1A19"/>
<path fill-rule="evenodd" clip-rule="evenodd" d="M477.989 155.93C475.896 158.051 472.986 159.271 470.005 159.277L439.978 159.327L439.421 145.168L464.895 144.455C466.847 144.4 468.663 143.489 469.875 141.956L493.386 112.225C494.92 110.285 497.121 109.072 499.581 108.809C502.038 108.545 504.446 109.27 506.356 110.843C508.632 112.72 510.023 115.485 510.175 118.43C510.327 121.376 509.226 124.27 507.154 126.37L501.029 132.578L494.035 139.634L482.611 151.226L481.226 152.631L481.235 152.641L477.989 155.93ZM432.637 145.358L437.392 145.225L437.947 159.331L432.661 159.339L432.637 145.358ZM486.04 70.9354C488.813 71.253 490.481 74.3973 493.743 76.6261C497.004 78.8538 499.419 76.1927 500.943 79.8393C502.099 82.605 498.056 83.9031 498.146 86.5236C498.223 88.7808 502.52 90.9923 505.854 90.9517L507.365 96.1542C506.104 96.1755 504.804 96.3024 503.489 96.5328C501.439 96.8921 499.461 97.5792 497.592 98.5809C497.386 97.8694 497.156 97.024 496.937 96.1085L496.588 94.643L495.361 95.5179C494.965 95.8 494.584 96.1025 494.21 96.4008C492.457 97.7943 491.374 98.5484 489.515 97.7852C486.847 96.6942 485.608 89.75 484.671 82.4152L483.412 71.9838C484.063 71.2957 484.92 70.8075 486.04 70.9354ZM495.666 105.858L495.287 103.939C496.523 102.755 499.536 100.315 504.013 99.5319C505.304 99.3056 506.57 99.1919 507.773 99.1919C510.041 99.1919 511.641 99.5999 512.486 99.8861L512.983 101.532C512.076 101.423 511.025 101.345 509.87 101.345C506.072 101.345 500.771 102.19 495.666 105.858ZM523.115 111.572C528.19 118.676 539.88 145.59 539.88 145.59L523.093 162.377C523.653 157.678 524.72 146.388 522.684 141.864C520.963 138.042 517.957 137.012 515.306 136.104C513.675 135.545 511.989 134.967 510.407 133.737C509.151 132.76 508.221 131.526 507.564 129.967L507.233 129.18L508.6 127.795C511.07 125.291 512.383 121.839 512.202 118.326C512.022 114.813 510.361 111.515 507.646 109.277C505.312 107.354 502.368 106.475 499.366 106.791C498.642 106.869 497.938 107.016 497.258 107.224C501.735 104.154 506.35 103.374 509.87 103.374C513.457 103.374 515.904 104.179 515.904 104.179C516.93 104.685 519.372 106.332 523.115 111.572ZM484.067 152.66L502.426 134.052L505.694 130.754C506.465 132.587 507.594 134.12 509.16 135.338C513.727 138.891 518.548 137.622 520.831 142.697C523.115 147.771 520.831 164.046 520.831 164.046L507.928 177.542L484.067 152.66ZM430.606 156.851H426.394L419.201 157.999C418.685 158.081 418.164 158.096 417.647 158.037L405.626 156.707C405.227 156.601 404.87 156.309 404.612 155.881L403.424 153.897C402.966 153.133 402.93 152.074 403.332 151.261L404.558 148.792C404.855 148.19 405.352 147.805 405.886 147.761L419.861 146.612L416.364 142.634C416.142 142.381 415.957 142.081 415.819 141.749L419.435 143.459L423.629 146.064C423.901 146.28 424.144 146.547 424.353 146.859L425.901 148.511L430.606 148.286V156.851ZM393.544 154.157V153.269H401.085C401.179 153.86 401.378 154.432 401.683 154.941L402.872 156.923C402.904 156.979 402.948 157.022 402.982 157.075H396.462C394.853 157.075 393.544 155.766 393.544 154.157ZM396.462 142.527H413.953C414.176 143.06 414.468 143.551 414.839 143.973L415.67 144.92L405.72 145.737C404.469 145.841 403.355 146.646 402.739 147.891L401.515 150.359C401.375 150.639 401.275 150.937 401.195 151.239H393.544V145.445C393.544 143.836 394.853 142.527 396.462 142.527ZM563.527 124.208L510.993 71.6732C510.65 73.835 510.793 76.9569 511.052 78.1809C512.31 84.1243 512.451 90.6117 508.154 92.2569L507.853 90.5559C510.72 89.1513 510.714 83.2484 509.189 76.0496C507.606 68.5736 513.617 65.7664 505.317 59.8108C501.858 57.3303 489.272 57.0685 487.1 61.12C485.6 63.9192 483.115 59.3013 477.712 59.3439C472.309 59.3876 473.701 71.9909 481.711 75.3127C481.711 75.3127 481.725 75.2508 481.751 75.1595L482.655 82.6649C483.14 86.4536 483.652 89.6516 484.296 92.2387L452.327 124.208L468.519 140.4L468.284 140.697C467.445 141.758 466.189 142.387 464.838 142.426L430.604 143.385L430.609 146.254L426.733 146.44L425.989 145.656C425.659 145.178 425.269 144.764 424.831 144.426L420.457 141.704L415.676 139.436C415.182 139.204 414.629 139.262 414.191 139.588C413.892 139.812 413.7 140.137 413.611 140.497H396.461C393.733 140.497 391.514 142.717 391.514 145.445V154.157C391.514 156.885 393.733 159.105 396.461 159.105H407.687V158.972L417.424 160.055C417.709 160.086 417.994 160.102 418.28 160.102C418.696 160.102 419.113 160.069 419.524 160.002L426.475 158.881H430.631L430.635 161.372L470.009 161.306C473.527 161.3 476.962 159.86 479.434 157.356L482.434 154.316L492.332 164.213L506.461 178.948L507.93 180.477L522.3 165.448L522.579 165.155L563.527 124.208Z" fill="#1B1A19"/>
</g>
<g clip-path="url(#clip1_131_3999)">
<path fill-rule="evenodd" clip-rule="evenodd" d="M142.519 222.684H179.77V220.53H144.673V38.3916H142.519V222.684Z" fill="#1B1A19"/>
<path fill-rule="evenodd" clip-rule="evenodd" d="M195.079 227.475C197.607 227.475 199.657 225.425 199.657 222.897C199.657 220.368 197.607 218.319 195.079 218.319C192.551 218.319 190.501 220.368 190.501 222.897C190.501 225.425 192.551 227.475 195.079 227.475ZM210 237.816H180.16V207.976H210V237.816Z" fill="#1B1A19"/>
<path fill-rule="evenodd" clip-rule="evenodd" d="M112.151 323.458L121.526 317.79L121.504 317.159C121.438 315.249 119.849 270.305 118.16 264.115C116.478 257.948 89.335 202.284 88.18 199.917L86.245 200.862C86.526 201.439 114.452 258.709 116.081 264.683C117.601 270.252 119.125 311.01 119.329 316.602L113.283 320.257C111.141 314.25 101.987 288.077 102.244 280.107C102.288 278.771 102.457 275.705 102.655 273.084C102.912 269.661 101.746 266.238 99.454 263.691C80.972 243.143 69.134 229.358 67.788 226.815C65.355 222.219 61.547 209.304 61.508 209.174L59.442 209.781C59.599 210.321 63.35 223.036 65.883 227.823C67.863 231.561 86.763 252.802 97.853 265.132C99.753 267.244 100.72 270.084 100.507 272.923C100.307 275.572 100.135 278.679 100.092 280.039C99.787 289.43 111.215 320.893 111.703 322.228L112.151 323.458Z" fill="#1B1A19"/>
<path fill-rule="evenodd" clip-rule="evenodd" d="M143.595 7.1544C151.91 7.1544 158.675 13.9188 158.675 22.2344C158.675 30.5499 151.91 37.3144 143.595 37.3144C135.279 37.3144 128.515 30.5499 128.515 22.2344C128.515 13.9188 135.279 7.1544 143.595 7.1544ZM143.595 39.4685C153.097 39.4685 160.829 31.7368 160.829 22.2343C160.829 12.7317 153.097 5 143.595 5C134.092 5 126.361 12.7317 126.361 22.2343C126.361 31.7368 134.092 39.4685 143.595 39.4685Z" fill="#1B1A19"/>
<path fill-rule="evenodd" clip-rule="evenodd" d="M110.032 171.033C111.354 171.033 112.533 170.614 113.704 170.126C115.902 169.21 138.839 157.747 139.814 157.259L140.394 156.969L140.584 148.318L139.096 148.871C129.012 152.622 113.136 158.2 110.734 158.2C108.675 158.2 95.847 151.208 84.823 144.629L83.718 146.48C87.602 148.797 107.151 160.354 110.734 160.354C113.912 160.354 132.553 153.58 138.361 151.44L138.27 155.622C134.603 157.454 114.818 167.329 112.874 168.138C110.783 169.01 109.522 169.222 107.595 168.184C106.081 167.369 97.945 163.877 91.387 161.091L90.545 163.074C99.756 166.986 105.449 169.474 106.574 170.081C107.859 170.774 108.99 171.033 110.032 171.033Z" fill="#1B1A19"/>
<path fill-rule="evenodd" clip-rule="evenodd" d="M83.943 182.297L86.058 181.884C86.05 181.846 85.326 177.947 86.729 173.348C87.459 170.957 88.732 168.752 89.856 166.807C91.012 164.805 92.011 163.077 92.156 161.571C92.481 158.222 90.37 154.504 88.136 150.569C86.275 147.293 84.352 143.905 83.798 140.662L83.615 139.587L82.542 139.784C81.481 139.979 76.107 141.059 74.532 143.107L76.241 144.42C76.92 143.534 79.68 142.624 81.902 142.116C82.699 145.356 84.506 148.541 86.262 151.633C88.323 155.263 90.27 158.692 90.013 161.364C89.912 162.404 88.979 164.019 87.991 165.729C86.808 167.774 85.469 170.093 84.669 172.72C83.102 177.858 83.909 182.118 83.943 182.297Z" fill="#1B1A19"/>
<path fill-rule="evenodd" clip-rule="evenodd" d="M82.751 198.424L78.246 202.421C67.504 192.726 56.378 181.831 55.918 179.944C54.68 174.137 67.846 150.394 69.651 149.085C71.33 148.323 74.652 147.452 76.132 148.513C76.865 149.039 77.155 150.106 76.993 151.684C76.884 152.753 74.628 157.827 72.638 162.305C69.29 169.835 67.087 174.908 66.986 176.745C66.803 180.015 78.199 193.269 82.751 198.424ZM78.237 205.31L85.793 198.606L85.076 197.799C77.404 189.176 69.129 178.718 69.137 176.86C69.224 175.286 72.208 168.573 74.606 163.18C77.326 157.064 78.999 153.246 79.137 151.904C79.384 149.501 78.795 147.771 77.387 146.762C74.425 144.638 69.266 146.9 68.687 147.165C66.048 148.37 52.35 173.535 53.813 180.394C54.555 183.88 73.692 201.225 77.521 204.666L78.237 205.31Z" fill="#1B1A19"/>
<path fill-rule="evenodd" clip-rule="evenodd" d="M85.419 117.323C86.388 118.982 87.274 120.456 88.065 121.772C91.874 128.105 93.008 130.182 91.49 131.7C90.265 132.92 83.782 130.347 78.312 127.113L76.659 118.958L85.419 117.323ZM90.386 134.102C91.476 134.102 92.391 133.844 93.013 133.223C95.794 130.442 93.951 127.377 89.911 120.661C89.021 119.182 88.012 117.504 86.9 115.585L86.52 114.927L74.113 117.241L76.389 128.472L76.794 128.716C79.209 130.172 86.127 134.102 90.386 134.102Z" fill="#1B1A19"/>
<path fill-rule="evenodd" clip-rule="evenodd" d="M210 338.975H91.957V336.096H210V338.975Z" fill="#1B1A19"/>
<path fill-rule="evenodd" clip-rule="evenodd" d="M75.386 338.914H60.475V336.76H75.386V338.914Z" fill="#1B1A19"/>
<path fill-rule="evenodd" clip-rule="evenodd" d="M81.776 140.027L78.427 141.141V129.557L83.081 131.943L81.776 140.027ZM76.273 144.127L83.696 141.659L85.458 130.741L76.273 126.031V144.127Z" fill="#1B1A19"/>
<path fill-rule="evenodd" clip-rule="evenodd" d="M88.496 103.524C93.197 103.524 92.961 111.816 90.451 113.611C87.943 115.407 88.841 115.589 85.968 116.124C83.096 116.661 78.428 118.1 79.146 120.254C79.864 122.408 82.06 122.462 80.513 124.59C78.967 126.717 78.638 131.384 79.072 135.334C79.505 139.283 81.634 144.145 77.517 148.446C73.401 152.747 68.654 153.889 65.372 153.139C62.091 152.388 47.37 144.49 47.73 135.334C48.088 126.178 58.68 128.387 62.271 124.59C65.861 120.793 67.297 111.816 72.863 110.38C78.428 108.944 83.473 107.328 84.271 106.251C85.07 105.174 84.869 103.524 88.496 103.524Z" fill="#1B1A19"/>
<path fill-rule="evenodd" clip-rule="evenodd" d="M142.518 142.268V151.261C142.518 152.218 142.047 153.112 141.262 153.655L140.443 154.16C140.314 150.964 140.355 145.839 141.434 143.946L141.509 143.812C141.729 143.424 142.074 142.814 142.518 142.268ZM138.535 157.868L142.439 155.458C143.854 154.483 144.672 152.925 144.672 151.261V138.643L143.253 139.115C141.326 139.757 140.183 141.78 139.634 142.753L139.562 142.88C137.681 146.179 138.318 155.102 138.398 156.108L138.535 157.868Z" fill="#1B1A19"/>
<path fill-rule="evenodd" clip-rule="evenodd" d="M137.228 331.231L118.978 336.234L114.013 322.293L118.85 319.1L121.402 329.655L122.326 329.574C122.377 329.57 127.541 329.126 131.182 329.219C133.89 329.289 135.959 330.347 137.228 331.231ZM117.619 338.84L141.412 332.319L140.284 331.025C140.149 330.87 136.895 327.211 131.235 327.066C128.374 326.996 124.743 327.228 123.062 327.354L120.224 315.614L111.417 321.425L117.619 338.84Z" fill="#1B1A19"/>
<path fill-rule="evenodd" clip-rule="evenodd" d="M13.379 314.722L8.843 319.443L9.40699 320.177C9.43899 320.218 12.59 324.331 14.471 327.45C15.882 329.791 16.103 332.098 16.035 333.636L2.80799 321.676L9.09899 311.981L13.379 314.722ZM17.363 337.742L17.848 336.096C17.905 335.897 19.238 331.187 16.316 326.339C14.84 323.891 12.686 320.954 11.674 319.604L16.751 314.322L8.457 309.014L-5.72205e-06 322.043L17.363 337.742Z" fill="#1B1A19"/>
<path fill-rule="evenodd" clip-rule="evenodd" d="M32.828 285.775C40.368 280.389 47.549 265.668 49.345 259.77C51.139 253.871 54.731 249.87 61.457 245.472C65.986 242.511 68.59 237.624 69.402 230.854C71.215 233.134 73.791 236.196 76.724 239.604C67.844 255.028 56.767 268.613 52.879 272.257C48.414 276.444 15.755 314.963 15.755 314.963L11.721 312.38C11.721 312.38 25.288 291.16 32.828 285.775Z" fill="#1B1A19"/>
<path fill-rule="evenodd" clip-rule="evenodd" d="M75.409 239.727C66.541 254.972 55.754 268.088 52.144 271.473C47.969 275.386 20.174 308.094 15.544 313.549L10.194 310.126C13.365 304.126 31.726 269.404 32.973 267.407C33.929 265.877 39.065 262.537 41.258 261.11C42.056 260.59 42.66 260.196 42.919 260.001C44.315 258.954 43.397 257.385 42.903 256.541C42.589 256.004 42.233 255.395 42.233 254.953C42.233 254.41 42.979 253.99 44.029 253.454C44.441 253.245 44.869 253.028 45.243 252.779C46.066 252.23 48.141 247.757 58.873 221.463C59.805 219.18 60.633 217.149 61.258 215.631C62.601 219.776 64.449 225.113 65.884 227.824C66.64 229.248 69.756 233.144 75.409 239.727ZM15.969 316.379L16.577 315.66C16.904 315.276 49.246 277.142 53.616 273.044C57.357 269.537 68.608 255.862 77.657 240.143L78.038 239.482L77.54 238.903C70.34 230.536 68.262 227.712 67.788 226.816C66.08 223.59 63.696 216.269 62.427 212.193L61.591 209.508L60.419 212.065C60.064 212.842 58.727 216.116 56.878 220.649C53.081 229.952 45.234 249.179 43.94 251.054C43.688 251.212 43.379 251.369 43.053 251.534C41.798 252.173 40.079 253.046 40.079 254.953C40.079 255.979 40.614 256.894 41.044 257.628C41.18 257.861 41.369 258.185 41.459 258.397C41.169 258.599 40.685 258.912 40.083 259.304C36.344 261.736 32.262 264.481 31.146 266.265C29.746 268.505 8.72 308.302 7.826 309.996L7.36301 310.871L15.969 316.379Z" fill="#1B1A19"/>
<path fill-rule="evenodd" clip-rule="evenodd" d="M84.464 199.783C85.91 200.5 86.63 201.405 86.603 202.478C86.555 204.372 84.436 206.303 83.913 206.486C83.907 206.486 83.9 206.486 83.895 206.486C83.362 206.487 81.58 205.324 79.863 203.865L84.464 199.783ZM84.011 208.617C84.231 208.617 84.436 208.585 84.626 208.519C86.005 208.035 88.686 205.327 88.757 202.533C88.795 201.021 88.118 198.923 84.677 197.518L84.056 197.265L76.638 203.847L77.507 204.655C79.175 206.204 82.082 208.617 84.011 208.617Z" fill="#1B1A19"/>
<path fill-rule="evenodd" clip-rule="evenodd" d="M84.27 198.516C84.27 198.516 67.877 180.09 68.06 176.805C68.146 175.254 70.319 170.194 72.618 165.001C82.917 168.02 90.456 177.711 90.456 189.208C90.456 193.569 89.371 197.671 87.464 201.248C87.074 200.234 86.117 199.27 84.27 198.516Z" fill="#1B1A19"/>
<path fill-rule="evenodd" clip-rule="evenodd" d="M59.436 164.879C56.537 171.149 54.279 177.417 54.866 180.17C55.572 183.49 78.241 203.865 78.241 203.865C78.241 203.865 81.028 206.45 82.963 207.286C78.528 211.682 72.484 214.393 65.819 214.393C52.212 214.393 41.181 203.118 41.181 189.207C41.181 177.555 48.923 167.755 59.436 164.879Z" fill="#1B1A19"/>
</g>
<defs>
<clipPath id="clip0_131_3999">
<rect width="340" height="340" fill="white" transform="translate(225)"/>
</clipPath>
<clipPath id="clip1_131_3999">
<rect width="210" height="334" fill="white" transform="matrix(-1 0 0 1 210 5)"/>
</clipPath>
</defs>
</svg>
