<svg width="565" height="340" viewBox="0 0 565 340" fill="none" xmlns="http://www.w3.org/2000/svg">
<g clip-path="url(#clip0_131_3999)">
<path fill-rule="evenodd" clip-rule="evenodd" d="M440.672 324.596H284.627V305.044H286.657V322.566H438.642V285.479H440.672V324.596Z" fill="#1B1A19"/>
<path fill-rule="evenodd" clip-rule="evenodd" d="M440.672 251.859H438.642V206.525H376.731V204.496H440.672V251.859Z" fill="#1B1A19"/>
<path fill-rule="evenodd" clip-rule="evenodd" d="M376.731 223.103H439.657V205.51H376.731V223.103Z" fill="#1B1A19"/>
<path fill-rule="evenodd" clip-rule="evenodd" d="M401.853 41.0836C399.701 41.0836 397.551 40.5974 395.878 39.6261C394.092 38.5889 393.115 37.1487 393.124 35.5725V5.50537H395.154V35.5786C395.149 36.4027 395.769 37.2147 396.898 37.8703C399.579 39.4293 404.125 39.4272 406.824 37.8693C407.95 37.2198 408.598 36.3814 408.603 35.5715V5.50537H410.633V35.5776C410.623 37.1568 409.631 38.593 407.838 39.6282C406.158 40.5984 404.004 41.0836 401.853 41.0836Z" fill="#1B1A19"/>
<path fill-rule="evenodd" clip-rule="evenodd" d="M396.931 3.21542C395.803 3.867 395.155 4.70634 395.154 5.51828C395.153 6.33327 395.773 7.14318 396.899 7.7978C399.577 9.35571 404.124 9.35571 406.824 7.79577C407.954 7.14419 408.602 6.30383 408.603 5.49088C408.605 4.67589 407.986 3.86598 406.861 3.21237C404.179 1.65446 399.633 1.65548 396.931 3.21542ZM401.852 11.01C399.7 11.01 397.551 10.5249 395.878 9.5526C394.099 8.51941 393.122 7.08532 393.124 5.51523C393.126 3.93702 394.119 2.49583 395.916 1.45654C399.282 -0.485006 404.536 -0.486021 407.879 1.45654C409.657 2.48974 410.636 3.92383 410.633 5.49392C410.63 7.07314 409.639 8.51535 407.838 9.55464C406.158 10.5249 404.003 11.01 401.852 11.01Z" fill="#1B1A19"/>
<path fill-rule="evenodd" clip-rule="evenodd" d="M396.388 8.676C397.785 9.48692 399.589 9.91725 401.424 9.97612V40.0494C399.589 39.9905 397.785 39.5602 396.388 38.7482C394.881 37.8724 394.133 36.7255 394.139 35.5786V5.50537C394.133 6.65224 394.881 7.7991 396.388 8.676Z" fill="#1B1A19"/>
<path fill-rule="evenodd" clip-rule="evenodd" d="M271.771 284.59H332.666V282.561H271.771V284.59Z" fill="#1B1A19"/>
<path fill-rule="evenodd" clip-rule="evenodd" d="M270.418 338.6H285.642V323.376H270.418V338.6Z" fill="#1B1A19"/>
<path fill-rule="evenodd" clip-rule="evenodd" d="M424.095 283.999H455.219V252.874H424.095V283.999ZM422.065 286.029H457.249V250.844H422.065V286.029Z" fill="#1B1A19"/>
<path fill-rule="evenodd" clip-rule="evenodd" d="M445.916 268.436C445.916 271.893 443.112 274.695 439.657 274.695C436.201 274.695 433.397 271.893 433.397 268.436C433.397 264.98 436.201 262.178 439.657 262.178C443.112 262.178 445.916 264.98 445.916 268.436Z" fill="#1B1A19"/>
<path fill-rule="evenodd" clip-rule="evenodd" d="M418.682 338.128H456.234V336.098H418.682V338.128Z" fill="#1B1A19"/>
<path fill-rule="evenodd" clip-rule="evenodd" d="M322.821 159.087L313.012 168.895L303.204 159.087L313.012 149.278L322.821 159.087Z" fill="#1B1A19"/>
<path fill-rule="evenodd" clip-rule="evenodd" d="M304.639 159.086L313.012 167.46L321.385 159.086L313.012 150.713L304.639 159.086ZM313.012 170.33L301.769 159.086L313.012 147.843L324.255 159.086L313.012 170.33Z" fill="#1B1A19"/>
<path fill-rule="evenodd" clip-rule="evenodd" d="M261.477 108.567L267.458 114.547L273.439 108.567L267.458 102.586L261.477 108.567ZM267.458 117.418L258.606 108.566L267.458 99.7153L276.309 108.566L267.458 117.418Z" fill="#1B1A19"/>
<path fill-rule="evenodd" clip-rule="evenodd" d="M333.551 129.557L339.532 135.537L345.512 129.557L339.532 123.577L333.551 129.557ZM339.532 138.408L330.681 129.557L339.532 120.705L348.382 129.557L339.532 138.408Z" fill="#1B1A19"/>
<path fill-rule="evenodd" clip-rule="evenodd" d="M258.267 209.232L264.248 215.213L270.229 209.232L264.248 203.251L258.267 209.232ZM264.248 218.083L255.396 209.232L264.248 200.381L273.099 209.232L264.248 218.083Z" fill="#1B1A19"/>
<path fill-rule="evenodd" clip-rule="evenodd" d="M339.391 192.569L345.372 198.55L351.352 192.569L345.372 186.588L339.391 192.569ZM345.372 201.42L336.521 192.569L345.372 183.718L354.222 192.569L345.372 201.42Z" fill="#1B1A19"/>
<path fill-rule="evenodd" clip-rule="evenodd" d="M309.902 152.448L270.787 113.33L272.222 111.895L311.337 151.013L309.902 152.448Z" fill="#1B1A19"/>
<path fill-rule="evenodd" clip-rule="evenodd" d="M318.071 154.338L316.636 152.903L336.049 133.49L337.484 134.925L318.071 154.338Z" fill="#1B1A19"/>
<path fill-rule="evenodd" clip-rule="evenodd" d="M340.974 189.605L316.58 165.212L318.015 163.777L342.409 188.17L340.974 189.605Z" fill="#1B1A19"/>
<path fill-rule="evenodd" clip-rule="evenodd" d="M268.672 206.242L267.237 204.807L308.081 163.963L309.516 165.398L268.672 206.242Z" fill="#1B1A19"/>
<path fill-rule="evenodd" clip-rule="evenodd" d="M335.783 125.888L314.467 104.572L315.902 103.137L337.218 124.453L335.783 125.888Z" fill="#1B1A19"/>
<path fill-rule="evenodd" clip-rule="evenodd" d="M343.981 125.208L342.546 123.773L348.973 117.346L350.409 118.781L343.981 125.208Z" fill="#1B1A19"/>
<path fill-rule="evenodd" clip-rule="evenodd" d="M312.294 258.715L267.998 214.418L269.433 212.983L313.73 257.28L312.294 258.715Z" fill="#1B1A19"/>
<path fill-rule="evenodd" clip-rule="evenodd" d="M330.956 209.617L329.521 208.182L341.544 196.158L342.979 197.593L330.956 209.617Z" fill="#1B1A19"/>
<path fill-rule="evenodd" clip-rule="evenodd" d="M352.949 201.751L348.277 197.079L349.712 195.644L354.384 200.316L352.949 201.751Z" fill="#1B1A19"/>
<path fill-rule="evenodd" clip-rule="evenodd" d="M253.796 221.118L252.361 219.683L260.377 211.667L261.812 213.102L253.796 221.118Z" fill="#1B1A19"/>
<path fill-rule="evenodd" clip-rule="evenodd" d="M257.374 121.22L255.939 119.785L263.599 112.124L265.034 113.559L257.374 121.22Z" fill="#1B1A19"/>
<path fill-rule="evenodd" clip-rule="evenodd" d="M263.71 104.899L252.049 93.2383L253.484 91.8032L265.145 103.464L263.71 104.899Z" fill="#1B1A19"/>
<path fill-rule="evenodd" clip-rule="evenodd" d="M274.191 107.885L272.756 106.45L313.113 66.092L314.548 67.5271L274.191 107.885Z" fill="#1B1A19"/>
<path fill-rule="evenodd" clip-rule="evenodd" d="M258.554 121.991L255.168 125.377L251.781 121.991L255.168 118.605L258.554 121.991Z" fill="#1B1A19"/>
<path fill-rule="evenodd" clip-rule="evenodd" d="M317.169 66.762L313.783 70.1478L310.397 66.762L313.783 63.3762L317.169 66.762Z" fill="#1B1A19"/>
<path fill-rule="evenodd" clip-rule="evenodd" d="M316.916 102.199L313.53 105.585L310.144 102.199L313.53 98.812L316.916 102.199Z" fill="#1B1A19"/>
<path fill-rule="evenodd" clip-rule="evenodd" d="M354.687 116.286L351.3 119.672L347.914 116.286L351.3 112.9L354.687 116.286Z" fill="#1B1A19"/>
<path fill-rule="evenodd" clip-rule="evenodd" d="M359.966 181.36L356.58 184.747L353.194 181.36L356.58 177.974L359.966 181.36Z" fill="#1B1A19"/>
<path fill-rule="evenodd" clip-rule="evenodd" d="M332.317 210.208L328.931 213.594L325.544 210.208L328.931 206.822L332.317 210.208Z" fill="#1B1A19"/>
<path fill-rule="evenodd" clip-rule="evenodd" d="M316.399 257.997L313.012 261.383L309.626 257.997L313.012 254.611L316.399 257.997Z" fill="#1B1A19"/>
<path fill-rule="evenodd" clip-rule="evenodd" d="M255.207 221.659L251.82 225.046L248.435 221.659L251.82 218.273L255.207 221.659Z" fill="#1B1A19"/>
<path fill-rule="evenodd" clip-rule="evenodd" d="M358.663 202.809L355.277 206.195L351.891 202.809L355.277 199.423L358.663 202.809Z" fill="#1B1A19"/>
<path fill-rule="evenodd" clip-rule="evenodd" d="M254.456 90.824L251.071 94.2108L247.685 90.824L251.071 87.4382L254.456 90.824Z" fill="#1B1A19"/>
<path fill-rule="evenodd" clip-rule="evenodd" d="M349.846 189.628L348.411 188.193L356.189 180.414L357.624 181.85L349.846 189.628Z" fill="#1B1A19"/>
<path fill-rule="evenodd" clip-rule="evenodd" d="M473.023 311.249H483.791C485.273 302.802 494.539 249.92 495.937 240.031C496.975 232.672 503.219 212.808 507.778 198.304C509.828 191.784 511.596 186.153 511.84 184.919C512.321 182.473 512.325 180.452 512.274 179.38L484.048 169.664C483.21 176.059 480.949 195.21 478.757 213.792C476.016 236.995 473.43 258.913 473.023 261.189C472.426 264.525 472.803 297.231 473.023 311.249ZM486.053 314H470.365L470.342 312.647C470.311 310.709 469.574 265.118 470.365 260.697C470.757 258.5 473.46 235.606 476.073 213.465C478.624 191.866 481.032 171.464 481.596 167.626L481.837 166L514.775 177.337L514.889 178.18C514.907 178.306 515.301 181.333 514.49 185.458C514.218 186.846 512.596 192.002 510.352 199.143C506.078 212.741 499.618 233.293 498.612 240.424C497.093 251.169 486.36 312.251 486.253 312.865L486.053 314Z" fill="#1B1A19"/>
<path fill-rule="evenodd" clip-rule="evenodd" d="M502.509 181C494.359 181 478.772 175.227 478.091 174.972L477 174.565L477.235 173.398C477.292 173.12 482.907 145.251 488.029 119.272L490.664 119.819C486.139 142.769 481.227 167.196 480.104 172.778C483.944 174.143 496.869 178.584 503.155 178.228C510.812 177.837 522.667 176.408 525.427 175.691C526.769 170.484 526.513 127.316 525.023 117.777C523.79 109.874 513.954 87.9135 509.225 77.3617C508.483 75.7036 507.863 74.3197 507.417 73.3027L499.048 75.7143C498.735 77.7527 498.048 81.5814 497.003 87.135L494.364 86.6135C495.581 80.1429 496.304 76.05 496.514 74.4473L496.633 73.5509L508.941 70L509.407 71.1071C509.813 72.0714 510.616 73.8652 511.668 76.2108C516.446 86.876 526.386 109.066 527.678 117.342C528.523 122.744 528.952 138.37 528.995 150.602C529.091 177.199 527.85 177.708 526.851 178.118C524.516 179.077 510.248 180.625 503.288 180.98C503.038 180.993 502.776 181 502.509 181Z" fill="#1B1A19"/>
<path fill-rule="evenodd" clip-rule="evenodd" d="M529.419 321.349H542.793L552.223 318.3L547.704 309.204L542.767 310.706C543.969 313.289 544.228 314.685 543.771 315.769C543.507 316.402 543 316.856 542.312 317.084C541.824 317.242 540.988 317.383 539.429 317.637C536.856 318.055 532.551 318.757 531.028 319.707C530.44 320.074 529.88 320.706 529.419 321.349ZM543.224 324H525L525.857 322.129C526.009 321.795 527.414 318.823 529.586 317.468C531.42 316.322 535.08 315.656 538.99 315.02C539.907 314.872 540.853 314.716 541.295 314.611C541.285 314.217 541.039 313.177 539.674 310.487L538.965 309.089L549.11 306L556 319.869L543.224 324Z" fill="#1B1A19"/>
<path fill-rule="evenodd" clip-rule="evenodd" d="M461.411 322.27H485.011L482.036 314.854L477.482 314.789C477.669 315.513 477.659 316.133 477.365 316.681C476.871 317.605 475.906 317.71 475.328 317.773C475.097 317.798 474.877 317.822 474.72 317.878C474.224 318.046 473.227 318.222 471.358 318.545C468.832 318.984 463.574 319.894 462.61 320.631C462.082 321.036 461.689 321.666 461.411 322.27ZM489 325H458L458.26 323.412C458.314 323.077 458.855 320.093 461.006 318.449C462.379 317.397 466.138 316.682 470.909 315.853C472.147 315.638 473.55 315.396 473.872 315.286C474.191 315.178 474.497 315.125 474.767 315.091C474.673 314.838 474.521 314.487 474.287 314.007L473.303 312L483.84 312.146L489 325Z" fill="#1B1A19"/>
<path fill-rule="evenodd" clip-rule="evenodd" d="M497.332 64.1264C497.552 64.1264 497.763 64.1443 497.963 64.1848C498.782 64.3501 500.605 64.7177 499.446 72.1194L507.112 69.9706L509.13 53.3087L503.346 42.4237L496.419 40.4259L493.189 51.1267C492.669 52.8926 492.122 54.5426 491.621 56.0606C490.343 59.9196 489.136 63.5647 490.171 64.5335C491.077 65.3828 493.177 64.9065 494.865 64.5245C495.786 64.3142 496.613 64.1264 497.332 64.1264ZM495.883 76L496.32 73.7838C496.871 71.0122 497.137 68.0744 496.972 66.9267C496.552 66.9852 495.957 67.12 495.483 67.2278C493.276 67.7284 490.256 68.4132 488.266 66.5565C485.936 64.3762 487.211 60.5253 488.978 55.1933C489.47 53.7006 490.008 52.0766 490.518 50.343L490.52 50.3322L494.546 37L505.254 40.0862L512 52.7776L509.654 72.141L495.883 76Z" fill="#1B1A19"/>
<path fill-rule="evenodd" clip-rule="evenodd" d="M493.008 44.5683C487.295 39.113 490.656 30.4325 495.331 32.2443C500.008 34.058 499.865 38.3708 502.165 36.594C505.5 34.0211 511.895 35.3597 512.325 39.113C512.904 44.1365 522.2 49.8716 520.87 56.5279C519.52 63.285 512.807 66.3329 509.57 65.9713C506.333 65.6078 502.273 61.5334 503.14 59.3572C504.009 57.1837 507.961 57.5031 507.961 54.8465C507.961 51.3425 504.92 52.6946 502.91 49.7546C500.902 46.8174 500.597 43.6759 498.318 42.4659C495.658 41.0562 493.008 44.5683 493.008 44.5683Z" fill="#1B1A19"/>
<path fill-rule="evenodd" clip-rule="evenodd" d="M411.703 102.685C411.21 105.95 413.627 110.896 416.445 112.802C418.083 113.911 422.435 114.716 424.7 115.041L426.402 112.758C424.151 112.017 421.99 110.946 421.565 109.496C421.361 108.803 421.395 107.924 421.44 106.812C421.502 105.231 421.596 102.843 420.641 102.351C420.317 102.68 419.893 103.897 419.703 104.435C419.37 105.399 419.105 106.159 418.579 106.617C416.606 108.328 414.24 105.607 412.153 103.201C412.013 103.039 411.859 102.861 411.703 102.685ZM425.875 118L425.131 117.909C424.378 117.818 417.691 116.968 414.996 115.144C410.552 112.136 407.308 104.116 409.953 99.7185L410.305 99.1329L411.068 99.0046C412.027 98.9341 412.691 99.6706 414.128 101.327C414.825 102.13 416.172 103.681 416.946 104.183C417.029 103.964 417.121 103.702 417.198 103.484C417.69 102.066 418.302 100.303 419.693 99.7176C420.162 99.5215 420.911 99.3832 421.816 99.8459C424.335 101.137 424.197 104.621 424.104 106.927C424.08 107.56 424.046 108.428 424.115 108.676C424.428 109.071 426.78 110.052 428.994 110.614L431 111.123L425.875 118Z" fill="#1B1A19"/>
<path fill-rule="evenodd" clip-rule="evenodd" d="M427.211 116.343C437.569 121.583 460.81 132.912 465.435 133.197C469.59 132.971 505.669 105.885 509.147 101.361C510.471 99.6411 513.115 91.0595 509.254 87.0949C505.086 82.816 498.368 85.0431 493.884 89.4529C493.346 89.9827 491.701 91.6983 489.563 93.9209C476.713 107.293 474.251 109.627 473.325 110.125C473.281 110.26 473.232 110.452 473.197 110.592C472.993 111.398 472.653 112.75 471.326 113.247C470.401 113.593 469.319 113.458 468.364 113.338C468.142 113.313 467.849 113.275 467.613 113.258C467.566 113.428 467.518 113.622 467.475 113.788C467.099 115.265 466.467 117.74 464.349 117.885C464.331 117.886 464.309 117.886 464.288 117.886C462.208 117.887 441.486 112.868 431.675 110.462L427.211 116.343ZM465.384 136C465.356 136 465.327 136 465.299 135.997C459.035 135.641 428.014 119.887 424.497 118.093L423 117.328L430.602 107.315L431.456 107.526C443.031 110.368 461.866 114.865 464.113 115.079C464.403 114.768 464.7 113.593 464.833 113.077C465.063 112.171 465.229 111.517 465.683 111.053C466.438 110.275 467.532 110.41 468.692 110.555C469.244 110.623 470.081 110.729 470.391 110.611C470.381 110.566 470.489 110.142 470.552 109.887C470.735 109.162 471.035 107.975 472.154 107.586C473.657 106.482 483.058 96.6951 487.619 91.9491C489.783 89.6992 491.449 87.9636 491.996 87.4302C498.339 81.1858 506.411 80.2099 511.184 85.1113C516.297 90.3589 513.266 100.531 511.292 103.099C508.563 106.649 471.061 135.997 465.384 136Z" fill="#1B1A19"/>
<path fill-rule="evenodd" clip-rule="evenodd" d="M513 325H543V323H513V325Z" fill="#1B1A19"/>
<path fill-rule="evenodd" clip-rule="evenodd" d="M527.141 250.177C524.914 247.587 523.977 239.512 524.075 237.107C524.244 232.966 520.695 229.831 519.998 228.307C517.731 223.347 527.217 196.657 526.792 176L514.272 177.682C514.37 179.958 514.37 182.728 513.981 184.709C513.293 188.207 502.554 220.13 499 235.027C500.229 243.824 501.229 250.211 501.658 251.083C503.217 254.25 538.53 311 538.53 311L551 307.437C551 307.437 531.037 254.705 527.141 250.177Z" fill="#1B1A19"/>
<path fill-rule="evenodd" clip-rule="evenodd" d="M526.445 116.898C527.063 120.88 527.496 131.11 527.668 142C532.864 136.427 542 126.057 542 122.084C542 120.241 538.101 112.17 534.4 107.765C531.895 104.789 521.484 93.1951 515 86C519.825 97.0889 525.507 110.853 526.445 116.898Z" fill="#1B1A19"/>
<path fill-rule="evenodd" clip-rule="evenodd" d="M509.514 152.816C507.128 144.608 495.097 151.106 490.51 147.002C487.559 144.363 495.561 124.116 501.648 110C498.027 112.847 493.647 116.151 489.182 119.394C484.013 145.973 478 173.097 478 173.097C478 173.097 495.201 179.375 503.02 178.982C505.581 178.855 510.763 178.398 513.965 178.084C514.339 174.193 511.65 160.168 509.514 152.816Z" fill="#1B1A19"/>
<path fill-rule="evenodd" clip-rule="evenodd" d="M411.466 101.037C411.971 100.218 416.441 107.326 418.074 105.946C418.861 105.283 419.36 100.558 421.557 101.653C424.055 102.897 422.718 107.911 423.161 109.369C423.514 110.536 426.996 111.611 428.391 112L434 108.128L420.839 95L411 100.838L411.377 101.215C411.41 101.157 411.431 101.092 411.466 101.037Z" fill="#1B1A19"/>
</g>
<g clip-path="url(#clip1_131_3999)">
<path fill-rule="evenodd" clip-rule="evenodd" d="M143.519 222.684H180.77V220.53H145.673V38.3916H143.519V222.684Z" fill="#1B1A19"/>
<path fill-rule="evenodd" clip-rule="evenodd" d="M196.079 227.475C198.607 227.475 200.657 225.425 200.657 222.897C200.657 220.368 198.607 218.319 196.079 218.319C193.551 218.319 191.501 220.368 191.501 222.897C191.501 225.425 193.551 227.475 196.079 227.475ZM211 237.816H181.16V207.976H211V237.816Z" fill="#1B1A19"/>
<path fill-rule="evenodd" clip-rule="evenodd" d="M112.151 323.458L121.526 317.79L121.504 317.159C121.438 315.249 119.849 270.305 118.16 264.115C116.478 257.948 89.335 202.284 88.18 199.917L86.245 200.862C86.526 201.439 114.452 258.709 116.081 264.683C117.601 270.252 119.125 311.01 119.329 316.602L113.283 320.257C111.141 314.25 101.987 288.077 102.244 280.107C102.288 278.771 102.457 275.705 102.655 273.084C102.912 269.661 101.746 266.238 99.454 263.691C80.972 243.143 69.134 229.358 67.788 226.815C65.355 222.219 61.547 209.304 61.508 209.174L59.442 209.781C59.599 210.321 63.35 223.036 65.883 227.823C67.863 231.561 86.763 252.802 97.853 265.132C99.753 267.244 100.72 270.084 100.507 272.923C100.307 275.572 100.135 278.679 100.092 280.039C99.787 289.43 111.215 320.893 111.703 322.228L112.151 323.458Z" fill="#1B1A19"/>
<path fill-rule="evenodd" clip-rule="evenodd" d="M143.595 7.1544C151.91 7.1544 158.675 13.9188 158.675 22.2344C158.675 30.5499 151.91 37.3144 143.595 37.3144C135.279 37.3144 128.515 30.5499 128.515 22.2344C128.515 13.9188 135.279 7.1544 143.595 7.1544ZM143.595 39.4685C153.097 39.4685 160.829 31.7368 160.829 22.2343C160.829 12.7317 153.097 5 143.595 5C134.092 5 126.361 12.7317 126.361 22.2343C126.361 31.7368 134.092 39.4685 143.595 39.4685Z" fill="#1B1A19"/>
<path fill-rule="evenodd" clip-rule="evenodd" d="M110.032 171.033C111.354 171.033 112.533 170.614 113.704 170.126C115.902 169.21 138.839 157.747 139.814 157.259L140.394 156.969L140.584 148.318L139.096 148.871C129.012 152.622 113.136 158.2 110.734 158.2C108.675 158.2 95.847 151.208 84.823 144.629L83.718 146.48C87.602 148.797 107.151 160.354 110.734 160.354C113.912 160.354 132.553 153.58 138.361 151.44L138.27 155.622C134.603 157.454 114.818 167.329 112.874 168.138C110.783 169.01 109.522 169.222 107.595 168.184C106.081 167.369 97.945 163.877 91.387 161.091L90.545 163.074C99.756 166.986 105.449 169.474 106.574 170.081C107.859 170.774 108.99 171.033 110.032 171.033Z" fill="#1B1A19"/>
<path fill-rule="evenodd" clip-rule="evenodd" d="M83.943 182.297L86.058 181.884C86.05 181.846 85.326 177.947 86.729 173.348C87.459 170.957 88.732 168.752 89.856 166.807C91.012 164.805 92.011 163.077 92.156 161.571C92.481 158.222 90.37 154.504 88.136 150.569C86.275 147.293 84.352 143.905 83.798 140.662L83.615 139.587L82.542 139.784C81.481 139.979 76.107 141.059 74.532 143.107L76.241 144.42C76.92 143.534 79.68 142.624 81.902 142.116C82.699 145.356 84.506 148.541 86.262 151.633C88.323 155.263 90.27 158.692 90.013 161.364C89.912 162.404 88.979 164.019 87.991 165.729C86.808 167.774 85.469 170.093 84.669 172.72C83.102 177.858 83.909 182.118 83.943 182.297Z" fill="#1B1A19"/>
<path fill-rule="evenodd" clip-rule="evenodd" d="M82.751 198.424L78.246 202.421C67.504 192.726 56.378 181.831 55.918 179.944C54.68 174.137 67.846 150.394 69.651 149.085C71.33 148.323 74.652 147.452 76.132 148.513C76.865 149.039 77.155 150.106 76.993 151.684C76.884 152.753 74.628 157.827 72.638 162.305C69.29 169.835 67.087 174.908 66.986 176.745C66.803 180.015 78.199 193.269 82.751 198.424ZM78.237 205.31L85.793 198.606L85.076 197.799C77.404 189.176 69.129 178.718 69.137 176.86C69.224 175.286 72.208 168.573 74.606 163.18C77.326 157.064 78.999 153.246 79.137 151.904C79.384 149.501 78.795 147.771 77.387 146.762C74.425 144.638 69.266 146.9 68.687 147.165C66.048 148.37 52.35 173.535 53.813 180.394C54.555 183.88 73.692 201.225 77.521 204.666L78.237 205.31Z" fill="#1B1A19"/>
<path fill-rule="evenodd" clip-rule="evenodd" d="M85.419 117.323C86.388 118.982 87.274 120.456 88.065 121.772C91.874 128.105 93.008 130.182 91.49 131.7C90.265 132.92 83.782 130.347 78.312 127.113L76.659 118.958L85.419 117.323ZM90.386 134.102C91.476 134.102 92.391 133.844 93.013 133.223C95.794 130.442 93.951 127.377 89.911 120.661C89.021 119.182 88.012 117.504 86.9 115.585L86.52 114.927L74.113 117.241L76.389 128.472L76.794 128.716C79.209 130.172 86.127 134.102 90.386 134.102Z" fill="#1B1A19"/>
<path fill-rule="evenodd" clip-rule="evenodd" d="M210 338.975H91.957V336.096H210V338.975Z" fill="#1B1A19"/>
<path fill-rule="evenodd" clip-rule="evenodd" d="M75.386 338.914H60.475V336.76H75.386V338.914Z" fill="#1B1A19"/>
<path fill-rule="evenodd" clip-rule="evenodd" d="M81.776 140.027L78.427 141.141V129.557L83.081 131.943L81.776 140.027ZM76.273 144.127L83.696 141.659L85.458 130.741L76.273 126.031V144.127Z" fill="#1B1A19"/>
<path fill-rule="evenodd" clip-rule="evenodd" d="M88.496 103.524C93.197 103.524 92.961 111.816 90.451 113.611C87.943 115.407 88.841 115.589 85.968 116.124C83.096 116.661 78.428 118.1 79.146 120.254C79.864 122.408 82.06 122.462 80.513 124.59C78.967 126.717 78.638 131.384 79.072 135.334C79.505 139.283 81.634 144.145 77.517 148.446C73.401 152.747 68.654 153.889 65.372 153.139C62.091 152.388 47.37 144.49 47.73 135.334C48.088 126.178 58.68 128.387 62.271 124.59C65.861 120.793 67.297 111.816 72.863 110.38C78.428 108.944 83.473 107.328 84.271 106.251C85.07 105.174 84.869 103.524 88.496 103.524Z" fill="#1B1A19"/>
<path fill-rule="evenodd" clip-rule="evenodd" d="M142.518 142.268V151.261C142.518 152.218 142.047 153.112 141.262 153.655L140.443 154.16C140.314 150.964 140.355 145.839 141.434 143.946L141.509 143.812C141.729 143.424 142.074 142.814 142.518 142.268ZM138.535 157.868L142.439 155.458C143.854 154.483 144.672 152.925 144.672 151.261V138.643L143.253 139.115C141.326 139.757 140.183 141.78 139.634 142.753L139.562 142.88C137.681 146.179 138.318 155.102 138.398 156.108L138.535 157.868Z" fill="#1B1A19"/>
<path fill-rule="evenodd" clip-rule="evenodd" d="M137.228 331.231L118.978 336.234L114.013 322.293L118.85 319.1L121.402 329.655L122.326 329.574C122.377 329.57 127.541 329.126 131.182 329.219C133.89 329.289 135.959 330.347 137.228 331.231ZM117.619 338.84L141.412 332.319L140.284 331.025C140.149 330.87 136.895 327.211 131.235 327.066C128.374 326.996 124.743 327.228 123.062 327.354L120.224 315.614L111.417 321.425L117.619 338.84Z" fill="#1B1A19"/>
<path fill-rule="evenodd" clip-rule="evenodd" d="M13.379 314.722L8.843 319.443L9.40699 320.177C9.43899 320.218 12.59 324.331 14.471 327.45C15.882 329.791 16.103 332.098 16.035 333.636L2.80799 321.676L9.09899 311.981L13.379 314.722ZM17.363 337.742L17.848 336.096C17.905 335.897 19.238 331.187 16.316 326.339C14.84 323.891 12.686 320.954 11.674 319.604L16.751 314.322L8.457 309.014L-5.72205e-06 322.043L17.363 337.742Z" fill="#1B1A19"/>
<path fill-rule="evenodd" clip-rule="evenodd" d="M32.828 285.775C40.368 280.389 47.549 265.668 49.345 259.77C51.139 253.871 54.731 249.87 61.457 245.472C65.986 242.511 68.59 237.624 69.402 230.854C71.215 233.134 73.791 236.196 76.724 239.604C67.844 255.028 56.767 268.613 52.879 272.257C48.414 276.444 15.755 314.963 15.755 314.963L11.721 312.38C11.721 312.38 25.288 291.16 32.828 285.775Z" fill="#1B1A19"/>
<path fill-rule="evenodd" clip-rule="evenodd" d="M75.409 239.727C66.541 254.972 55.754 268.088 52.144 271.473C47.969 275.386 20.174 308.094 15.544 313.549L10.194 310.126C13.365 304.126 31.726 269.404 32.973 267.407C33.929 265.877 39.065 262.537 41.258 261.11C42.056 260.59 42.66 260.196 42.919 260.001C44.315 258.954 43.397 257.385 42.903 256.541C42.589 256.004 42.233 255.395 42.233 254.953C42.233 254.41 42.979 253.99 44.029 253.454C44.441 253.245 44.869 253.028 45.243 252.779C46.066 252.23 48.141 247.757 58.873 221.463C59.805 219.18 60.633 217.149 61.258 215.631C62.601 219.776 64.449 225.113 65.884 227.824C66.64 229.248 69.756 233.144 75.409 239.727ZM15.969 316.379L16.577 315.66C16.904 315.276 49.246 277.142 53.616 273.044C57.357 269.537 68.608 255.862 77.657 240.143L78.038 239.482L77.54 238.903C70.34 230.536 68.262 227.712 67.788 226.816C66.08 223.59 63.696 216.269 62.427 212.193L61.591 209.508L60.419 212.065C60.064 212.842 58.727 216.116 56.878 220.649C53.081 229.952 45.234 249.179 43.94 251.054C43.688 251.212 43.379 251.369 43.053 251.534C41.798 252.173 40.079 253.046 40.079 254.953C40.079 255.979 40.614 256.894 41.044 257.628C41.18 257.861 41.369 258.185 41.459 258.397C41.169 258.599 40.685 258.912 40.083 259.304C36.344 261.736 32.262 264.481 31.146 266.265C29.746 268.505 8.72 308.302 7.826 309.996L7.36301 310.871L15.969 316.379Z" fill="#1B1A19"/>
<path fill-rule="evenodd" clip-rule="evenodd" d="M84.464 199.783C85.91 200.5 86.63 201.405 86.603 202.478C86.555 204.372 84.436 206.303 83.913 206.486C83.907 206.486 83.9 206.486 83.895 206.486C83.362 206.487 81.58 205.324 79.863 203.865L84.464 199.783ZM84.011 208.617C84.231 208.617 84.436 208.585 84.626 208.519C86.005 208.035 88.686 205.327 88.757 202.533C88.795 201.021 88.118 198.923 84.677 197.518L84.056 197.265L76.638 203.847L77.507 204.655C79.175 206.204 82.082 208.617 84.011 208.617Z" fill="#1B1A19"/>
<path fill-rule="evenodd" clip-rule="evenodd" d="M84.27 198.516C84.27 198.516 67.877 180.09 68.06 176.805C68.146 175.254 70.319 170.194 72.618 165.001C82.917 168.02 90.456 177.711 90.456 189.208C90.456 193.569 89.371 197.671 87.464 201.248C87.074 200.234 86.117 199.27 84.27 198.516Z" fill="#1B1A19"/>
<path fill-rule="evenodd" clip-rule="evenodd" d="M59.436 164.879C56.537 171.149 54.279 177.417 54.866 180.17C55.572 183.49 78.241 203.865 78.241 203.865C78.241 203.865 81.028 206.45 82.963 207.286C78.528 211.682 72.484 214.393 65.819 214.393C52.212 214.393 41.181 203.118 41.181 189.207C41.181 177.555 48.923 167.755 59.436 164.879Z" fill="#1B1A19"/>
</g>
<path fill-rule="evenodd" clip-rule="evenodd" d="M211.575 303.44H375.425V33.56H211.575V303.44ZM210 305H377V32H210V305Z" fill="#1B1A19"/>
<defs>
<clipPath id="clip0_131_3999">
<rect width="340" height="340" fill="white" transform="translate(225)"/>
</clipPath>
<clipPath id="clip1_131_3999">
<rect width="210" height="334" fill="white" transform="matrix(-1 0 0 1 210 5)"/>
</clipPath>
</defs>
</svg>
